<svg width="200" height="200" viewBox="0 0 200 200" fill="none" xmlns="http://www.w3.org/2000/svg">
<circle cx="100" cy="100" r="100" fill="#F6F9FC"/>
<path d="M135.65 60C136.659 60 137.542 60.3784 138.298 61.1351C139.055 61.8919 139.434 62.7748 139.434 63.7838V136.216C139.434 137.225 139.055 138.108 138.298 138.865C137.542 139.622 136.659 140 135.65 140H127.434C126.352 140 125.452 139.622 124.731 138.865C124.01 138.108 123.65 137.225 123.65 136.216V87.3514L103.65 113.081C102.857 114.018 101.848 114.486 100.623 114.486C100.046 114.486 99.4696 114.36 98.893 114.108C98.3164 113.856 97.884 113.477 97.5957 112.973L62.1362 66.0541C61.7038 65.5495 61.4515 64.9189 61.3795 64.1622C61.3074 63.4054 61.4515 62.7207 61.8119 62.1081C62.1723 61.4955 62.6407 60.991 63.2173 60.5946C63.7939 60.1982 64.4425 60 65.1633 60H74.6768C75.902 60 76.911 60.5045 77.7038 61.5135L100.623 91.7838L123.001 61.5135C123.794 60.5045 124.839 60 126.136 60H135.65ZM73.3795 112.432C74.3885 112.432 75.2714 112.793 76.0281 113.514C76.7849 114.234 77.1633 115.135 77.1633 116.216V136.216C77.1633 137.225 76.7849 138.108 76.0281 138.865C75.2714 139.622 74.3885 140 73.3795 140H65.1633C64.1542 140 63.2714 139.622 62.5146 138.865C61.7578 138.108 61.3795 137.225 61.3795 136.216V116.216C61.3795 115.135 61.7578 114.234 62.5146 113.514C63.2714 112.793 64.1542 112.432 65.1633 112.432H73.3795Z" fill="url(#paint0_linear_592_5377)"/>
<defs>
<linearGradient id="paint0_linear_592_5377" x1="61.3615" y1="60" x2="139.434" y2="60" gradientUnits="userSpaceOnUse">
<stop stop-color="#00DDFF"/>
<stop offset="1" stop-color="#FF00D4"/>
</linearGradient>
</defs>
</svg>
