<svg width="48" height="48" viewBox="0 0 48 48" fill="none" xmlns="http://www.w3.org/2000/svg">
<circle cx="24" cy="24" r="24" fill="#F6F9FC"/>
<path d="M23.7467 14C23.4017 14 23.122 14.2797 23.122 14.6248C23.122 14.9698 23.4017 15.2495 23.7467 15.2495C24.0918 15.2495 24.3715 14.9698 24.3715 14.6248C24.3715 14.2797 24.0918 14 23.7467 14ZM18.4456 16.5597C18.2016 16.3157 17.8061 16.3157 17.5622 16.5597C17.3182 16.8036 17.3182 17.1991 17.5622 17.4431C17.8061 17.687 18.2016 17.687 18.4456 17.4431C18.6895 17.1991 18.6895 16.8036 18.4456 16.5597ZM29.9313 16.5597C29.6873 16.3157 29.2918 16.3157 29.0479 16.5597C28.8039 16.8036 28.8039 17.1991 29.0479 17.4431C29.2918 17.687 29.6873 17.687 29.9313 17.4431C30.1752 17.1991 30.1752 16.8036 29.9313 16.5597ZM23.7805 16.4991C20.3667 16.4991 17.5428 19.0993 17.5428 22.3469C17.5428 24.5785 18.5974 26.103 19.5608 27.245C20.0431 27.8148 20.5042 28.3071 20.8178 28.7432C21.1315 29.1806 21.2839 29.5329 21.2839 29.8878V33.2857C21.2839 33.6802 21.6037 34 21.9982 34H25.5627C25.9572 34 26.277 33.6802 26.277 33.2857V29.8878C26.277 29.5329 26.432 29.1756 26.7456 28.7357C27.0605 28.2959 27.5191 27.8023 28.0001 27.23C28.9648 26.0842 30.0194 24.5623 30.0194 22.3469C30.0194 19.0993 27.1954 16.4991 23.7805 16.4991ZM23.7805 17.7486C26.5669 17.7486 28.7698 19.8253 28.7698 22.3469C28.7698 24.1762 27.9514 25.3482 27.0442 26.4266C26.5907 26.9664 26.1158 27.4675 25.7285 28.011C25.3411 28.5545 25.0287 29.1693 25.0287 29.8878V30.4563C24.9908 30.4495 24.9523 30.4461 24.9138 30.4463H24.3715V25.2458H24.6391C24.8364 25.2458 24.9963 25.0859 24.9963 24.8886V24.3534C24.9963 24.1561 24.8364 23.9963 24.6391 23.9963H22.8543C22.6571 23.9963 22.4972 24.1561 22.4972 24.3534V24.8886C22.4972 25.0859 22.6571 25.2458 22.8543 25.2458H23.122V30.4463H22.5797C22.5643 30.4458 22.5488 30.4458 22.5334 30.4463V29.8878C22.5334 29.1693 22.221 28.5545 21.8337 28.0135C21.4463 27.4724 20.969 26.9764 20.5154 26.4391C19.6095 25.3657 18.7923 24.1962 18.7923 22.3469C18.7923 19.8253 20.9953 17.7486 23.7805 17.7486ZM15.6248 21.4972C15.2797 21.4972 15 21.7769 15 22.122C15 22.467 15.2797 22.7467 15.6248 22.7467C15.9698 22.7467 16.2495 22.467 16.2495 22.122C16.2495 21.7769 15.9698 21.4972 15.6248 21.4972ZM31.8687 21.4972C31.5236 21.4972 31.2439 21.7769 31.2439 22.122C31.2439 22.467 31.5236 22.7467 31.8687 22.7467C32.2137 22.7467 32.4934 22.467 32.4934 22.122C32.4934 21.7769 32.2137 21.4972 31.8687 21.4972ZM25.0275 31.6859V32.7505H22.5347V31.6934C22.5355 31.6934 22.5363 31.6934 22.5372 31.6934C22.5517 31.6947 22.5663 31.6955 22.5809 31.6959H24.915C24.9532 31.696 24.9912 31.6927 25.0287 31.6859H25.0275Z" fill="#635BFF"/>
</svg>
