<svg width="20" height="20" viewBox="0 0 20 20" fill="none" xmlns="http://www.w3.org/2000/svg">
<path d="M13.2379 0.00817299C12.4366 0.152838 11.7487 0.453899 11.1897 0.899626C10.8653 1.16159 1.18728 10.7213 1.15992 10.8112C1.14819 10.8464 1.04265 11.0223 0.921483 11.2061C0.514975 11.816 0.256999 12.4377 0.0967411 13.1688C-0.032247 13.7592 -0.032247 14.8853 0.0967411 15.4561C0.350809 16.6017 0.80813 17.458 1.60551 18.2752C2.4068 19.1001 3.33708 19.6202 4.5097 19.8899C4.95529 19.9916 6.10446 20.0346 6.54615 19.9681C7.46079 19.8235 8.27381 19.5146 8.96956 19.0454C9.14154 18.9281 9.29008 18.8421 9.29789 18.8538C9.31744 18.8734 20 8.31668 20 8.27758C20 8.26585 19.7733 8.02344 19.4919 7.74584L18.9837 7.23755L18.6632 7.55425C18.3779 7.82794 14.0509 12.1014 9.91547 16.1912C9.15327 16.9458 8.4067 17.6496 8.26208 17.7512C6.50706 18.9868 4.17355 18.7795 2.6765 17.2586C2.18009 16.7542 1.8244 16.1364 1.6016 15.4092C1.50388 15.0808 1.49607 15.0104 1.49607 14.3144C1.49607 13.6146 1.50388 13.552 1.60551 13.2197C1.81267 12.5354 2.09019 12.0311 2.52015 11.5384C2.66478 11.3742 4.86539 9.18076 7.41389 6.6628C10.8028 3.31203 12.1161 2.0374 12.3115 1.90838C13.7538 0.973913 15.6418 1.47047 16.4274 2.99533C16.916 3.9337 16.8183 5.06756 16.1734 5.92774C16.0835 6.04504 13.8985 8.23457 11.3148 10.7877C5.97938 16.0583 6.40934 15.6829 5.75268 15.6829C5.4517 15.6829 5.36962 15.6673 5.17809 15.5773C4.43543 15.2294 4.13446 14.3965 4.49797 13.6771C4.57224 13.5325 5.43607 12.6567 8.18391 9.93537C10.1578 7.98434 12.0262 6.13105 12.3389 5.82217L12.9057 5.26306L12.3975 4.75477C12.1161 4.47326 11.8698 4.2504 11.8464 4.25431C11.7604 4.27777 3.54424 12.4377 3.39571 12.6488C3.02047 13.1845 2.87194 13.6576 2.87194 14.3144C2.87194 14.6233 2.89539 14.8305 2.95402 15.0495C3.47779 17.0357 5.92075 17.8333 7.55069 16.5548C7.66014 16.4688 9.86466 14.3027 12.4522 11.7417C15.6105 8.61774 17.2365 6.9795 17.389 6.77227C17.686 6.37347 17.9362 5.85736 18.073 5.36081C18.1707 5.0011 18.1824 4.91508 18.1824 4.26604C18.1824 3.70301 18.1668 3.50361 18.1082 3.26902C17.7837 1.99048 16.9238 0.946545 15.7317 0.375702C15.1571 0.102009 14.7662 0.0159912 14.0001 0.00426292C13.6366 -0.00355721 13.2926 0.000352859 13.2379 0.00817299Z" fill="#0A2540"/>
</svg>
