<svg width="16" height="18" viewBox="0 0 16 18" fill="none" xmlns="http://www.w3.org/2000/svg">
<path d="M5.84395 16.0814C6.24337 16.5828 6.82992 16.9072 7.47378 16.983C8.11765 17.0587 8.76573 16.8796 9.27461 16.4851C9.43112 16.3684 9.57195 16.2328 9.69374 16.0814M1.00066 10.4297V10.2545C1.02636 9.7362 1.19248 9.23399 1.48188 8.79968C1.9636 8.27797 2.29336 7.63864 2.43657 6.94878C2.43657 6.4156 2.43657 5.8748 2.48314 5.34162C2.72375 2.77473 5.26182 1 7.76884 1H7.83094C10.338 1 12.876 2.77473 13.1244 5.34162C13.171 5.8748 13.1244 6.4156 13.1632 6.94878C13.3083 7.64024 13.6378 8.28156 14.1179 8.8073C14.4095 9.23776 14.5758 9.73813 14.5991 10.2545V10.4221C14.6164 11.1184 14.3766 11.7975 13.9239 12.3339C13.3256 12.9612 12.5137 13.3514 11.6419 13.4307C9.08559 13.705 6.50643 13.705 3.9501 13.4307C3.07931 13.348 2.26861 12.9583 1.66816 12.3339C1.2224 11.797 0.985793 11.1221 1.00066 10.4297Z" stroke="#111111" stroke-width="1.2" stroke-linecap="round" stroke-linejoin="round"/>
</svg>
