<svg width="30" height="30" viewBox="0 0 30 30" fill="none" xmlns="http://www.w3.org/2000/svg">
<path d="M21.7681 7.14824H8.23204V23.566L13.8236 18.1991L15.0001 17.0755L16.1765 18.1991L21.7681 23.566V7.14824ZM21.9267 5.45624C22.1294 5.45624 22.3233 5.49589 22.5083 5.57521C22.7991 5.68977 23.0305 5.87043 23.2023 6.11718C23.3741 6.36393 23.4601 6.63711 23.4601 6.93674V23.9757C23.4601 24.2754 23.3741 24.5485 23.2023 24.7953C23.0305 25.042 22.7991 25.2227 22.5083 25.3373C22.3409 25.4078 22.147 25.443 21.9267 25.443C21.5037 25.443 21.138 25.302 20.8295 25.02L15.0001 19.4153L9.17057 25.02C8.85332 25.3108 8.4876 25.4562 8.07342 25.4562C7.87073 25.4562 7.67685 25.4166 7.49179 25.3373C7.20098 25.2227 6.96965 25.042 6.79781 24.7953C6.62596 24.5485 6.54004 24.2754 6.54004 23.9757V6.93674C6.54004 6.63711 6.62596 6.36393 6.79781 6.11718C6.96965 5.87043 7.20098 5.68977 7.49179 5.57521C7.67685 5.49589 7.87073 5.45624 8.07342 5.45624H21.9267Z" fill="#635BFF"/>
</svg>
