<svg width="24" height="24" viewBox="0 0 24 24" fill="none" xmlns="http://www.w3.org/2000/svg">
<rect width="24" height="24" fill="white"/>
<path d="M19.4006 3.3584H4.60114C4.09154 3.3584 3.60281 3.56083 3.24247 3.92116C2.88213 4.28149 2.67969 4.7702 2.67969 5.27978V20.0787C2.67969 20.5883 2.88213 21.077 3.24247 21.4373C3.60281 21.7977 4.09154 22.0001 4.60114 22.0001H19.4006C19.9102 22.0001 20.3989 21.7977 20.7592 21.4373C21.1196 21.077 21.322 20.5883 21.322 20.0787V5.27978C21.322 4.7702 21.1196 4.28149 20.7592 3.92116C20.3989 3.56083 19.9102 3.3584 19.4006 3.3584ZM20.041 20.0745C20.041 20.2443 19.9736 20.4072 19.8534 20.5273C19.7333 20.6474 19.5704 20.7149 19.4006 20.7149H4.60114C4.43127 20.7149 4.26836 20.6474 4.14825 20.5273C4.02813 20.4072 3.96065 20.2443 3.96065 20.0745V5.27978C3.96065 5.10992 4.02813 4.94702 4.14825 4.82691C4.26836 4.7068 4.43127 4.63932 4.60114 4.63932H19.4006C19.5704 4.63932 19.7333 4.7068 19.8534 4.82691C19.9736 4.94702 20.041 5.10992 20.041 5.27978V20.0745Z" fill="#635BFF"/>
<path d="M17.1674 2.64046V5.35602C17.1674 5.52588 17.0999 5.68878 16.9798 5.80889C16.8597 5.929 16.6968 5.99648 16.5269 5.99648C16.3571 5.99648 16.1941 5.929 16.074 5.80889C15.9539 5.68878 15.8864 5.52588 15.8864 5.35602V2.64046C15.8864 2.4706 15.9539 2.3077 16.074 2.18759C16.1941 2.06748 16.3571 2 16.5269 2C16.6968 2 16.8597 2.06748 16.9798 2.18759C17.0999 2.3077 17.1674 2.4706 17.1674 2.64046ZM8.11525 2.64046V5.35602C8.11525 5.52588 8.04777 5.68878 7.92766 5.80889C7.80754 5.929 7.64463 5.99648 7.47477 5.99648C7.3049 5.99648 7.14199 5.929 7.02188 5.80889C6.90176 5.68878 6.83428 5.52588 6.83428 5.35602V2.64046C6.83428 2.4706 6.90176 2.3077 7.02188 2.18759C7.14199 2.06748 7.3049 2 7.47477 2C7.64463 2 7.80754 2.06748 7.92766 2.18759C8.04777 2.3077 8.11525 2.4706 8.11525 2.64046ZM21.322 8.15697C21.322 8.32683 21.2545 8.48974 21.1344 8.60985C21.0143 8.72996 20.8514 8.79743 20.6815 8.79743H3.32017C3.1503 8.79743 2.98739 8.72996 2.86728 8.60985C2.74717 8.48974 2.67969 8.32683 2.67969 8.15697C2.67969 7.98711 2.74717 7.82421 2.86728 7.7041C2.98739 7.58399 3.1503 7.51651 3.32017 7.51651H20.6815C20.8514 7.51651 21.0143 7.58399 21.1344 7.7041C21.2545 7.82421 21.322 7.98711 21.322 8.15697ZM8.37144 12.4267C8.37144 12.5534 8.33388 12.6772 8.2635 12.7825C8.19312 12.8879 8.09309 12.97 7.97606 13.0184C7.85903 13.0669 7.73025 13.0796 7.60601 13.0549C7.48177 13.0302 7.36764 12.9692 7.27807 12.8796C7.1885 12.79 7.1275 12.6759 7.10278 12.5517C7.07807 12.4274 7.09075 12.2987 7.13923 12.1816C7.18771 12.0646 7.2698 11.9646 7.37513 11.8942C7.48045 11.8238 7.60428 11.7863 7.73096 11.7863C7.90083 11.7863 8.06374 11.8537 8.18385 11.9738C8.30396 12.094 8.37144 12.2569 8.37144 12.4267ZM12.6413 12.4267C12.6413 12.5534 12.6038 12.6772 12.5334 12.7825C12.463 12.8879 12.363 12.97 12.2459 13.0184C12.1289 13.0669 12.0001 13.0796 11.8759 13.0549C11.7516 13.0302 11.6375 12.9692 11.548 12.8796C11.4584 12.79 11.3974 12.6759 11.3727 12.5517C11.348 12.4274 11.3606 12.2987 11.4091 12.1816C11.4576 12.0646 11.5397 11.9646 11.645 11.8942C11.7503 11.8238 11.8742 11.7863 12.0008 11.7863C12.1707 11.7863 12.3336 11.8537 12.4537 11.9738C12.5738 12.094 12.6413 12.2569 12.6413 12.4267ZM15.6302 12.4267C15.6302 12.3 15.6678 12.1762 15.7382 12.0709C15.8086 11.9656 15.9086 11.8835 16.0256 11.835C16.1427 11.7865 16.2714 11.7738 16.3957 11.7986C16.5199 11.8233 16.634 11.8843 16.7236 11.9738C16.8132 12.0634 16.8742 12.1775 16.8989 12.3018C16.9236 12.426 16.9109 12.5548 16.8625 12.6718C16.814 12.7888 16.7319 12.8889 16.6266 12.9592C16.5212 13.0296 16.3974 13.0672 16.2707 13.0672C16.1009 13.0672 15.938 12.9997 15.8178 12.8796C15.6977 12.7595 15.6302 12.5966 15.6302 12.4267ZM8.37144 16.6965C8.37144 16.8231 8.33388 16.947 8.2635 17.0523C8.19312 17.1576 8.09309 17.2397 7.97606 17.2882C7.85903 17.3366 7.73025 17.3493 7.60601 17.3246C7.48177 17.2999 7.36764 17.2389 7.27807 17.1493C7.1885 17.0598 7.1275 16.9456 7.10278 16.8214C7.07807 16.6972 7.09075 16.5684 7.13923 16.4514C7.18771 16.3343 7.2698 16.2343 7.37513 16.1639C7.48045 16.0936 7.60428 16.056 7.73096 16.056C7.90083 16.056 8.06374 16.1235 8.18385 16.2436C8.30396 16.3637 8.37144 16.5266 8.37144 16.6965ZM12.6413 16.6965C12.6413 16.8231 12.6038 16.947 12.5334 17.0523C12.463 17.1576 12.363 17.2397 12.2459 17.2882C12.1289 17.3366 12.0001 17.3493 11.8759 17.3246C11.7516 17.2999 11.6375 17.2389 11.548 17.1493C11.4584 17.0598 11.3974 16.9456 11.3727 16.8214C11.348 16.6972 11.3606 16.5684 11.4091 16.4514C11.4576 16.3343 11.5397 16.2343 11.645 16.1639C11.7503 16.0936 11.8742 16.056 12.0008 16.056C12.1707 16.056 12.3336 16.1235 12.4537 16.2436C12.5738 16.3637 12.6413 16.5266 12.6413 16.6965ZM16.9112 16.6965C16.9112 16.8231 16.8736 16.947 16.8033 17.0523C16.7329 17.1576 16.6329 17.2397 16.5158 17.2882C16.3988 17.3366 16.27 17.3493 16.1458 17.3246C16.0215 17.2999 15.9074 17.2389 15.8178 17.1493C15.7283 17.0598 15.6673 16.9456 15.6426 16.8214C15.6178 16.6972 15.6305 16.5684 15.679 16.4514C15.7275 16.3343 15.8096 16.2343 15.9149 16.1639C16.0202 16.0936 16.1441 16.056 16.2707 16.056C16.4406 16.056 16.6035 16.1235 16.7236 16.2436C16.8437 16.3637 16.9112 16.5266 16.9112 16.6965Z" fill="#635BFF"/>
</svg>
