<svg width="24" height="24" viewBox="0 0 24 24" fill="none" xmlns="http://www.w3.org/2000/svg">
<rect width="24" height="24" fill="white"/>
<path d="M21.3774 21.9252C21.7212 21.9252 22 21.6465 22 21.3025V2.6227C22 2.27877 21.7212 2 21.3774 2H10.0199C9.67603 2 9.39717 2.27877 9.39717 2.6227V4.86423H2.62264C2.27886 4.86423 2 5.14285 2 5.48693V21.3025C2 21.6464 2.27886 21.9252 2.62264 21.9252H21.3774V21.9252ZM8.10215 9.78748V20.6798H3.24534V6.10966H9.3475V9.16492H8.7248C8.38092 9.16492 8.10215 9.44369 8.10215 9.78748ZM15.9432 20.6798H9.3475V10.4102H15.9432V20.6798ZM20.7547 20.6798H17.1885V9.78748C17.1885 9.44369 16.9098 9.16492 16.5658 9.16492H10.6425V3.24528H20.7546L20.7547 20.6798Z" fill="#635BFF"/>
<path d="M6.48238 7.60397H4.48989C4.14604 7.60397 3.86719 7.88274 3.86719 8.22667C3.86719 8.57046 4.14604 8.84922 4.48989 8.84922H6.48238C6.82623 8.84922 7.10502 8.57046 7.10502 8.22667C7.10502 7.88274 6.82626 7.60397 6.48238 7.60397ZM12.4599 5.86049H14.4524C14.7964 5.86049 15.0751 5.58187 15.0751 5.23779C15.0751 4.894 14.7964 4.61523 14.4524 4.61523H12.4599C12.1162 4.61523 11.8373 4.894 11.8373 5.23779C11.8373 5.58187 12.1162 5.86049 12.4599 5.86049ZM12.4599 7.85313H14.4524C14.7964 7.85313 15.0751 7.57436 15.0751 7.23043C15.0751 6.88649 14.7964 6.60772 14.4524 6.60772H12.4599C12.1162 6.60772 11.8373 6.88649 11.8373 7.23043C11.8373 7.57436 12.1162 7.85313 12.4599 7.85313ZM16.9431 5.86049H18.9356C19.2795 5.86049 19.5582 5.58187 19.5582 5.23779C19.5582 4.894 19.2795 4.61523 18.9356 4.61523H16.9431C16.5993 4.61523 16.3204 4.894 16.3204 5.23779C16.3204 5.58187 16.5993 5.86049 16.9431 5.86049ZM16.9431 7.85313H18.9356C19.2795 7.85313 19.5582 7.57436 19.5582 7.23043C19.5582 6.88649 19.2795 6.60772 18.9356 6.60772H16.9431C16.5993 6.60772 16.3204 6.88649 16.3204 7.23043C16.3204 7.57436 16.5993 7.85313 16.9431 7.85313ZM11.6482 13.3324H13.6407C13.9846 13.3324 14.2634 13.0538 14.2634 12.7097C14.2634 12.3659 13.9846 12.0871 13.6407 12.0871H11.6482C11.3044 12.0871 11.0255 12.3659 11.0255 12.7097C11.0255 13.0538 11.3044 13.3324 11.6482 13.3324ZM11.6482 15.325H13.6407C13.9846 15.325 14.2634 15.0463 14.2634 14.7023C14.2634 14.3584 13.9846 14.0798 13.6407 14.0798H11.6482C11.3044 14.0798 11.0255 14.3584 11.0255 14.7023C11.0255 15.0463 11.3044 15.325 11.6482 15.325ZM11.6482 17.3175H13.6407C13.9846 17.3175 14.2634 17.0388 14.2634 16.6948C14.2634 16.3509 13.9846 16.0723 13.6407 16.0723H11.6482C11.3044 16.0723 11.0255 16.3509 11.0255 16.6948C11.0255 17.0388 11.3044 17.3175 11.6482 17.3175ZM6.48238 10.1776H4.48989C4.14604 10.1776 3.86719 10.4564 3.86719 10.8002C3.86719 11.1443 4.14604 11.4229 4.48989 11.4229H6.48238C6.82623 11.4229 7.10502 11.1443 7.10502 10.8002C7.10502 10.4564 6.82626 10.1776 6.48238 10.1776ZM6.48238 12.7512H4.48989C4.14604 12.7512 3.86719 13.0301 3.86719 13.3739C3.86719 13.718 4.14604 13.9966 4.48989 13.9966H6.48238C6.82623 13.9966 7.10502 13.718 7.10502 13.3739C7.10502 13.0301 6.82626 12.7512 6.48238 12.7512ZM6.48238 15.325H4.48989C4.14604 15.325 3.86719 15.6037 3.86719 15.9477C3.86719 16.2915 4.14604 16.5704 4.48989 16.5704H6.48238C6.82623 16.5704 7.10502 16.2915 7.10502 15.9477C7.10502 15.6037 6.82626 15.325 6.48238 15.325Z" fill="#635BFF"/>
</svg>
