<svg width="19" height="22" viewBox="0 0 19 22" fill="none" xmlns="http://www.w3.org/2000/svg">
<path d="M17.5 3.66671V21H3.5C2.96957 21 2.46086 20.7893 2.08579 20.4143C1.71071 20.0392 1.5 19.5305 1.5 19V2.33337" stroke="#635BFF" stroke-width="1.5" stroke-miterlimit="10" stroke-linecap="round" stroke-linejoin="round"/>
<path d="M14.8333 3.66667V1H2.83333C2.47971 1 2.14057 1.14048 1.89052 1.39052C1.64048 1.64057 1.5 1.97971 1.5 2.33333C1.5 2.68696 1.64048 3.02609 1.89052 3.27614C2.14057 3.52619 2.47971 3.66667 2.83333 3.66667H17.5" stroke="#635BFF" stroke-width="1.5" stroke-miterlimit="10" stroke-linecap="round" stroke-linejoin="round"/>
<path d="M9.49902 10.3333C10.6036 10.3333 11.499 9.43791 11.499 8.33334C11.499 7.22877 10.6036 6.33334 9.49902 6.33334C8.39445 6.33334 7.49902 7.22877 7.49902 8.33334C7.49902 9.43791 8.39445 10.3333 9.49902 10.3333Z" stroke="#635BFF" stroke-width="1.5" stroke-miterlimit="10" stroke-linecap="round" stroke-linejoin="round"/>
<path d="M13.501 17H5.50098V15.6667C5.50098 14.9595 5.78193 14.2812 6.28203 13.7811C6.78212 13.281 7.4604 13 8.16764 13H10.8343C11.5416 13 12.2198 13.281 12.7199 13.7811C13.22 14.2812 13.501 14.9595 13.501 15.6667V17Z" stroke="#635BFF" stroke-width="1.5" stroke-miterlimit="10" stroke-linecap="round" stroke-linejoin="round"/>
</svg>
