<svg width="24" height="24" viewBox="0 0 24 24" fill="none" xmlns="http://www.w3.org/2000/svg">
<rect width="24" height="24" fill="white"/>
<path d="M17.4233 22.4969C16.6016 22.4972 15.794 22.2828 15.0806 21.8749L14.98 21.8182C10.3419 19.1651 6.4615 15.3669 3.70965 10.7866L3.18506 9.91231C2.64777 9.01845 2.42512 7.97047 2.55261 6.93537C2.6801 5.90028 3.15038 4.93765 3.88851 4.20088L4.9337 3.15568C5.81202 2.27737 7.24047 2.27737 8.11799 3.15568L10.4208 5.45846C10.7673 5.80666 10.991 6.25831 11.0578 6.74501C11.1247 7.23171 11.0311 7.72694 10.7913 8.15568L9.92571 9.69273C9.90752 9.72507 9.90041 9.76247 9.90545 9.79923C9.9105 9.83599 9.92743 9.87009 9.95366 9.89634L15.0806 15.0233C15.1073 15.0494 15.1417 15.0662 15.1787 15.0711C15.2157 15.076 15.2533 15.0687 15.2858 15.0504L16.8205 14.1857L16.8213 14.1849C17.2501 13.9453 17.7453 13.8519 18.2319 13.9187C18.7185 13.9856 19.1702 14.2091 19.5185 14.5554L21.8221 16.8598C22.7004 17.7381 22.7004 19.1665 21.8221 20.044L20.7306 21.1348C20.2959 21.568 19.78 21.9113 19.2125 22.1451C18.6451 22.3788 18.0371 22.4984 17.4233 22.4969ZM6.52584 4.09388C6.35817 4.09388 6.19049 4.15776 6.06273 4.28551L5.01754 5.32991C4.53173 5.81485 4.2222 6.44843 4.13827 7.1297C4.05434 7.81098 4.20084 8.50074 4.55443 9.08909L5.07902 9.96341C7.68933 14.3085 11.3701 17.9117 15.7697 20.4289L15.8703 20.4856C17.0888 21.1827 18.6218 20.9854 19.6007 20.0049L20.6922 18.9142C20.7531 18.8534 20.8013 18.7812 20.8343 18.7018C20.8672 18.6223 20.8841 18.5371 20.8841 18.4511C20.8841 18.3651 20.8672 18.2799 20.8343 18.2005C20.8013 18.121 20.7531 18.0488 20.6922 17.988L18.3887 15.6836C18.2873 15.5828 18.1558 15.5179 18.0141 15.4986C17.8725 15.4793 17.7284 15.5067 17.6038 15.5766L16.0691 16.4414C15.7326 16.6298 15.3439 16.7034 14.9618 16.6511C14.5797 16.5988 14.2251 16.4234 13.9516 16.1515L8.82463 11.0246C8.55246 10.7514 8.37688 10.3969 8.32457 10.0148C8.27226 9.63279 8.34607 9.24411 8.53479 8.90784L9.40032 7.37159C9.46986 7.24689 9.49696 7.10296 9.47751 6.96152C9.45807 6.82007 9.39314 6.68879 9.29253 6.58749L6.98896 4.28551C6.92818 4.22465 6.85599 4.17639 6.77651 4.14351C6.69704 4.11062 6.61185 4.09376 6.52584 4.09388Z" fill="#635BFF"/>
</svg>
