<svg width="48" height="48" viewBox="0 0 48 48" fill="none" xmlns="http://www.w3.org/2000/svg">
<circle cx="24" cy="24" r="24" fill="#F6F9FC"/>
<path d="M21.4579 14.0587C20.5075 14.3207 20.0187 15.1381 20.2885 16.0219C20.4254 16.4677 20.5193 16.585 22.459 18.7712L23.378 19.8075L23.2255 19.8349C23.0143 19.874 22.8931 19.964 22.7993 20.1556C22.7015 20.359 22.7015 20.4645 22.7953 20.6718C22.8775 20.8556 22.9909 20.9456 23.1982 21.0042L23.3468 21.0433L22.9244 21.5205C22.459 22.0484 21.669 22.9948 21.2741 23.4915C21.0746 23.7457 21.0159 23.8004 20.9964 23.7457C20.9807 23.7105 20.9143 23.6245 20.8439 23.5619L20.7226 23.4446H17.5158H14.309L14.1525 23.6088L14 23.7731V28.7085C14 33.5539 14 33.6439 14.0782 33.769C14.1212 33.8355 14.2112 33.9215 14.2816 33.9606C14.4028 34.0232 14.9151 34.0271 22.5255 34.0154L30.6404 34.0037L30.9415 33.9176C31.6689 33.7104 32.3103 33.3427 32.8148 32.8382C33.3232 32.3338 33.6673 31.7589 33.8941 31.0276C33.9919 30.703 33.9997 30.6326 33.9997 29.956C34.0036 29.1504 33.9684 28.9627 33.6869 28.2783C33.1472 26.9682 31.532 24.6765 29.3263 22.0992C28.9509 21.6612 28.595 21.2428 28.5364 21.1724L28.4269 21.0433L28.5794 21.0042C28.8336 20.9338 29.0174 20.6875 29.0174 20.4059C29.0174 20.1126 28.814 19.8779 28.5168 19.831L28.376 19.8075L29.1777 18.9081C30.48 17.4454 31.0901 16.7376 31.2309 16.5264C31.446 16.2018 31.5359 15.9085 31.5359 15.5252C31.5359 15.1224 31.4303 14.8526 31.1527 14.5554C30.8007 14.1799 30.3158 14 29.6588 14C29.0643 14 28.4934 14.1682 27.9693 14.4967C27.8559 14.5671 27.7542 14.6257 27.7425 14.6257C27.7307 14.6257 27.6525 14.5749 27.5743 14.5123C27.2067 14.2229 26.667 14.0391 26.0765 14.0118C25.3491 13.9726 24.7781 14.1134 24.2775 14.4537L24.0155 14.6297L23.7535 14.4732C23.4328 14.2816 22.9792 14.1017 22.6663 14.043C22.3534 13.9844 21.6925 13.9961 21.4579 14.0587ZM22.5685 15.2749C22.8853 15.3688 23.2568 15.5761 23.5423 15.8224C23.9412 16.1666 24.1211 16.2174 24.43 16.0688C24.5591 16.0063 24.6256 15.9398 24.696 15.799C24.9033 15.3923 25.3452 15.1928 25.9787 15.2202C26.2642 15.2319 26.3854 15.2593 26.5732 15.3414C26.8626 15.4783 26.929 15.537 27.0464 15.7677C27.1598 15.9945 27.2967 16.1001 27.5078 16.1314C27.7307 16.1666 27.8872 16.0962 28.2274 15.8107C28.7006 15.4118 29.1895 15.2124 29.6822 15.2124C29.9834 15.2124 30.2493 15.318 30.3119 15.4627C30.4057 15.6699 30.3119 15.7872 27.6877 18.7438L26.7296 19.8271H25.8849H25.0362L23.8278 18.4661C21.4696 15.8185 21.3836 15.7129 21.4461 15.4705C21.5048 15.2397 22.0953 15.1381 22.5685 15.2749ZM27.3397 21.673C29.9091 24.5591 31.9739 27.3553 32.5527 28.7319C32.7444 29.1817 32.8109 29.4984 32.8109 29.9365C32.8109 30.4214 32.7365 30.7342 32.5058 31.2075C32.3533 31.5242 32.2712 31.6337 31.9505 31.9544C31.6259 32.2829 31.5281 32.3533 31.2074 32.5097C30.5074 32.8422 30.7655 32.8226 26.8899 32.8422L23.4563 32.8539L23.5345 32.7444C23.9099 32.2125 24.1055 31.3834 24.0116 30.7108C23.82 29.2951 22.7406 28.2665 21.321 28.1336L21.0394 28.1062V26.9525V25.7988L21.321 25.4234C22.0484 24.4496 23.3116 22.9205 24.5083 21.5674L24.9697 21.0472L25.8731 21.0433L26.7765 21.0394L27.3397 21.673ZM19.8271 25.2044V25.7715H17.5001H15.1732V25.2044V24.6373H17.5001H19.8271V25.2044ZM19.8271 27.5509V28.1179H17.5001H15.1732V27.5509V26.9838H17.5001H19.8271V27.5509ZM18.6538 29.3459C18.6538 29.3537 18.5873 29.475 18.5052 29.6119C18.4231 29.7526 18.3175 30.0029 18.2628 30.1672L18.1689 30.4644H16.6711H15.1732V29.8973V29.3303H16.9135C17.8717 29.3303 18.6538 29.3381 18.6538 29.3459ZM21.4891 29.3889C22.1774 29.5688 22.6858 30.1242 22.8032 30.8281C22.9244 31.5438 22.5138 32.3064 21.8255 32.6466C21.54 32.7874 21.5243 32.7913 21.0824 32.7913C20.6561 32.7913 20.6131 32.7835 20.3667 32.6662C19.2483 32.1382 18.9862 30.7225 19.8466 29.8582C20.2924 29.4163 20.9064 29.2403 21.4891 29.3889ZM18.2197 31.8488C18.2706 32.0678 18.4818 32.5489 18.6186 32.7366L18.6968 32.85H16.937H15.1732V32.2438V31.6376H16.6711H18.1728L18.2197 31.8488Z" fill="#635BFF"/>
<path d="M25.5328 23.5188C25.3998 23.6088 25.2629 23.8512 25.2629 23.992C25.2629 24.0233 25.2317 24.0507 25.1925 24.0507C25.0713 24.0507 24.7389 24.2384 24.5668 24.4027C23.9606 24.9893 23.9489 25.9435 24.5434 26.5419C24.8562 26.8547 25.2629 26.9799 25.9591 26.9838C26.225 26.9838 26.2915 26.9955 26.358 27.062C26.4557 27.1598 26.4596 27.3005 26.3619 27.4179C26.2876 27.5117 26.2758 27.5117 25.3724 27.5313C24.3361 27.5547 24.297 27.5626 24.164 27.8559C24.0702 28.071 24.0702 28.1805 24.1797 28.3916C24.3048 28.6419 24.4495 28.7123 24.8875 28.7358L25.2473 28.7554L25.3412 28.9548C25.4624 29.2012 25.6188 29.299 25.8926 29.299C26.1781 29.299 26.4127 29.1073 26.4714 28.8218C26.4909 28.7162 26.5222 28.6889 26.6669 28.638C27.0423 28.5129 27.3474 28.2313 27.5273 27.8481C27.6172 27.6564 27.629 27.5782 27.629 27.238C27.629 26.8743 27.6211 26.8273 27.5038 26.5888C27.3513 26.2798 27.1049 26.0413 26.796 25.8966C26.6004 25.8027 26.5105 25.791 26.0334 25.7714C25.4976 25.7519 25.4898 25.7519 25.3959 25.6424C25.2825 25.5094 25.2786 25.4586 25.3803 25.3295L25.4585 25.2317L26.354 25.2161C27.191 25.2044 27.2574 25.2005 27.363 25.1222C27.7424 24.8407 27.7463 24.3205 27.3669 24.0898C27.2613 24.0272 27.1675 24.0116 26.8585 24.0116C26.487 24.0116 26.4753 24.0077 26.4753 23.9216C26.4753 23.7965 26.3384 23.5931 26.1937 23.5032C26.006 23.3898 25.7127 23.3976 25.5328 23.5188Z" fill="#635BFF"/>
</svg>
