<svg width="161" height="135" viewBox="0 0 161 135" fill="none" xmlns="http://www.w3.org/2000/svg">
<g clip-path="url(#clip0_592_2135)">
<path d="M59.7581 0.470428C52.1434 2.56996 48.2264 9.11922 50.3886 16.2012C51.4853 19.7735 52.2374 20.7136 67.7801 38.2305L75.1441 46.5346L73.922 46.754C72.2299 47.0673 71.2585 47.7881 70.5064 49.3235C69.723 50.953 69.723 51.7991 70.4751 53.4599C71.1331 54.9327 72.0419 55.6534 73.7027 56.1235L74.8935 56.4368L71.5091 60.2599C67.7801 64.4902 61.4502 72.0736 58.2853 76.0533C56.6871 78.0901 56.2171 78.5288 56.0604 78.0901C55.9351 77.8081 55.4024 77.1187 54.8383 76.6173L53.8669 75.6773H28.1712H2.47556L1.22211 76.9934L0 78.3095V117.856C0 156.681 0 157.402 0.626723 158.405C0.971421 158.937 1.69215 159.627 2.2562 159.94C3.22763 160.442 7.33266 160.473 68.3129 160.379L133.335 160.285L135.748 159.596C141.577 157.935 146.716 154.989 150.758 150.947C154.832 146.904 157.59 142.298 159.407 136.438C160.191 133.837 160.253 133.273 160.253 127.852C160.285 121.397 160.003 119.893 157.746 114.409C153.422 103.911 140.48 85.5481 122.806 64.8976C119.798 61.388 116.947 58.035 116.477 57.4709L115.599 56.4368L116.821 56.1235C118.858 55.5594 120.331 53.5853 120.331 51.329C120.331 48.9788 118.701 47.0987 116.32 46.7226L115.192 46.5346L121.616 39.3273C132.051 27.6076 136.939 21.9357 138.067 20.2436C139.791 17.6427 140.511 15.2924 140.511 12.2215C140.511 8.99387 139.665 6.83168 137.44 4.45012C134.62 1.44185 130.735 0.00038147 125.47 0.00038147C120.707 0.00038147 116.132 1.34784 111.933 3.98009C111.024 4.54413 110.209 5.01418 110.115 5.01418C110.021 5.01418 109.395 4.60681 108.768 4.10542C105.822 1.78654 101.498 0.313751 96.7661 0.0943909C90.9376 -0.218964 86.3625 0.909134 82.3515 3.63539L80.2519 5.04552L78.1524 3.79207C75.5828 2.25659 71.9479 0.815125 69.441 0.345093C66.9341 -0.124954 61.6383 -0.0309448 59.7581 0.470428ZM68.6576 10.216C71.1958 10.968 74.1727 12.6289 76.4603 14.603C79.6566 17.3606 81.098 17.768 83.5736 16.5772C84.6077 16.0759 85.1404 15.5431 85.7044 14.415C87.3652 11.1561 90.9062 9.55792 95.9827 9.77728C98.2702 9.87129 99.2417 10.0906 100.746 10.7487C103.065 11.8455 103.597 12.3155 104.537 14.1643C105.446 15.9818 106.543 16.8279 108.235 17.0786C110.021 17.3606 111.275 16.7966 114.001 14.509C117.793 11.3127 121.71 9.7146 125.658 9.7146C128.071 9.7146 130.202 10.5607 130.703 11.7201C131.455 13.3809 130.703 14.321 109.677 38.0112L101.999 46.6913H95.2306H88.4307L78.7478 35.7863C59.8521 14.5717 59.1627 13.7256 59.6641 11.7828C60.1341 9.93396 64.8659 9.11922 68.6576 10.216ZM106.888 61.482C127.476 84.6081 144.021 107.013 148.659 118.044C150.194 121.647 150.727 124.186 150.727 127.695C150.727 131.581 150.132 134.088 148.283 137.88C147.061 140.418 146.403 141.295 143.833 143.865C141.232 146.497 140.449 147.061 137.879 148.315C132.27 150.978 134.338 150.821 103.284 150.978L75.7709 151.072L76.3976 150.195C79.4059 145.933 80.9727 139.29 80.2206 133.9C78.6851 122.556 70.0363 114.315 58.6613 113.249L56.4051 113.03V103.786V94.5416L58.6613 91.5334C64.4898 83.7307 74.6114 71.4782 84.2003 60.6359L87.898 56.4682L95.1366 56.4368L102.375 56.4055L106.888 61.482ZM46.6909 89.7785V94.3223H28.0459H9.40085V89.7785V85.2348H28.0459H46.6909V89.7785ZM46.6909 108.58V113.124H28.0459H9.40085V108.58V104.036H28.0459H46.6909V108.58ZM37.29 122.964C37.29 123.026 36.7573 123.998 36.0993 125.094C35.4412 126.223 34.5951 128.228 34.1564 129.544L33.4044 131.926H21.4026H9.40085V127.382V122.838H23.3454C31.0228 122.838 37.29 122.901 37.29 122.964ZM60.0088 123.308C65.5239 124.75 69.5976 129.199 70.5377 134.84C71.5091 140.574 68.2188 146.685 62.7037 149.411C60.4161 150.539 60.2908 150.571 56.7498 150.571C53.3342 150.571 52.9895 150.508 51.0153 149.568C42.0531 145.338 39.9536 133.994 46.8476 127.069C50.4199 123.528 55.3397 122.117 60.0088 123.308ZM33.8117 143.019C34.2191 144.774 35.9113 148.628 37.008 150.132L37.6347 151.041H23.5335H9.40085V146.184V141.327H21.4026H33.4357L33.8117 143.019Z" fill="#F1F6FA"/>
<path d="M92.4105 76.272C91.3451 76.9928 90.2483 78.9356 90.2483 80.0637C90.2483 80.3144 89.9976 80.5338 89.6843 80.5338C88.7128 80.5338 86.0493 82.0379 84.6705 83.354C79.8134 88.0544 79.7194 95.7005 84.4825 100.495C86.9893 103.002 90.2483 104.005 95.8261 104.036C97.957 104.036 98.4897 104.13 99.0224 104.663C99.8058 105.446 99.8372 106.574 99.0538 107.514C98.4584 108.266 98.3644 108.266 91.1257 108.423C82.8216 108.611 82.5083 108.674 81.4428 111.024C80.6908 112.747 80.6908 113.625 81.5682 115.317C82.5709 117.322 83.7304 117.886 87.24 118.075L90.123 118.231L90.875 119.829C91.8465 121.804 93.0999 122.587 95.2934 122.587C97.581 122.587 99.4611 121.051 99.9312 118.764C100.088 117.918 100.339 117.698 101.498 117.291C104.506 116.288 106.95 114.032 108.392 110.961C109.113 109.426 109.207 108.799 109.207 106.073C109.207 103.158 109.144 102.782 108.204 100.871C106.982 98.3954 105.008 96.4839 102.532 95.3244C100.965 94.5724 100.245 94.4784 96.4215 94.3217C92.1285 94.165 92.0658 94.165 91.3137 93.2876C90.405 92.2222 90.3737 91.8148 91.1884 90.7807L91.8151 89.9973L98.9911 89.8719C105.697 89.7779 106.23 89.7466 107.076 89.1199C110.115 86.8637 110.147 82.696 107.107 80.8471C106.261 80.3457 105.509 80.2204 103.033 80.2204C100.057 80.2204 99.9625 80.1891 99.9625 79.4997C99.9625 78.4969 98.8658 76.8674 97.7063 76.1467C96.2022 75.2379 93.852 75.3006 92.4105 76.272Z" fill="#F1F6FA"/>
</g>
<defs>
<clipPath id="clip0_592_2135">
<rect width="161" height="135" fill="white"/>
</clipPath>
</defs>
</svg>
