<svg width="48" height="48" viewBox="0 0 48 48" fill="none" xmlns="http://www.w3.org/2000/svg">
<circle cx="24" cy="24" r="24" fill="#F6F9FC"/>
<path d="M24.3018 24.3353C27.1558 24.3353 29.4695 22.0217 29.4695 19.1677C29.4695 16.3136 27.1558 14 24.3018 14C21.4478 14 19.1342 16.3136 19.1342 19.1677C19.1342 22.0217 21.4478 24.3353 24.3018 24.3353Z" stroke="#635BFF" stroke-width="1.51866" stroke-linecap="round" stroke-linejoin="round"/>
<path d="M21.2012 24.6982H27.4024C29.047 24.6982 30.6243 25.3516 31.7873 26.5145C32.9502 27.6774 33.6036 29.2547 33.6036 30.8994V34H15V30.8994C15 29.2547 15.6533 27.6774 16.8163 26.5145C17.9792 25.3516 19.5565 24.6982 21.2012 24.6982Z" stroke="#635BFF" stroke-width="1.51866" stroke-linecap="round" stroke-linejoin="round"/>
</svg>
