<svg width="147" height="146" viewBox="0 0 147 146" fill="none" xmlns="http://www.w3.org/2000/svg">
<g clip-path="url(#clip0_670_93)">
<path d="M73.5 81.0503C94.3496 81.0503 111.252 64.1483 111.252 43.2987C111.252 22.4491 94.3496 5.54715 73.5 5.54715C52.6504 5.54715 35.7484 22.4491 35.7484 43.2987C35.7484 64.1483 52.6504 81.0503 73.5 81.0503Z" stroke="#F1F6FA" stroke-width="11.0943" stroke-linecap="round" stroke-linejoin="round"/>
<path d="M50.8491 83.7013H96.1509C108.166 83.7013 119.688 88.4742 128.184 96.9699C136.68 105.466 141.453 116.988 141.453 129.003V151.654H5.54718V129.003C5.54718 116.988 10.32 105.466 18.8158 96.9699C27.3115 88.4742 38.8343 83.7013 50.8491 83.7013Z" stroke="#F1F6FA" stroke-width="11.0943" stroke-linecap="round" stroke-linejoin="round"/>
</g>
<defs>
<clipPath id="clip0_670_93">
<rect width="147" height="146" fill="white"/>
</clipPath>
</defs>
</svg>
