<svg width="30" height="30" viewBox="0 0 30 30" fill="none" xmlns="http://www.w3.org/2000/svg">
<path d="M6.33333 5.66943H12.5556C12.9525 5.66943 13.2639 5.99821 13.2639 6.37777V15.7111C13.2639 16.1215 12.9659 16.4194 12.5556 16.4194H6.33333C5.92296 16.4194 5.625 16.1215 5.625 15.7111V6.37777C5.625 5.99821 5.93642 5.66943 6.33333 5.66943ZM6.33333 19.4472H12.5556C12.9659 19.4472 13.2639 19.7452 13.2639 20.1555V23.2667C13.2639 23.677 12.9659 23.975 12.5556 23.975H6.33333C5.92296 23.975 5.625 23.677 5.625 23.2667V20.1555C5.625 19.7452 5.92296 19.4472 6.33333 19.4472ZM17 13.225H23.6667C24.0636 13.225 24.375 13.5538 24.375 13.9333V23.2222C24.375 23.6326 24.077 23.9305 23.6667 23.9305H17C16.5896 23.9305 16.2917 23.6326 16.2917 23.2222V13.9333C16.2917 13.5229 16.5896 13.225 17 13.225ZM17 5.66943H23.6667C24.0636 5.66943 24.375 5.99821 24.375 6.37777V9.53332C24.375 9.9437 24.077 10.2417 23.6667 10.2417H17C16.5896 10.2417 16.2917 9.9437 16.2917 9.53332V6.37777C16.2917 5.96739 16.5896 5.66943 17 5.66943Z" stroke="#635BFF" stroke-width="1.25"/>
</svg>
