<svg width="48" height="48" viewBox="0 0 48 48" fill="none" xmlns="http://www.w3.org/2000/svg">
<circle cx="24" cy="24" r="24" fill="#F6F9FC"/>
<path d="M23.4405 14.0767C21.4598 14.4751 19.9168 16.0456 19.573 18.0184C19.4988 18.4403 19.4988 19.3231 19.573 19.7451C19.7449 20.7334 20.2762 21.7296 20.9911 22.4054L21.2645 22.6632L21.0262 22.7101C19.4988 23.0109 17.9674 24.1243 17.0494 25.601C16.6275 26.2846 16.2915 27.1401 16.1079 28.0074C16.0219 28.4215 16.018 28.4996 16.0063 31.0115C15.9907 33.8789 15.9829 33.7539 16.2524 33.9219C16.3774 34 16.479 34 24.3976 34C32.3161 34 32.4177 34 32.5427 33.9219C32.8161 33.7539 32.8044 33.8789 32.7888 31.0115C32.7732 28.5035 32.7732 28.4215 32.6833 28.0074C32.57 27.4566 32.3356 26.7456 32.1208 26.2924C31.2691 24.4954 29.6909 23.1672 27.9134 22.7453L27.5423 22.6593L27.7728 22.4406C28.4408 21.8038 28.9057 21.0069 29.1518 20.0927C29.2885 19.5732 29.3237 18.5926 29.2221 18.034C28.9448 16.4909 27.9838 15.1939 26.6087 14.5103C26.1321 14.2759 25.8313 14.1704 25.3234 14.0728C24.8156 13.9751 23.9366 13.9751 23.4405 14.0767ZM25.214 15.2916C26.6282 15.6158 27.722 16.7487 28.0111 18.1746C28.1049 18.62 28.0736 19.4403 27.9564 19.8583C27.5384 21.3233 26.2258 22.4171 24.7335 22.546C22.8623 22.7101 21.1668 21.4483 20.7879 19.6161C20.7059 19.2294 20.7059 18.534 20.7879 18.1473C21.202 16.1315 23.2178 14.8306 25.214 15.2916ZM22.6396 24.5579V25.3509L22.249 27.3003C22.0341 28.3746 21.8583 29.3395 21.8583 29.4489C21.8583 29.57 21.8857 29.6833 21.9286 29.7497C21.995 29.8513 23.9796 31.5389 24.1241 31.617C24.2179 31.6678 24.5773 31.6678 24.671 31.617C24.8156 31.5389 26.8001 29.8513 26.8665 29.7497C26.9095 29.6833 26.9368 29.57 26.9368 29.4489C26.9368 29.3395 26.761 28.3746 26.5461 27.3003L26.1555 25.3509V24.554V23.7571L26.5774 23.7844C27.9759 23.8704 28.9643 24.304 29.9058 25.2494C30.7027 26.0424 31.2145 26.9995 31.4645 28.1558C31.5856 28.7106 31.6246 29.4489 31.6246 31.2342V32.828H24.3936H17.1627L17.1822 30.8435C17.1978 29.2965 17.2134 28.7809 17.2642 28.4918C17.4791 27.1948 18.0143 26.1205 18.8893 25.2494C19.4675 24.6673 20.0379 24.304 20.7645 24.0462C21.2684 23.8704 21.745 23.7922 22.456 23.7688L22.6396 23.7649V24.5579ZM24.9835 24.3509V24.9368H24.3976H23.8116V24.3509V23.7649H24.3976H24.9835V24.3509ZM25.0773 26.1752C25.089 26.2143 25.2218 26.8784 25.3742 27.6519C25.5265 28.4254 25.6594 29.0856 25.6711 29.1207C25.6828 29.1676 25.5031 29.3434 25.0578 29.7184C24.7062 30.0114 24.4132 30.2497 24.3976 30.2497C24.3819 30.2497 24.0889 30.0114 23.7373 29.7184C23.292 29.3434 23.1123 29.1676 23.124 29.1207C23.1357 29.0856 23.2686 28.4254 23.4209 27.6519C23.5733 26.8784 23.7061 26.2143 23.7178 26.1752C23.7373 26.1166 23.8038 26.1088 24.3976 26.1088C24.9913 26.1088 25.0578 26.1166 25.0773 26.1752Z" fill="#635BFF"/>
</svg>
