<svg width="147" height="149" viewBox="0 0 147 149" fill="none" xmlns="http://www.w3.org/2000/svg">
<g clip-path="url(#clip0_592_2145)">
<path d="M65.2983 1.57542C47.9162 5.07242 34.3739 18.8547 31.3569 36.1682C30.7055 39.8709 30.7055 47.6191 31.3569 51.3218C32.8654 59.9957 37.5281 68.7382 43.8021 74.6694L46.202 76.9321L44.1107 77.3435C30.7055 79.9834 17.2661 89.7544 9.20932 102.714C5.50663 108.714 2.55819 116.222 0.946827 123.833C0.192575 127.467 0.158291 128.153 0.055438 150.198C-0.0816989 175.362 -0.150267 174.265 2.21534 175.739C3.31244 176.425 4.20383 176.425 73.6979 176.425C143.192 176.425 144.083 176.425 145.181 175.739C147.58 174.265 147.478 175.362 147.34 150.198C147.203 128.187 147.203 127.467 146.415 123.833C145.421 118.999 143.363 112.759 141.478 108.782C134.004 93.0114 120.153 81.3548 104.554 77.6521L101.297 76.8979L103.319 74.9779C109.182 69.3896 113.262 62.3956 115.422 54.3731C116.622 49.8133 116.93 41.208 116.039 36.3053C113.605 22.7631 105.171 11.3807 93.1028 5.38098C88.9201 3.32393 86.2802 2.39825 81.8233 1.54114C77.3663 0.684036 69.6524 0.684036 65.2983 1.57542ZM80.8633 12.2378C93.2742 15.0834 102.874 25.0258 105.411 37.5396C106.234 41.448 105.959 48.6477 104.931 52.3161C101.262 65.1726 89.7429 74.7722 76.6464 75.9036C60.2242 77.3435 45.3449 66.2697 42.0193 50.1904C41.2993 46.7963 41.2993 40.6937 42.0193 37.2996C45.6534 19.6089 63.3441 8.19228 80.8633 12.2378ZM58.27 93.56V100.52L54.8416 117.627C52.956 127.056 51.4132 135.524 51.4132 136.484C51.4132 137.547 51.6532 138.541 52.0303 139.124C52.6131 140.015 70.0295 154.826 71.298 155.512C72.1208 155.957 75.275 155.957 76.0978 155.512C77.3663 154.826 94.7827 140.015 95.3655 139.124C95.7427 138.541 95.9827 137.547 95.9827 136.484C95.9827 135.524 94.4399 127.056 92.5542 117.627L89.1258 100.52V93.5257V86.5317L92.8285 86.7717C105.102 87.526 113.776 91.3315 122.039 99.6283C129.033 106.588 133.524 114.988 135.718 125.136C136.781 130.004 137.124 136.484 137.124 152.152V166.14H73.6636H10.2036L10.375 148.723C10.5121 135.147 10.6493 130.621 11.095 128.084C12.9806 116.702 17.6775 107.274 25.3572 99.6283C30.4312 94.5199 35.4367 91.3315 41.8136 89.0687C46.2363 87.526 50.4189 86.8403 56.6587 86.6346L58.27 86.6003V93.56ZM78.8406 91.7429V96.8855H73.6979H68.5553V91.7429V86.6003H73.6979H78.8406V91.7429ZM79.6634 107.754C79.7662 108.096 80.9319 113.925 82.269 120.713C83.6061 127.501 84.7717 133.295 84.8746 133.604C84.9774 134.015 83.4004 135.558 79.492 138.849C76.4064 141.421 73.8351 143.512 73.6979 143.512C73.5608 143.512 70.9895 141.421 67.9039 138.849C63.9955 135.558 62.4184 134.015 62.5213 133.604C62.6241 133.295 63.7898 127.501 65.1269 120.713C66.464 113.925 67.6296 108.096 67.7325 107.754C67.9039 107.239 68.4867 107.171 73.6979 107.171C78.9091 107.171 79.492 107.239 79.6634 107.754Z" fill="#F1F6FA"/>
</g>
<defs>
<clipPath id="clip0_592_2145">
<rect width="147" height="148.097" fill="white" transform="translate(0 0.90332)"/>
</clipPath>
</defs>
</svg>
