<svg width="160" height="135" viewBox="0 0 160 135" fill="none" xmlns="http://www.w3.org/2000/svg">
<g clip-path="url(#clip0_592_2138)">
<path d="M13.5951 0.573822C7.3132 2.35524 2.09395 7.69951 0.500048 13.9189C0.062506 15.669 0 22.4509 0 79.9877C0 137.524 0.062506 144.306 0.500048 146.057C2.1252 152.401 7.59448 157.87 13.9388 159.495C16.5953 160.183 45.3793 160.245 46.9733 159.589C48.3796 158.995 50.2548 156.808 50.5048 155.464C51.2549 151.432 49.0985 148.088 45.3793 147.463C44.5668 147.338 37.8786 147.213 30.5029 147.213L17.0954 147.182L15.7515 146.4C14.9389 145.932 14.0638 145.056 13.5951 144.244L12.8137 142.9V80.0189C12.8137 22.6697 12.845 17.0442 13.3138 16.1378C14.0326 14.7002 14.6577 14.0751 16.0953 13.2938L17.3454 12.6375H48.7547H80.1639L81.4141 13.325C82.9454 14.1689 95.978 27.2326 96.7905 28.7328C97.3218 29.7641 97.3531 31.1393 97.5093 48.891C97.6656 67.424 97.6969 67.9865 98.3219 69.0491C99.4783 71.0493 102.416 72.4245 104.666 72.0182C106.979 71.5806 108.479 70.4868 109.573 68.4241C110.136 67.3927 110.167 66.2989 110.167 47.9534C110.167 21.6383 111.104 24.4511 98.3219 11.6686C90.6649 4.01166 89.2898 2.79279 87.5084 1.91771C83.258 -0.113739 85.1019 -0.019989 48.5984 0.0112762C18.1892 0.0112762 15.314 0.0737762 13.5951 0.573822Z" fill="#F1F6FA"/>
<path d="M27.909 48.2967C25.9713 49.4531 25.0024 51.2658 25.0024 53.7348C25.0024 56.235 25.9713 58.0477 27.9402 59.204L29.2841 59.9854H55.0053H80.7265L82.0704 59.204C84.0393 58.0477 85.0082 56.235 85.0082 53.7348C85.0082 51.2345 84.0393 49.4218 82.0704 48.2655L80.7265 47.4842H54.9741H29.2216L27.909 48.2967Z" fill="#F1F6FA"/>
<path d="M138.92 62.4861C136.295 62.7674 133.169 63.8925 131.044 65.2676C129.888 66.049 118.98 76.7687 101.541 94.2392L73.8511 122.023L70.6945 128.117C63.6938 141.619 62.7875 143.525 62.4437 145.557C61.5374 150.932 64.6314 156.651 69.6944 159.027C71.9446 160.058 76.3826 160.339 78.7265 159.558C80.6017 158.964 98.6659 149.588 100.635 148.213C101.416 147.682 114.355 134.868 129.419 119.773C154.546 94.5829 156.89 92.1452 157.89 90.145C158.515 88.9261 159.234 87.0822 159.516 86.0509C160.141 83.5819 160.172 78.8002 159.547 76.3937C158.39 71.987 155.296 67.7366 151.452 65.2364C148.108 63.0799 143.264 62.0173 138.92 62.4861ZM142.67 75.3311C146.671 76.4249 148.514 80.9879 146.296 84.3945C145.795 85.1445 133.607 97.5207 119.199 111.897L92.9779 137.993L84.3833 142.431C79.6641 144.838 75.7575 146.775 75.695 146.744C75.6637 146.682 77.6639 142.713 80.1642 137.931L84.6958 129.211L111.511 102.427C134.919 79.0502 138.451 75.6436 139.545 75.3623C141.233 74.9561 141.233 74.9561 142.67 75.3311Z" fill="#F1F6FA"/>
<path d="M27.909 73.2995C25.9713 74.4559 25.0024 76.2686 25.0024 78.7376C25.0024 81.2378 25.9713 83.0505 27.9402 84.2068L29.2841 84.9882H55.0053H80.7265L82.0704 84.2068C84.0393 83.0505 85.0082 81.2378 85.0082 78.7376C85.0082 76.2373 84.0393 74.4246 82.0704 73.2683L80.7265 72.487H54.9741H29.2216L27.909 73.2995Z" fill="#F1F6FA"/>
<path d="M27.9092 98.3016C27.1279 98.7392 26.2215 99.6767 25.7527 100.489C25.0339 101.708 24.9402 102.146 25.0652 104.021C25.1902 106.677 26.1903 108.365 28.1905 109.334C29.5343 109.959 29.9719 109.99 42.6606 109.99H55.7244L57.0682 109.209C61.0999 106.834 61.0999 100.646 57.0682 98.2704L55.7244 97.489H42.4731H29.2218L27.9092 98.3016Z" fill="#F1F6FA"/>
</g>
<defs>
<clipPath id="clip0_592_2138">
<rect width="160" height="135" fill="white"/>
</clipPath>
</defs>
</svg>
