<svg width="24" height="24" viewBox="0 0 24 24" fill="none" xmlns="http://www.w3.org/2000/svg">
<path d="M19.2506 16.4473L18.5212 15.7179L13.1134 10.3101C13.038 10.2347 12.9434 10.1812 12.8399 10.1554L9.85425 9.40899C9.75572 9.38443 9.65251 9.38579 9.55466 9.41295C9.45681 9.44011 9.36766 9.49214 9.29589 9.56397C9.22411 9.63581 9.17216 9.725 9.14508 9.82287C9.118 9.92074 9.11672 10.024 9.14137 10.1225L9.88837 13.1081C9.91423 13.2115 9.96746 13.306 10.0425 13.3816L16.1796 19.5182C16.3322 19.6709 16.5134 19.7921 16.7128 19.8748C16.9123 19.9574 17.126 20 17.3419 20C17.5578 20 17.7716 19.9574 17.971 19.8748C18.1704 19.7921 18.3516 19.6709 18.5042 19.5182L19.2506 18.7718C19.558 18.4631 19.7307 18.0452 19.7307 17.6095C19.7307 17.1739 19.558 16.7559 19.2506 16.4473ZM10.5189 10.7871L12.3952 11.2577L17.2731 16.1349L15.8656 17.5407L10.9889 12.6634L10.5189 10.7871ZM18.4189 17.9407L17.6725 18.6871C17.5834 18.7721 17.465 18.8195 17.3419 18.8195C17.2188 18.8195 17.1004 18.7721 17.0113 18.6871L16.6973 18.373L18.1048 16.9655L18.4189 17.2796C18.5056 17.3676 18.5543 17.4862 18.5543 17.6098C18.5543 17.7334 18.5056 17.8526 18.4189 17.9407ZM13.5369 18.7824H5.17638V5.17697H11.4341V7.96205C11.4341 8.11804 11.4961 8.26765 11.6064 8.37796C11.7167 8.48827 11.8663 8.55024 12.0223 8.55024H14.8068V10.0936C14.8068 10.2496 14.8688 10.3993 14.9791 10.5096C15.0894 10.6199 15.239 10.6818 15.395 10.6818C15.551 10.6818 15.7006 10.6199 15.8109 10.5096C15.9212 10.3993 15.9832 10.2496 15.9832 10.0936V7.97322C15.9832 7.96911 15.9832 7.96616 15.9832 7.96205C15.983 7.88202 15.9663 7.80289 15.9341 7.72961C15.9019 7.65634 15.8549 7.5905 15.7961 7.5362L12.4393 4.17293C12.388 4.12348 12.3283 4.08364 12.2629 4.05529C12.2582 4.05529 12.2547 4.04882 12.25 4.04706C12.1777 4.01644 12.1002 4.00045 12.0217 4H4.58819C4.43219 4 4.28258 4.06197 4.17228 4.17228C4.06197 4.28258 4 4.43219 4 4.58819V19.3694C4 19.5254 4.06197 19.675 4.17228 19.7853C4.28258 19.8956 4.43219 19.9576 4.58819 19.9576H13.5346C13.6906 19.9576 13.8402 19.8956 13.9505 19.7853C14.0608 19.675 14.1227 19.5254 14.1227 19.3694C14.1227 19.2134 14.0608 19.0638 13.9505 18.9535C13.8402 18.8432 13.6906 18.7812 13.5346 18.7812L13.5369 18.7824ZM12.6105 6.00984L13.9722 7.37386H12.6105V6.00984Z" fill="#635BFF"/>
</svg>
