<svg width="20" height="16" viewBox="0 0 20 16" fill="none" xmlns="http://www.w3.org/2000/svg">
<path d="M16.39 2.07998L16.6299 1.9H16.33H3.67H3.37013L3.60998 2.07998L9.93998 6.82998L10 6.87502L10.06 6.82998L16.39 2.07998ZM2.06 3.17L1.9 3.05V3.25V13C1.9 13.2917 2.01589 13.5715 2.22218 13.7778C2.42847 13.9841 2.70826 14.1 3 14.1H17C17.2917 14.1 17.5715 13.9841 17.7778 13.7778C17.9841 13.5715 18.1 13.2917 18.1 13V3.25V3.05L17.94 3.17L10.54 8.72C10.3842 8.83684 10.1947 8.9 10 8.9C9.80527 8.9 9.61579 8.83684 9.46 8.72L2.06 3.17ZM3 0.1H17C17.7691 0.1 18.5068 0.405535 19.0506 0.94939C19.5945 1.49325 19.9 2.23087 19.9 3V13C19.9 13.7691 19.5945 14.5068 19.0506 15.0506C18.5068 15.5945 17.7691 15.9 17 15.9H3C2.23087 15.9 1.49325 15.5945 0.94939 15.0506C0.405535 14.5068 0.1 13.7691 0.1 13V3C0.1 2.23087 0.405535 1.49325 0.94939 0.94939C1.49325 0.405535 2.23087 0.1 3 0.1Z" fill="#635BFF" stroke="white" stroke-width="0.2"/>
</svg>
