<svg width="24" height="24" viewBox="0 0 24 24" fill="none" xmlns="http://www.w3.org/2000/svg">
<rect width="24" height="24" fill="white"/>
<path d="M7.36434 12.8571C6.72906 12.8571 6.10806 12.6687 5.57985 12.3158C5.05164 11.9629 4.63995 11.4612 4.39684 10.8743C4.15374 10.2874 4.09013 9.64157 4.21406 9.0185C4.338 8.39544 4.64391 7.82311 5.09312 7.37391C5.54232 6.9247 6.11464 6.61879 6.73771 6.49486C7.36077 6.37092 8.0066 6.43453 8.59351 6.67764C9.18043 6.92074 9.68207 7.33243 10.035 7.86064C10.3879 8.38885 10.5763 9.00986 10.5763 9.64513C10.5744 10.4964 10.2354 11.3123 9.63347 11.9143C9.03152 12.5162 8.21563 12.8552 7.36434 12.8571ZM7.36434 7.86069C7.01141 7.86069 6.6664 7.96535 6.37295 8.16142C6.07951 8.3575 5.85079 8.63619 5.71573 8.96225C5.58067 9.28832 5.54533 9.64711 5.61418 9.99326C5.68304 10.3394 5.85299 10.6574 6.10255 10.9069C6.35211 11.1565 6.67006 11.3264 7.01621 11.3953C7.36236 11.4641 7.72115 11.4288 8.04721 11.2937C8.37328 11.1587 8.65197 10.93 8.84804 10.6365C9.04412 10.3431 9.14878 9.99806 9.14878 9.64513C9.14878 9.41079 9.10262 9.17875 9.01294 8.96225C8.92327 8.74576 8.79183 8.54904 8.62613 8.38334C8.46042 8.21764 8.26371 8.0862 8.04721 7.99652C7.83071 7.90685 7.59867 7.86069 7.36434 7.86069ZM15.2159 10.7158C14.4394 10.7158 13.6804 10.4856 13.0348 10.0542C12.3892 9.62281 11.8861 9.00969 11.5889 8.29235C11.2918 7.57501 11.2141 6.78567 11.3655 6.02415C11.517 5.26262 11.8909 4.56312 12.4399 4.01409C12.989 3.46506 13.6885 3.09117 14.45 2.93969C15.2115 2.78822 16.0009 2.86596 16.7182 3.16309C17.4355 3.46022 18.0487 3.9634 18.48 4.60899C18.9114 5.25458 19.1416 6.01358 19.1416 6.79003C19.1398 7.83063 18.7255 8.82806 17.9897 9.56388C17.2539 10.2997 16.2565 10.7139 15.2159 10.7158ZM15.2159 4.29181C14.7218 4.29181 14.2388 4.43833 13.8279 4.71284C13.4171 4.98734 13.0969 5.37751 12.9078 5.834C12.7187 6.29049 12.6693 6.7928 12.7657 7.2774C12.8621 7.76201 13.1 8.20715 13.4494 8.55653C13.7987 8.90591 14.2439 9.14385 14.7285 9.24024C15.2131 9.33663 15.7154 9.28716 16.1719 9.09808C16.6284 8.90899 17.0186 8.58879 17.2931 8.17796C17.5676 7.76713 17.7141 7.28413 17.7141 6.79003C17.7141 6.12746 17.4509 5.49203 16.9824 5.02352C16.5139 4.55502 15.8784 4.29181 15.2159 4.29181ZM21.283 22.1362H9.14878C8.95947 22.1362 8.77792 22.061 8.64406 21.9271C8.5102 21.7933 8.435 21.6117 8.435 21.4224C8.435 21.2331 8.5102 21.0516 8.64406 20.9177C8.77792 20.7839 8.95947 20.7087 9.14878 20.7087H20.5692V16.7258C20.5673 15.6852 20.1531 14.6877 19.4173 13.9519C18.6815 13.2161 17.684 12.8019 16.6434 12.8H13.7883C13.0326 12.8032 12.2938 13.0245 11.6608 13.4372C11.0277 13.85 10.5272 14.4367 10.2194 15.1269C10.185 15.2181 10.1322 15.3012 10.0644 15.3712C9.99657 15.4411 9.91515 15.4965 9.82513 15.5338C9.73512 15.5711 9.63842 15.5896 9.54099 15.5881C9.44356 15.5866 9.34746 15.5652 9.25862 15.5252C9.16978 15.4851 9.09008 15.4274 9.02442 15.3554C8.95877 15.2834 8.90855 15.1987 8.87686 15.1065C8.84517 15.0144 8.83268 14.9167 8.84016 14.8196C8.84764 14.7224 8.87494 14.6278 8.92037 14.5416C9.34026 13.5976 10.025 12.7958 10.8916 12.2332C11.7582 11.6707 12.7694 11.3717 13.8026 11.3725H16.6577C18.0775 11.3725 19.4391 11.9365 20.4431 12.9404C21.447 13.9444 22.011 15.306 22.011 16.7258V21.4224C22.011 21.5174 21.9921 21.6114 21.9554 21.6989C21.9186 21.7865 21.8647 21.8658 21.7969 21.9323C21.7291 21.9987 21.6488 22.051 21.5605 22.086C21.4722 22.121 21.3779 22.1381 21.283 22.1362Z" fill="#635BFF"/>
<path d="M12.0026 22.1356H2.72354C2.53424 22.1356 2.35268 22.0604 2.21883 21.9266C2.08497 21.7927 2.00977 21.6112 2.00977 21.4218V18.9236C2.00977 17.5038 2.57377 16.1422 3.57772 15.1383C4.58166 14.1343 5.9433 13.5703 7.36308 13.5703C8.78287 13.5703 10.1445 14.1343 11.1485 15.1383C12.1524 16.1422 12.7164 17.5038 12.7164 18.9236V21.4218C12.7164 21.6112 12.6412 21.7927 12.5073 21.9266C12.3735 22.0604 12.1919 22.1356 12.0026 22.1356ZM3.43732 20.7081H11.2889V18.9236C11.2889 17.8825 10.8752 16.8839 10.139 16.1477C9.4028 15.4115 8.40426 14.9979 7.36308 14.9979C6.32191 14.9979 5.32337 15.4115 4.58715 16.1477C3.85092 16.8839 3.43732 17.8825 3.43732 18.9236V20.7081Z" fill="#635BFF"/>
<path d="M5.57901 19.9944C5.38971 19.9944 5.20815 19.9192 5.07429 19.7853C4.94044 19.6515 4.86523 19.4699 4.86523 19.2806V17.8531C4.86523 17.6638 4.94044 17.4822 5.07429 17.3484C5.20815 17.2145 5.38971 17.1393 5.57901 17.1393C5.76832 17.1393 5.94987 17.2145 6.08373 17.3484C6.21758 17.4822 6.29279 17.6638 6.29279 17.8531V19.2806C6.29279 19.4699 6.21758 19.6515 6.08373 19.7853C5.94987 19.9192 5.76832 19.9944 5.57901 19.9944ZM18.427 19.8873C18.2377 19.8873 18.0561 19.8121 17.9223 19.6783C17.7884 19.5444 17.7132 19.3629 17.7132 19.1736V17.746C17.7132 17.5567 17.7884 17.3751 17.9223 17.2413C18.0561 17.1074 18.2377 17.0322 18.427 17.0322C18.6163 17.0322 18.7978 17.1074 18.9317 17.2413C19.0655 17.3751 19.1408 17.5567 19.1408 17.746V19.1736C19.1408 19.3629 19.0655 19.5444 18.9317 19.6783C18.7978 19.8121 18.6163 19.8873 18.427 19.8873Z" fill="#635BFF"/>
</svg>
