<svg width="36" height="36" viewBox="0 0 36 36" fill="none" xmlns="http://www.w3.org/2000/svg">
<circle cx="18" cy="18" r="17.5" stroke="#DEEAF6"/>
<path d="M21.9996 13.9496H21.0996C20.9803 13.9496 20.8658 13.9022 20.7814 13.8178C20.697 13.7334 20.6496 13.619 20.6496 13.4996C20.6496 13.3803 20.697 13.2658 20.7814 13.1814C20.8658 13.097 20.9803 13.0496 21.0996 13.0496H21.5496V11.2496H21.0996C20.9803 11.2496 20.8658 11.2022 20.7814 11.1178C20.697 11.0334 20.6496 10.919 20.6496 10.7996C20.6496 10.6803 20.697 10.5658 20.7814 10.4814C20.8658 10.397 20.9803 10.3496 21.0996 10.3496H21.9996C22.119 10.3496 22.2334 10.397 22.3178 10.4814C22.4022 10.5658 22.4496 10.6803 22.4496 10.7996V13.4996C22.4496 13.619 22.4022 13.7334 22.3178 13.8178C22.2334 13.9022 22.119 13.9496 21.9996 13.9496ZM18.3996 13.4996C18.1326 13.4996 17.8716 13.4204 17.6496 13.2721C17.4276 13.1238 17.2546 12.9129 17.1524 12.6662C17.0502 12.4196 17.0235 12.1481 17.0755 11.8862C17.1276 11.6244 17.2562 11.3838 17.445 11.195C17.6338 11.0062 17.8744 10.8776 18.1362 10.8255C18.3981 10.7735 18.6696 10.8002 18.9162 10.9024C19.1629 11.0046 19.3738 11.1776 19.5221 11.3996C19.6704 11.6216 19.7496 11.8826 19.7496 12.1496C19.7496 12.5077 19.6074 12.851 19.3542 13.1042C19.101 13.3574 18.7577 13.4996 18.3996 13.4996ZM18.3996 11.6996C18.3106 11.6996 18.2236 11.726 18.1496 11.7754C18.0756 11.8249 18.0179 11.8952 17.9839 11.9774C17.9498 12.0596 17.9409 12.1501 17.9583 12.2374C17.9756 12.3247 18.0185 12.4049 18.0814 12.4678C18.1443 12.5307 18.2245 12.5736 18.3118 12.591C18.3991 12.6083 18.4896 12.5994 18.5718 12.5654C18.654 12.5313 18.7243 12.4736 18.7738 12.3996C18.8232 12.3256 18.8496 12.2386 18.8496 12.1496C18.8496 12.0303 18.8022 11.9158 18.7178 11.8314C18.6334 11.747 18.519 11.6996 18.3996 11.6996ZM15.6996 13.9496H14.7996C14.6803 13.9496 14.5658 13.9022 14.4814 13.8178C14.397 13.7334 14.3496 13.619 14.3496 13.4996V10.7996C14.3496 10.6803 14.397 10.5658 14.4814 10.4814C14.5658 10.397 14.6803 10.3496 14.7996 10.3496H15.6996C15.819 10.3496 15.9334 10.397 16.0178 10.4814C16.1022 10.5658 16.1496 10.6803 16.1496 10.7996C16.1496 10.919 16.1022 11.0334 16.0178 11.1178C15.9334 11.2022 15.819 11.2496 15.6996 11.2496H15.2496V13.0496H15.6996C15.819 13.0496 15.9334 13.097 16.0178 13.1814C16.1022 13.2658 16.1496 13.3803 16.1496 13.4996C16.1496 13.619 16.1022 13.7334 16.0178 13.8178C15.9334 13.9022 15.819 13.9496 15.6996 13.9496Z" fill="#0A2540"/>
<path d="M23.35 9H13.45C13.3307 9 13.2162 9.04741 13.1318 9.1318C13.0474 9.21619 13 9.33065 13 9.45V14.85C13 14.9693 13.0474 15.0838 13.1318 15.1682C13.2162 15.2526 13.3307 15.3 13.45 15.3H23.35C23.4693 15.3 23.5838 15.2526 23.6682 15.1682C23.7526 15.0838 23.8 14.9693 23.8 14.85V9.45C23.8 9.33065 23.7526 9.21619 23.6682 9.1318C23.5838 9.04741 23.4693 9 23.35 9ZM22.9 14.4H13.9V9.9H22.9V14.4ZM22.8235 21.798C22.7822 21.7369 22.7266 21.6869 22.6614 21.6524C22.5963 21.6179 22.5237 21.5999 22.45 21.6H14.35C14.2763 21.5999 14.2037 21.6179 14.1386 21.6524C14.0734 21.6869 14.0178 21.7369 13.9765 21.798C13.9355 21.8588 13.9099 21.9287 13.9021 22.0017C13.8942 22.0746 13.9043 22.1484 13.9315 22.2165L14.044 22.5L15.7315 26.7165C15.7648 26.8002 15.8226 26.872 15.8972 26.9226C15.9718 26.9731 16.0599 27.0001 16.15 27H20.65C20.7401 27.0001 20.8282 26.9731 20.9028 26.9226C20.9774 26.872 21.0352 26.8002 21.0685 26.7165L22.756 22.5L22.8685 22.2165C22.8957 22.1484 22.9058 22.0746 22.8979 22.0017C22.8901 21.9287 22.8645 21.8588 22.8235 21.798ZM20.344 26.1H16.456L15.016 22.5H21.766L20.344 26.1Z" fill="#0A2540"/>
<path d="M23.8 22.0496C23.8 22.169 23.7526 22.2834 23.6682 22.3678C23.5838 22.4522 23.4693 22.4996 23.35 22.4996H13.45C13.3307 22.4996 13.2162 22.4522 13.1318 22.3678C13.0474 22.2834 13 22.169 13 22.0496C13 21.9303 13.0474 21.8158 13.1318 21.7314C13.2162 21.647 13.3307 21.5996 13.45 21.5996H23.35C23.4693 21.5996 23.5838 21.647 23.6682 21.7314C23.7526 21.8158 23.8 21.9303 23.8 22.0496Z" fill="#0A2540"/>
<path d="M18.4002 22.5004C18.2808 22.5004 18.1664 22.453 18.082 22.3686C17.9976 22.2842 17.9502 22.1697 17.9502 22.0504V14.8504C17.9502 14.731 17.9976 14.6166 18.082 14.5322C18.1664 14.4478 18.2808 14.4004 18.4002 14.4004C18.5195 14.4004 18.634 14.4478 18.7184 14.5322C18.8028 14.6166 18.8502 14.731 18.8502 14.8504V22.0504C18.8502 22.1697 18.8028 22.2842 18.7184 22.3686C18.634 22.453 18.5195 22.5004 18.4002 22.5004Z" fill="#0A2540"/>
<path d="M22.8994 17.0996H21.0994C20.631 17.1 20.1687 17.2049 19.746 17.4065C19.3233 17.6081 18.9509 17.9014 18.6559 18.2651C18.2932 18.7038 18.0609 19.2355 17.9854 19.7996C17.9598 19.9482 17.9478 20.0988 17.9494 20.2496C17.9494 20.369 17.9968 20.4834 18.0812 20.5678C18.1656 20.6522 18.28 20.6996 18.3994 20.6996H20.1994C21.0348 20.6996 21.836 20.3677 22.4267 19.777C23.0175 19.1863 23.3494 18.385 23.3494 17.5496C23.3494 17.4303 23.3019 17.3158 23.2176 17.2314C23.1332 17.147 23.0187 17.0996 22.8994 17.0996ZM20.1994 19.7996H18.8944C18.9981 19.2914 19.2742 18.8346 19.6761 18.5066C20.0779 18.1786 20.5807 17.9995 21.0994 17.9996H22.4044C22.3006 18.5078 22.0245 18.9646 21.6227 19.2926C21.2209 19.6206 20.7181 19.7997 20.1994 19.7996Z" fill="#0A2540"/>
<path d="M18.6567 18.2655C18.4346 17.66 18.032 17.1372 17.5033 16.7678C16.9746 16.3984 16.3452 16.2002 15.7002 16.2H13.9002C13.7808 16.2 13.6664 16.2474 13.582 16.3318C13.4976 16.4162 13.4502 16.5307 13.4502 16.65C13.4502 17.4854 13.7821 18.2867 14.3728 18.8774C14.9635 19.4681 15.7648 19.8 16.6002 19.8H18.4002C18.5195 19.8 18.634 19.7526 18.7184 19.6682C18.8028 19.5838 18.8502 19.4694 18.8502 19.35C18.8511 18.9798 18.7856 18.6125 18.6567 18.2655ZM16.6002 18.9C16.0815 18.9001 15.5787 18.721 15.1769 18.393C14.7751 18.065 14.4989 17.6082 14.3952 17.1H15.7002C16.2189 17.0999 16.7217 17.279 17.1235 17.607C17.5253 17.935 17.8015 18.3918 17.9052 18.9H16.6002Z" fill="#0A2540"/>
</svg>
