<svg width="30" height="30" viewBox="0 0 30 30" fill="none" xmlns="http://www.w3.org/2000/svg">
<path fill-rule="evenodd" clip-rule="evenodd" d="M14.1429 5.705C14.1479 5.315 14.4665 5 14.8572 5C15.2515 5 15.5715 5.32 15.5715 5.71429V5.72143C15.9851 5.81786 16.3808 5.985 16.695 6.205C17.0179 6.43071 17.0972 6.87643 16.8715 7.19929C16.6458 7.52286 16.2001 7.60214 15.8765 7.37643C15.5358 7.13786 15.0251 7.01071 14.5986 7.07C14.3593 7.10357 14.1429 7.21714 14.1429 7.505C14.1429 7.56857 14.1901 7.59857 14.2379 7.62643C14.3158 7.67071 14.4051 7.70571 14.5001 7.73714C14.8072 7.84 15.1601 7.90857 15.4801 8.00214C16.3636 8.26 17.0001 8.72714 17.0001 9.64786C17.0001 10.5864 16.4936 11.1271 15.7922 11.375C15.7215 11.4 15.6472 11.4214 15.5715 11.4393V15.9243C15.7258 15.6964 15.9043 15.4786 16.1086 15.2743C17.2729 14.1093 18.9008 13.7593 20.2015 14.2229C20.4036 14.295 20.5622 14.4536 20.6343 14.6557C21.0979 15.9564 20.7479 17.5843 19.5829 18.7486C18.4422 19.8893 16.8579 20.2493 15.5715 19.8286V20.7143H22.0001C22.2201 20.7143 22.4279 20.8157 22.5629 20.9893C22.6986 21.1621 22.7465 21.3886 22.6929 21.6021C22.6929 21.6021 22.4515 22.5679 22.2493 23.3771C22.0108 24.3307 21.1536 25 20.1701 25C17.7372 25 11.9772 25 9.54433 25C8.56076 25 7.70362 24.3307 7.46505 23.3771C7.26291 22.5679 7.02148 21.6021 7.02148 21.6021C6.96791 21.3886 7.01576 21.1621 7.15148 20.9893C7.28648 20.8157 7.49434 20.7143 7.71434 20.7143H14.1429V18.4C12.8565 18.8207 11.2722 18.4607 10.1315 17.32C8.96648 16.1557 8.61648 14.5279 9.08005 13.2271C9.15219 13.025 9.31076 12.8664 9.51291 12.7943C10.8136 12.3307 12.4415 12.6807 13.6058 13.8457C13.8101 14.05 13.9886 14.2679 14.1429 14.4957V11.4171C13.7322 11.3243 13.3408 11.1643 13.0293 10.9543C12.7022 10.7336 12.6158 10.2893 12.8365 9.96214C13.0572 9.63571 13.5015 9.54929 13.8279 9.77C14.1722 10.0021 14.6886 10.1314 15.1186 10.0736C15.3558 10.0414 15.5715 9.93214 15.5715 9.64786C15.5715 9.58357 15.5243 9.55429 15.4765 9.52643C15.3986 9.48143 15.3093 9.44714 15.2143 9.415C14.9072 9.31214 14.5543 9.24357 14.2343 9.15071C13.3508 8.89286 12.7143 8.42571 12.7143 7.505C12.7143 7.04 12.8501 6.67571 13.0608 6.39214C13.3165 6.04786 13.6958 5.81643 14.1429 5.705ZM21.0851 22.1429H8.62933L8.85077 23.0307C8.93077 23.3486 9.21648 23.5714 9.54433 23.5714C11.9772 23.5714 17.7372 23.5714 20.1701 23.5714C20.4979 23.5714 20.7836 23.3486 20.8636 23.0307L21.0851 22.1429ZM19.3779 15.4793C18.6201 15.3529 17.7629 15.64 17.1186 16.2843C16.4743 16.9286 16.1865 17.7857 16.3136 18.5436C17.0715 18.6707 17.9286 18.3829 18.5729 17.7386C19.2172 17.0943 19.5043 16.2371 19.3779 15.4793ZM13.4008 17.115C13.5279 16.3571 13.2401 15.5 12.5958 14.8557C11.9515 14.2114 11.0943 13.9243 10.3365 14.0507C10.21 14.8086 10.4972 15.6657 11.1415 16.31C11.7858 16.9543 12.6429 17.2421 13.4008 17.115Z" fill="#635BFF"/>
</svg>
