<svg width="24" height="24" viewBox="0 0 24 24" fill="none" xmlns="http://www.w3.org/2000/svg">
<rect width="24" height="24" fill="white"/>
<path d="M16 7.5H15C14.8674 7.5 14.7402 7.44732 14.6464 7.35355C14.5527 7.25979 14.5 7.13261 14.5 7C14.5 6.86739 14.5527 6.74022 14.6464 6.64645C14.7402 6.55268 14.8674 6.5 15 6.5H15.5V4.5H15C14.8674 4.5 14.7402 4.44732 14.6464 4.35355C14.5527 4.25979 14.5 4.13261 14.5 4C14.5 3.86739 14.5527 3.74021 14.6464 3.64645C14.7402 3.55268 14.8674 3.5 15 3.5H16C16.1326 3.5 16.2598 3.55268 16.3536 3.64645C16.4473 3.74021 16.5 3.86739 16.5 4V7C16.5 7.13261 16.4473 7.25979 16.3536 7.35355C16.2598 7.44732 16.1326 7.5 16 7.5ZM12 7C11.7033 7 11.4133 6.91203 11.1666 6.74721C10.92 6.58238 10.7277 6.34811 10.6142 6.07403C10.5006 5.79994 10.4709 5.49834 10.5288 5.20736C10.5867 4.91639 10.7296 4.64912 10.9393 4.43934C11.1491 4.22956 11.4164 4.0867 11.7074 4.02882C11.9983 3.97094 12.2999 4.00065 12.574 4.11418C12.8481 4.22771 13.0824 4.41997 13.2472 4.66664C13.412 4.91332 13.5 5.20333 13.5 5.5C13.5 5.89783 13.342 6.27936 13.0607 6.56066C12.7794 6.84197 12.3978 7 12 7ZM12 5C11.9011 5 11.8044 5.02932 11.7222 5.08427C11.64 5.13921 11.5759 5.2173 11.5381 5.30866C11.5002 5.40002 11.4903 5.50056 11.5096 5.59755C11.5289 5.69454 11.5765 5.78363 11.6464 5.85355C11.7164 5.92348 11.8055 5.9711 11.9025 5.99039C11.9994 6.00969 12.1 5.99978 12.1913 5.96194C12.2827 5.9241 12.3608 5.86001 12.4157 5.77779C12.4707 5.69556 12.5 5.59889 12.5 5.5C12.5 5.36739 12.4473 5.24022 12.3536 5.14645C12.2598 5.05268 12.1326 5 12 5ZM9 7.5H8C7.86739 7.5 7.74021 7.44732 7.64645 7.35355C7.55268 7.25979 7.5 7.13261 7.5 7V4C7.5 3.86739 7.55268 3.74021 7.64645 3.64645C7.74021 3.55268 7.86739 3.5 8 3.5H9C9.13261 3.5 9.25979 3.55268 9.35355 3.64645C9.44732 3.74021 9.5 3.86739 9.5 4C9.5 4.13261 9.44732 4.25979 9.35355 4.35355C9.25979 4.44732 9.13261 4.5 9 4.5H8.5V6.5H9C9.13261 6.5 9.25979 6.55268 9.35355 6.64645C9.44732 6.74022 9.5 6.86739 9.5 7C9.5 7.13261 9.44732 7.25979 9.35355 7.35355C9.25979 7.44732 9.13261 7.5 9 7.5Z" fill="#635BFF"/>
<path d="M17.5 2H6.5C6.36739 2 6.24021 2.05268 6.14645 2.14645C6.05268 2.24021 6 2.36739 6 2.5V8.5C6 8.63261 6.05268 8.75979 6.14645 8.85355C6.24021 8.94732 6.36739 9 6.5 9H17.5C17.6326 9 17.7598 8.94732 17.8536 8.85355C17.9473 8.75979 18 8.63261 18 8.5V2.5C18 2.36739 17.9473 2.24021 17.8536 2.14645C17.7598 2.05268 17.6326 2 17.5 2ZM17 8H7V3H17V8ZM16.915 16.22C16.8691 16.1521 16.8073 16.0966 16.7349 16.0582C16.6626 16.0199 16.5819 15.9999 16.5 16H7.5C7.4181 15.9999 7.33742 16.0199 7.26506 16.0582C7.1927 16.0966 7.13086 16.1521 7.085 16.22C7.03939 16.2876 7.011 16.3652 7.00228 16.4463C6.99357 16.5273 7.0048 16.6093 7.035 16.685L7.16 17L9.035 21.685C9.07205 21.778 9.13618 21.8578 9.21909 21.914C9.302 21.9701 9.39986 22.0001 9.5 22H14.5C14.6001 22.0001 14.698 21.9701 14.7809 21.914C14.8638 21.8578 14.9279 21.778 14.965 21.685L16.84 17L16.965 16.685C16.9952 16.6093 17.0064 16.5273 16.9977 16.4463C16.989 16.3652 16.9606 16.2876 16.915 16.22ZM14.16 21H9.84L8.24 17H15.74L14.16 21Z" fill="#635BFF"/>
<path d="M18 16.5C18 16.6326 17.9473 16.7598 17.8536 16.8536C17.7598 16.9473 17.6326 17 17.5 17H6.5C6.36739 17 6.24021 16.9473 6.14645 16.8536C6.05268 16.7598 6 16.6326 6 16.5C6 16.3674 6.05268 16.2402 6.14645 16.1464C6.24021 16.0527 6.36739 16 6.5 16H17.5C17.6326 16 17.7598 16.0527 17.8536 16.1464C17.9473 16.2402 18 16.3674 18 16.5Z" fill="#635BFF"/>
<path d="M12 17C11.8674 17 11.7402 16.9473 11.6464 16.8536C11.5527 16.7598 11.5 16.6326 11.5 16.5V8.5C11.5 8.36739 11.5527 8.24021 11.6464 8.14645C11.7402 8.05268 11.8674 8 12 8C12.1326 8 12.2598 8.05268 12.3536 8.14645C12.4473 8.24021 12.5 8.36739 12.5 8.5V16.5C12.5 16.6326 12.4473 16.7598 12.3536 16.8536C12.2598 16.9473 12.1326 17 12 17Z" fill="#635BFF"/>
<path d="M17.0002 11H15.0002C14.4798 11.0005 13.9661 11.1169 13.4964 11.341C13.0268 11.565 12.613 11.8909 12.2852 12.295C11.8822 12.7824 11.6241 13.3732 11.5402 14C11.5118 14.1651 11.4984 14.3325 11.5002 14.5C11.5002 14.6326 11.5528 14.7598 11.6466 14.8536C11.7404 14.9473 11.8675 15 12.0002 15H14.0002C14.9284 15 15.8187 14.6313 16.475 13.9749C17.1314 13.3185 17.5002 12.4283 17.5002 11.5C17.5002 11.3674 17.4475 11.2402 17.3537 11.1464C17.2599 11.0527 17.1328 11 17.0002 11ZM14.0002 14H12.5502C12.6654 13.4353 12.9722 12.9278 13.4187 12.5633C13.8652 12.1989 14.4238 11.9999 15.0002 12H16.4502C16.3349 12.5647 16.0281 13.0722 15.5816 13.4367C15.1352 13.8011 14.5765 14.0001 14.0002 14Z" fill="#635BFF"/>
<path d="M12.285 12.296C12.0383 11.6231 11.5909 11.0423 11.0035 10.6318C10.416 10.2214 9.71665 10.0012 9 10.001H7C6.86739 10.001 6.74021 10.0537 6.64645 10.1474C6.55268 10.2412 6.5 10.3684 6.5 10.501C6.5 11.4292 6.86875 12.3195 7.52513 12.9759C8.1815 13.6322 9.07174 14.001 10 14.001H12C12.1326 14.001 12.2598 13.9483 12.3536 13.8545C12.4473 13.7608 12.5 13.6336 12.5 13.501C12.5011 13.0897 12.4282 12.6815 12.285 12.296ZM10 13.001C9.42367 13.0011 8.86501 12.8021 8.41855 12.4376C7.97209 12.0732 7.66527 11.5657 7.55 11.001H9C9.57633 11.0009 10.135 11.1999 10.5815 11.5643C11.0279 11.9288 11.3347 12.4363 11.45 13.001H10Z" fill="#635BFF"/>
</svg>
