<svg width="30" height="30" viewBox="0 0 30 30" fill="none" xmlns="http://www.w3.org/2000/svg">
<path d="M14.4405 5.07667C12.4598 5.47514 10.9168 7.04557 10.573 9.01837C10.4988 9.44027 10.4988 10.3231 10.573 10.7451C10.7449 11.7334 11.2762 12.7296 11.9911 13.4054L12.2645 13.6632L12.0262 13.7101C10.4988 14.0109 8.9674 15.1243 8.04936 16.601C7.62746 17.2846 7.29149 18.1401 7.10789 19.0074C7.02194 19.4215 7.01804 19.4996 7.00632 22.0115C6.99069 24.8789 6.98288 24.7539 7.25243 24.9219C7.37744 25 7.47901 25 15.3976 25C23.3161 25 23.4177 25 23.5427 24.9219C23.8161 24.7539 23.8044 24.8789 23.7888 22.0115C23.7732 19.5035 23.7732 19.4215 23.6833 19.0074C23.57 18.4566 23.3356 17.7456 23.1208 17.2924C22.2691 15.4954 20.6909 14.1672 18.9134 13.7453L18.5423 13.6593L18.7728 13.4406C19.4408 12.8038 19.9057 12.0069 20.1518 11.0927C20.2885 10.5732 20.3237 9.59263 20.2221 9.03399C19.9448 7.49091 18.9838 6.19394 17.6087 5.5103C17.1321 5.27591 16.8313 5.17043 16.3234 5.07277C15.8156 4.9751 14.9366 4.9751 14.4405 5.07667ZM16.214 6.29161C17.6282 6.61585 18.722 7.74874 19.0111 9.17463C19.1049 9.61997 19.0736 10.4403 18.9564 10.8583C18.5384 12.3233 17.2258 13.4171 15.7335 13.546C13.8623 13.7101 12.1668 12.4483 11.7879 10.6161C11.7059 10.2294 11.7059 9.53403 11.7879 9.14728C12.202 7.13151 14.2178 5.83064 16.214 6.29161ZM13.6396 15.5579V16.3509L13.249 18.3003C13.0341 19.3746 12.8583 20.3395 12.8583 20.4489C12.8583 20.57 12.8857 20.6833 12.9286 20.7497C12.995 20.8513 14.9796 22.5389 15.1241 22.617C15.2179 22.6678 15.5773 22.6678 15.671 22.617C15.8156 22.5389 17.8001 20.8513 17.8665 20.7497C17.9095 20.6833 17.9368 20.57 17.9368 20.4489C17.9368 20.3395 17.761 19.3746 17.5461 18.3003L17.1555 16.3509V15.554V14.7571L17.5774 14.7844C18.9759 14.8704 19.9643 15.304 20.9058 16.2494C21.7027 17.0424 22.2145 17.9995 22.4645 19.1558C22.5856 19.7106 22.6246 20.4489 22.6246 22.2342V23.828H15.3936H8.16265L8.18218 21.8435C8.19781 20.2965 8.21344 19.7809 8.26422 19.4918C8.47908 18.1948 9.01428 17.1205 9.88934 16.2494C10.4675 15.6673 11.0379 15.304 11.7645 15.0462C12.2684 14.8704 12.745 14.7922 13.456 14.7688L13.6396 14.7649V15.5579ZM15.9835 15.3509V15.9368H15.3976H14.8116V15.3509V14.7649H15.3976H15.9835V15.3509ZM16.0773 17.1752C16.089 17.2143 16.2218 17.8784 16.3742 18.6519C16.5265 19.4254 16.6594 20.0856 16.6711 20.1207C16.6828 20.1676 16.5031 20.3434 16.0578 20.7184C15.7062 21.0114 15.4132 21.2497 15.3976 21.2497C15.3819 21.2497 15.0889 21.0114 14.7373 20.7184C14.292 20.3434 14.1123 20.1676 14.124 20.1207C14.1357 20.0856 14.2686 19.4254 14.4209 18.6519C14.5733 17.8784 14.7061 17.2143 14.7178 17.1752C14.7373 17.1166 14.8038 17.1088 15.3976 17.1088C15.9913 17.1088 16.0578 17.1166 16.0773 17.1752Z" fill="#635BFF"/>
</svg>
