<svg width="24" height="24" viewBox="0 0 24 24" fill="none" xmlns="http://www.w3.org/2000/svg">
<rect width="24" height="24" fill="white"/>
<path fill-rule="evenodd" clip-rule="evenodd" d="M3.31836 10.3767C3.33413 5.73467 7.11005 1.98433 11.7521 2.00005C16.3942 2.01587 20.1445 5.79178 20.1288 10.4338V10.529C20.0716 13.5465 18.3868 16.3356 16.3212 18.5154C15.1399 19.7421 13.8207 20.8281 12.3899 21.7518C12.0073 22.0827 11.4398 22.0827 11.0572 21.7518C8.92425 20.3635 7.05222 18.6107 5.52674 16.5735C4.16711 14.7971 3.39517 12.641 3.31836 10.4053V10.3767Z" stroke="#635BFF" stroke-width="1.5" stroke-linecap="round" stroke-linejoin="round"/>
<path d="M11.7233 13.232C13.2111 13.232 14.4173 12.0258 14.4173 10.538C14.4173 9.05013 13.2111 7.84399 11.7233 7.84399C10.2354 7.84399 9.0293 9.05013 9.0293 10.538C9.0293 12.0258 10.2354 13.232 11.7233 13.232Z" stroke="#635BFF" stroke-width="1.5" stroke-linecap="round" stroke-linejoin="round"/>
</svg>
