<svg width="12" height="16" viewBox="0 0 12 16" fill="none" xmlns="http://www.w3.org/2000/svg">
<path fill-rule="evenodd" clip-rule="evenodd" d="M9.59967 4.79983H10.3996C10.6118 4.79983 10.8153 4.88411 10.9653 5.03413C11.1153 5.18416 11.1996 5.38763 11.1996 5.5998V11.8108C11.2012 12.2567 11.0779 12.6942 10.8436 13.0737C10.6093 13.4532 10.2735 13.7595 9.87406 13.9579L5.9582 15.9154C5.84706 15.971 5.72449 16 5.60021 16C5.47594 16 5.35337 15.971 5.24223 15.9154L1.32637 13.9579C0.926811 13.7596 0.590784 13.4534 0.356361 13.0739C0.121939 12.6944 -0.00150654 12.2568 1.3877e-05 11.8108V5.5998C1.3877e-05 5.38763 0.0842965 5.18416 0.23432 5.03413C0.384344 4.88411 0.58782 4.79983 0.799985 4.79983H0.999986V4.8H3.99999V4.79983H7.99973V3.99986C7.99973 3.36336 7.74688 2.75293 7.29681 2.30286C6.84674 1.85279 6.23631 1.59994 5.59981 1.59994C4.96332 1.59994 4.35289 1.85279 3.90282 2.30286C3.50009 2.70559 3.25528 3.2367 3.20823 3.8H1.60495C1.65434 2.81194 2.06861 1.87441 2.77149 1.17153C3.52161 0.421412 4.53899 0 5.59981 0C6.66064 0 7.67802 0.421412 8.42814 1.17153C9.17826 1.92165 9.59967 2.93903 9.59967 3.99986V4.79983ZM9.48097 12.2321C9.55917 12.1055 9.6003 11.9596 9.59967 11.8108V6.39977H1.59996V11.8108C1.59948 11.9594 1.64068 12.1052 1.71887 12.2316C1.79707 12.358 1.90913 12.46 2.04234 12.526L5.59981 14.3051L9.15729 12.5268C9.29062 12.4607 9.40276 12.3587 9.48097 12.2321Z" fill="#425466"/>
<path d="M5.59978 7.99976C5.38761 7.99976 5.18413 8.08404 5.03411 8.23406C4.88409 8.38409 4.7998 8.58756 4.7998 8.79973V10.3997C4.7998 10.6118 4.88409 10.8153 5.03411 10.9653C5.18413 11.1154 5.38761 11.1996 5.59978 11.1996C5.81194 11.1996 6.01542 11.1154 6.16544 10.9653C6.31547 10.8153 6.39975 10.6118 6.39975 10.3997V8.79973C6.39975 8.58756 6.31547 8.38409 6.16544 8.23406C6.01542 8.08404 5.81194 7.99976 5.59978 7.99976Z" fill="#425466"/>
</svg>
