<svg width="43" height="62" viewBox="0 0 43 62" fill="none" xmlns="http://www.w3.org/2000/svg">
    <path fill-rule="evenodd" clip-rule="evenodd"
        d="M5.03079 45.6566L6.08552 45.66L5.03078 45.66V45.6586C5.02863 46.443 5.2462 47.2123 5.65886 47.8794C6.0714 48.5464 6.6624 49.0844 7.36494 49.4328L7.36732 49.434L21.4342 56.469L21.9059 56.7049L22.3776 56.4691L36.4447 49.4371L36.4467 49.4361C37.1501 49.0875 37.7416 48.5487 38.1543 47.8808C38.567 47.2129 38.7842 46.4426 38.7812 45.6575V24.258V23.2033H37.7265H6.08552H5.03078V24.258V45.6586L5.03079 45.6566ZM36.6718 18.9846V17.9298V14.7657C36.6718 10.8496 35.1161 7.0939 32.347 4.32479C29.5779 1.55567 25.8221 0 21.906 0C17.9899 0 14.2342 1.55567 11.465 4.32479C8.69593 7.0939 7.14026 10.8496 7.14026 14.7657V17.9298V18.9846H6.08552H2.92142C2.36199 18.9846 1.82546 19.2068 1.42988 19.6024C1.0343 19.998 0.812061 20.5345 0.812061 21.0939V45.66V45.6636C0.806712 47.2308 1.24045 48.7682 2.0641 50.1016C2.88776 51.4349 4.06842 52.5109 5.47228 53.2077L5.47502 53.209L20.9633 60.9516L20.9636 60.9518C21.2567 61.0984 21.5799 61.1747 21.9076 61.1747C22.2353 61.1747 22.5585 61.0984 22.8515 60.9518L22.8519 60.9516L38.3402 53.209L38.3425 53.2078C39.7459 52.5107 40.926 51.4345 41.7491 50.1012C42.5723 48.7679 43.0056 47.2307 43 45.6638L42.9999 45.66L43 21.0939C43 20.5345 42.7777 19.998 42.3821 19.6024C41.9866 19.2068 41.45 18.9846 40.8906 18.9846H37.7265H36.6718ZM32.453 18.9846H31.3983H12.4137H11.359V17.9298V14.7657C11.359 11.9685 12.4702 9.28583 14.4481 7.30787C16.4261 5.32992 19.1088 4.21872 21.906 4.21872C24.7033 4.21872 27.3859 5.32992 29.3639 7.30787C31.3418 9.28583 32.453 11.9685 32.453 14.7657V17.9298V18.9846ZM21.904 31.6411C21.3446 31.6411 20.808 31.8634 20.4125 32.2589C20.0169 32.6545 19.7946 33.191 19.7946 33.7505V40.0787C19.7946 40.6381 20.0169 41.1746 20.4125 41.5702C20.808 41.9658 21.3446 42.188 21.904 42.188C22.4634 42.188 23 41.9658 23.3955 41.5702C23.7911 41.1746 24.0134 40.6381 24.0134 40.0787V33.7505C24.0134 33.191 23.7911 32.6545 23.3955 32.2589C23 31.8634 22.4634 31.6411 21.904 31.6411Z"
        fill="#425466" />
</svg>