<svg width="12" height="17" viewBox="0 0 12 17" fill="none" xmlns="http://www.w3.org/2000/svg">
<path d="M10.3996 5.29983H9.59967V4.49986C9.59967 3.43903 9.17826 2.42165 8.42814 1.67153C7.67802 0.921412 6.66064 0.5 5.59981 0.5C4.53899 0.5 3.52161 0.921412 2.77149 1.67153C2.02137 2.42165 1.59996 3.43903 1.59996 4.49986V5.29983H0.799985C0.58782 5.29983 0.384344 5.38411 0.23432 5.53413C0.0842965 5.68416 1.3877e-05 5.88763 1.3877e-05 6.0998V12.3108C-0.00150654 12.7568 0.121939 13.1944 0.356361 13.5739C0.590784 13.9534 0.926811 14.2596 1.32637 14.4579L5.24223 16.4154C5.35337 16.471 5.47593 16.5 5.60021 16.5C5.72449 16.5 5.84706 16.471 5.9582 16.4154L9.87406 14.4579C10.2735 14.2595 10.6093 13.9532 10.8436 13.5737C11.0779 13.1942 11.2012 12.7567 11.1996 12.3108V6.0998C11.1996 5.88763 11.1153 5.68416 10.9653 5.53413C10.8153 5.38411 10.6118 5.29983 10.3996 5.29983ZM3.1999 4.49986C3.1999 3.86336 3.45275 3.25293 3.90282 2.80286C4.35289 2.35279 4.96332 2.09994 5.59981 2.09994C6.23631 2.09994 6.84674 2.35279 7.29681 2.80286C7.74688 3.25293 7.99973 3.86336 7.99973 4.49986V5.29983H3.1999V4.49986ZM9.59967 12.3108C9.6003 12.4596 9.55917 12.6055 9.48097 12.7321C9.40276 12.8587 9.29062 12.9607 9.15729 13.0268L5.59981 14.8051L2.04234 13.026C1.90913 12.96 1.79707 12.858 1.71887 12.7316C1.64068 12.6052 1.59948 12.4594 1.59996 12.3108V6.89977H9.59967V12.3108Z" fill="#425466"/>
</svg>
