<svg width="24" height="24" viewBox="0 0 24 24" fill="none" xmlns="http://www.w3.org/2000/svg">
<rect width="24" height="24" fill="white"/>
<path d="M19.4584 17.0415H4.54299C3.14467 17.0415 2.04297 15.9398 2.04297 14.5415V4.49904C2.04297 3.10073 3.14467 1.99902 4.54299 1.99902H19.4584C20.8567 1.99902 21.9584 3.10073 21.9584 4.49904V14.5415C21.9584 15.9398 20.8567 17.0415 19.4584 17.0415ZM4.54299 3.65158C4.07688 3.65158 3.69552 4.03294 3.69552 4.49904V14.5415C3.69552 15.0076 4.07688 15.389 4.54299 15.389H19.4584C19.9245 15.389 20.3058 15.0076 20.3058 14.5415V4.49904C20.3058 4.03294 19.9245 3.65158 19.4584 3.65158H4.54299Z" fill="#635BFF"/>
<path d="M15.2218 21.9989H8.78106C8.31495 21.9989 7.93359 21.6175 7.93359 21.1514V16.2361C7.93359 15.77 8.31495 15.3887 8.78106 15.3887H15.1794C15.6455 15.3887 16.0269 15.77 16.0269 16.2361V21.1938C16.0269 21.6175 15.6455 21.9989 15.2218 21.9989ZM9.62852 20.3463H14.3743V17.0836H9.62852V20.3463Z" fill="#635BFF"/>
<path d="M18.4 21.9989H5.60332C5.13722 21.9989 4.75586 21.6176 4.75586 21.1515C4.75586 20.6854 5.13722 20.304 5.60332 20.304H18.4C18.8661 20.304 19.2475 20.6854 19.2475 21.1515C19.2475 21.6176 18.8661 21.9989 18.4 21.9989ZM12.8915 12.6345C12.6373 12.6345 12.4254 12.5497 12.2559 12.3378L9.67115 9.32934L7.08639 12.0412C6.78977 12.3802 6.23892 12.3802 5.89994 12.0836C5.56095 11.787 5.56095 11.2361 5.85756 10.8971L9.07793 7.50729C9.24742 7.3378 9.45929 7.25305 9.71353 7.25305C9.96777 7.25305 10.1796 7.38017 10.3068 7.54966L13.0186 10.6853L17.0441 8.10052C17.4255 7.84628 17.9339 7.9734 18.1882 8.35476C18.4424 8.73611 18.3153 9.24459 17.9339 9.49883L13.3153 12.465C13.2305 12.5921 13.061 12.6345 12.8915 12.6345Z" fill="#635BFF"/>
</svg>
