<svg width="24" height="24" viewBox="0 0 24 24" fill="none" xmlns="http://www.w3.org/2000/svg">
<rect width="24" height="24" fill="white"/>
<path d="M5.10394 17.8514H14.1683C14.3452 17.8514 14.5148 17.7811 14.6398 17.6561C14.7649 17.531 14.8351 17.3614 14.8351 17.1846C14.8351 17.0078 14.7649 16.8382 14.6398 16.7131C14.5148 16.5881 14.3452 16.5178 14.1683 16.5178H6.72787V16.2274C6.72692 15.4043 6.39952 14.6152 5.8175 14.0332C5.23548 13.4512 4.44637 13.1238 3.62327 13.1228H3.33352V9.72784H3.62327C4.4463 9.72704 5.2354 9.39978 5.81744 8.81787C6.39947 8.23596 6.72689 7.44693 6.72787 6.6239V6.33352H15.6673V6.62392C15.6682 7.44695 15.9957 8.23599 16.5777 8.8179C17.1597 9.39981 17.9488 9.72707 18.7719 9.72787H19.0616V11.4254C19.0616 11.6022 19.1319 11.7718 19.2569 11.8968C19.3819 12.0219 19.5515 12.0921 19.7284 12.0921C19.9052 12.0921 20.0748 12.0219 20.1998 11.8968C20.3249 11.7718 20.3951 11.6022 20.3951 11.4254V8.10392C20.3943 7.28096 20.067 6.49195 19.4851 5.91003C18.9031 5.32812 18.1141 5.00083 17.2912 5H5.10394C4.28099 5.00083 3.49198 5.32812 2.91006 5.91004C2.32813 6.49195 2.00084 7.28096 2 8.10392V14.7468C2.0008 15.5698 2.32806 16.3589 2.90997 16.9409C3.49188 17.523 4.28091 17.8504 5.10394 17.8514ZM17.0008 6.33414H17.2912L17.2933 6.3337C17.7623 6.33483 18.2117 6.52176 18.5431 6.85356C18.8746 7.18536 19.061 7.63497 19.0616 8.10394V8.39435H18.7719C18.3024 8.3939 17.8523 8.20725 17.5202 7.87534C17.1882 7.54344 17.0014 7.09339 17.0008 6.62392V6.33414ZM3.33352 8.10457V8.1039C3.33412 7.63493 3.52054 7.18532 3.85197 6.85352C4.18339 6.52172 4.6328 6.33479 5.10176 6.33366L5.10392 6.3341H5.39432V6.62386C5.3937 7.09333 5.20688 7.54338 4.87486 7.87528C4.54283 8.20718 4.09271 8.39383 3.62324 8.39428H3.33352V8.10457ZM3.33352 14.4564H3.62327C4.09284 14.4568 4.54304 14.6436 4.87508 14.9756C5.20711 15.3077 5.39386 15.7579 5.39435 16.2274V16.5172H5.10394L5.10179 16.5176C4.63272 16.5165 4.18323 16.3294 3.85179 15.9975C3.52035 15.6656 3.33399 15.2158 3.33352 14.7468V14.4564Z" fill="#635BFF"/>
<path d="M8.58887 11.4254C8.58893 11.9413 8.74198 12.4456 9.02866 12.8746C9.31534 13.3036 9.72278 13.6379 10.1995 13.8353C10.6761 14.0327 11.2006 14.0843 11.7067 13.9837C12.2127 13.883 12.6775 13.6345 13.0423 13.2697C13.4071 12.9049 13.6556 12.4401 13.7562 11.9341C13.8569 11.428 13.8053 10.9035 13.6079 10.4269C13.4105 9.95019 13.0761 9.54275 12.6472 9.25607C12.2182 8.96939 11.7139 8.81635 11.1979 8.81628C10.5062 8.81717 9.84313 9.09234 9.35403 9.58145C8.86492 10.0706 8.58975 10.7337 8.58887 11.4254ZM12.4729 11.4254C12.4728 11.6776 12.3979 11.9241 12.2578 12.1338C12.1176 12.3435 11.9184 12.5069 11.6853 12.6033C11.4523 12.6998 11.1959 12.725 10.9485 12.6757C10.7012 12.6265 10.474 12.5049 10.2957 12.3265C10.1174 12.1482 9.99596 11.9209 9.94682 11.6735C9.89768 11.4261 9.923 11.1697 10.0196 10.9367C10.1162 10.7037 10.2797 10.5046 10.4894 10.3645C10.6992 10.2245 10.9457 10.1497 11.1979 10.1498C11.536 10.1503 11.8602 10.2848 12.0992 10.524C12.3382 10.7631 12.4726 11.0873 12.4729 11.4254ZM20.2024 13.8404C19.8805 13.5187 19.4842 13.2813 19.0486 13.1493C18.613 13.0172 18.1516 12.9947 17.7052 13.0835C17.2589 13.1724 16.8413 13.37 16.4895 13.6587C16.1377 13.9475 15.8625 14.3186 15.6883 14.7391C15.5142 15.1596 15.4464 15.6166 15.491 16.0696C15.5356 16.5225 15.6912 16.9575 15.944 17.3359C16.1969 17.7144 16.5391 18.0247 16.9405 18.2393C17.3419 18.4539 17.79 18.5662 18.2451 18.5663C18.7472 18.5646 19.2392 18.425 19.6674 18.1628L20.8647 19.3601C20.9899 19.4839 21.1591 19.5531 21.3353 19.5526C21.5115 19.5521 21.6803 19.4819 21.8048 19.3574C21.9294 19.2328 21.9996 19.064 22.0001 18.8878C22.0006 18.7117 21.9313 18.5425 21.8075 18.4172L20.6102 17.22C20.9328 16.693 21.068 16.0727 20.994 15.4593C20.92 14.8459 20.6411 14.2755 20.2024 13.8404ZM19.2596 16.8122C18.9863 17.073 18.623 17.2185 18.2451 17.2185C17.8673 17.2185 17.504 17.073 17.2307 16.8122C17.0299 16.6115 16.8931 16.3558 16.8377 16.0774C16.7822 15.799 16.8106 15.5104 16.9192 15.2481C17.0278 14.9858 17.2117 14.7616 17.4478 14.6039C17.6838 14.4462 17.9613 14.362 18.2451 14.362C18.529 14.362 18.8065 14.4462 19.0425 14.6039C19.2785 14.7616 19.4625 14.9858 19.5711 15.2481C19.6797 15.5104 19.708 15.799 19.6526 16.0774C19.5972 16.3558 19.4604 16.6115 19.2596 16.8122Z" fill="#635BFF"/>
</svg>
