<svg width="24" height="24" viewBox="0 0 24 24" fill="none" xmlns="http://www.w3.org/2000/svg">
<rect width="24" height="24" fill="white"/>
<path fill-rule="evenodd" clip-rule="evenodd" d="M14.6026 2.43816C14.5522 2.31771 14.4742 2.21079 14.3748 2.12602C14.2755 2.04126 14.1577 1.98102 14.0308 1.95015C12.4769 1.57195 10.8549 1.57195 9.30097 1.95015C9.17413 1.98104 9.05632 2.0413 8.95704 2.12606C8.85775 2.21083 8.77977 2.31773 8.72937 2.43816L7.84997 4.54017C7.69817 4.62137 7.54857 4.70777 7.40196 4.79877C7.40236 4.79857 5.14235 4.50917 5.14235 4.50917C5.01284 4.49258 4.88123 4.50666 4.75815 4.55026C4.63507 4.59385 4.52395 4.66576 4.43375 4.76017C3.32922 5.91682 2.5182 7.32152 2.06874 8.85639C2.03203 8.98172 2.02531 9.11392 2.0491 9.24233C2.0729 9.37073 2.12656 9.49174 2.20574 9.59559L3.58635 11.408C3.58075 11.58 3.58075 11.7528 3.58635 11.9254C3.58635 11.925 2.20574 13.7374 2.20574 13.7374C2.12657 13.8413 2.07293 13.9623 2.04913 14.0907C2.02533 14.2191 2.03205 14.3513 2.06874 14.4766C2.51815 16.0115 3.32918 17.4162 4.43375 18.5728C4.52395 18.6672 4.63507 18.7392 4.75815 18.7828C4.88123 18.8263 5.01284 18.8404 5.14235 18.8238L7.40216 18.5344C7.54857 18.6252 7.69797 18.7116 7.85017 18.793L8.72937 20.8948C8.77977 21.0153 8.85775 21.1222 8.95704 21.2069C9.05632 21.2917 9.17413 21.352 9.30097 21.3829C10.8549 21.7611 12.4769 21.7611 14.0308 21.3829C14.1577 21.352 14.2755 21.2917 14.3748 21.207C14.4742 21.1222 14.5522 21.0153 14.6026 20.8948L15.4818 18.7928C15.6339 18.7115 15.7833 18.6253 15.9298 18.5342C15.9296 18.5344 18.1896 18.8238 18.1896 18.8238C18.3191 18.8404 18.4507 18.8263 18.5737 18.7827C18.6968 18.7391 18.8079 18.6672 18.898 18.5728C20.0026 17.4162 20.8136 16.0115 21.263 14.4766C21.2997 14.3513 21.3065 14.2191 21.2827 14.0907C21.2589 13.9623 21.2053 13.8413 21.1262 13.7374L19.7456 11.925C19.751 11.7526 19.751 11.5802 19.7456 11.4078L21.1262 9.59559C21.2053 9.4917 21.2589 9.37069 21.2827 9.24229C21.3065 9.11389 21.2997 8.98171 21.263 8.85639C20.8136 7.32152 20.0026 5.91682 18.898 4.76017C18.8079 4.66577 18.6968 4.59388 18.5737 4.55028C18.4507 4.50668 18.3191 4.4926 18.1896 4.50917L15.9296 4.79857C15.7831 4.70757 15.6337 4.62132 15.4816 4.53997L14.6026 2.43816ZM13.2324 3.48176L14.0622 5.46497C14.1405 5.65227 14.2845 5.80454 14.4672 5.89317C14.7439 6.02741 15.0106 6.18141 15.2652 6.35398C15.4332 6.46778 15.6372 6.51638 15.8384 6.49058L17.9708 6.21758C18.6598 7.01465 19.1914 7.93519 19.5372 8.93039C19.5374 8.93079 18.2348 10.641 18.2348 10.641C18.1117 10.8024 18.0518 11.0033 18.0664 11.2058C18.0886 11.5125 18.0886 11.8205 18.0664 12.1272C18.0518 12.3297 18.1117 12.5306 18.2348 12.692L19.5374 14.4022C19.1915 15.3974 18.6601 16.318 17.9712 17.1152C17.9708 17.1156 15.8384 16.8424 15.8384 16.8424C15.6371 16.8166 15.4332 16.8653 15.2652 16.9792C15.0105 17.1516 14.7438 17.3056 14.4672 17.44C14.2846 17.5286 14.1406 17.6808 14.0622 17.868L13.2324 19.8512C12.1976 20.0494 11.1346 20.0495 10.0998 19.8514C10.0994 19.8512 9.26977 17.868 9.26977 17.868C9.19138 17.6808 9.04738 17.5286 8.86477 17.44C8.58804 17.3057 8.32129 17.1517 8.06657 16.9792C7.89857 16.8653 7.69472 16.8166 7.49337 16.8424L5.36095 17.1156C4.67206 16.3185 4.14054 15.398 3.79455 14.4028C3.79435 14.4022 5.09715 12.692 5.09715 12.692C5.22019 12.5305 5.28 12.3297 5.26535 12.1272C5.24335 11.8205 5.24335 11.5125 5.26535 11.2058C5.28 11.0033 5.22019 10.8025 5.09715 10.641L3.79435 8.93079C4.1403 7.93561 4.67175 7.01503 5.36055 6.21778C5.36095 6.21758 7.49337 6.49058 7.49337 6.49058C7.69469 6.51638 7.89852 6.46781 8.06657 6.35398C8.3212 6.18137 8.58796 6.02737 8.86477 5.89317C9.04742 5.80454 9.19144 5.65227 9.26977 5.46497L10.0994 3.48176C11.1344 3.28376 12.1974 3.28376 13.232 3.48156L13.2324 3.48176ZM14.7692 10.448C15.2374 11.6444 14.9888 13.0576 14.023 14.0236C13.057 14.9894 11.6438 15.238 10.4474 14.7698C10.2416 14.6894 10.0122 14.694 9.80979 14.7825C9.60733 14.8711 9.44829 15.0363 9.36757 15.242C9.28714 15.4479 9.29171 15.6772 9.38029 15.8797C9.46887 16.0822 9.63421 16.2412 9.83998 16.3218C11.634 17.024 13.753 16.6504 15.2014 15.202C16.6498 13.7536 17.0234 11.6346 16.3212 9.84059C16.2406 9.63483 16.0816 9.46949 15.8791 9.38091C15.6766 9.29233 15.4472 9.28775 15.2414 9.36819C15.0357 9.44891 14.8704 9.60795 14.7819 9.81041C14.6934 10.0129 14.6888 10.2422 14.7692 10.448ZM8.56257 12.885C8.09437 11.6886 8.34297 10.2754 9.30897 9.30959C10.2748 8.34359 11.688 8.09499 12.8844 8.56319C13.0902 8.64369 13.3196 8.63917 13.522 8.55063C13.7245 8.46208 13.8836 8.29675 13.9642 8.09099C14.0446 7.88514 14.0401 7.65578 13.9515 7.45331C13.8629 7.25084 13.6976 7.09181 13.4918 7.01118C11.6978 6.30918 9.57878 6.68258 8.13037 8.13099C6.68196 9.57939 6.30856 11.6984 7.01056 13.4924C7.0912 13.6982 7.25022 13.8635 7.45269 13.9521C7.65517 14.0407 7.88452 14.0453 8.09037 13.9648C8.29613 13.8842 8.46146 13.7252 8.55001 13.5227C8.63856 13.3202 8.64307 13.0908 8.56257 12.885Z" fill="#635BFF"/>
</svg>
