<svg width="24" height="24" viewBox="0 0 24 24" fill="none" xmlns="http://www.w3.org/2000/svg">
<rect width="24" height="24" fill="white"/>
<path d="M10.0184 14.8077L8.09457 13.0784C7.62741 12.6729 7.01358 12.5473 6.45605 12.7001L5.41756 9.09373C5.13736 8.11973 4.03996 7.57937 3.09553 7.9576C2.39556 8.2379 1.95635 8.93175 2.00345 9.68381L2.52652 18.1157L5.19624 20.177L5.59409 21.9989H11.4034L10.9837 16.7598C10.9232 16.0062 10.5805 15.3127 10.0184 14.8077ZM6.54144 20.8226L6.25387 19.5076L3.66762 17.5107L3.17748 9.61067C3.16217 9.36637 3.305 9.14082 3.53245 9.04969C3.83596 8.92859 4.19634 9.10378 4.28719 9.41925C4.29279 9.43859 5.44131 13.4269 5.44131 13.4269C4.96706 14.1266 5.06241 15.094 5.65958 15.6911C5.66115 15.6926 7.35592 17.387 7.35592 17.387L8.18762 16.5553L6.49128 14.859C6.2565 14.625 6.26023 14.2175 6.50023 13.9869C6.72883 13.7673 7.08294 13.7577 7.31571 13.9599L9.23185 15.6823C9.5692 15.9855 9.77483 16.4018 9.81121 16.854L10.129 20.8226H6.54144ZM20.8933 7.95454C19.967 7.59187 18.8531 8.1358 18.5774 9.09373C18.5764 9.09751 17.8834 11.5054 17.5346 12.7175C16.9664 12.5693 16.3377 12.6859 15.8935 13.0861L13.9827 14.8084C13.4156 15.3158 13.071 16.0097 13.0124 16.7602L12.5927 21.9989H18.4005L18.801 20.177L21.4708 18.1134L21.6278 15.5256L20.4537 15.4544L20.3289 17.5092L17.7442 19.5076L17.4547 20.8226H13.8671L14.1849 16.8529C14.2201 16.4044 14.4265 15.9897 14.7685 15.6838C16.5667 14.0629 16.6839 13.9572 16.6839 13.9572C16.8952 13.7665 17.2785 13.7826 17.4949 13.9836C17.742 14.223 17.7485 14.6176 17.5037 14.8624C17.4993 14.8668 15.81 16.5561 15.81 16.5561L16.6417 17.3878L18.3354 15.6941C18.9409 15.0887 19.0193 14.1171 18.5546 13.4264C18.8321 12.4618 19.7082 9.41807 19.7082 9.41807C19.7945 9.11752 20.1667 8.93334 20.4586 9.04735C20.6881 9.14045 20.8378 9.37211 20.8225 9.61183L20.6812 11.9331L21.8552 12.0043L21.9965 9.68458C22.044 8.93711 21.604 8.24287 20.8933 7.95454Z" fill="#635BFF"/>
<path d="M20.5312 14.282L21.7076 14.3526L21.7774 13.1841L20.601 13.1057L20.5312 14.282Z" fill="#635BFF"/>
<path d="M11.5311 6.31434H13.7624V5.138H12.5861V3.96167H11.4097V5.15025C10.7517 5.21253 10.2334 5.76158 10.2334 6.43572C10.2334 7.02235 10.6293 7.53814 11.1968 7.68978L12.4953 8.03594C12.5489 8.05012 12.5861 8.09836 12.5861 8.1535C12.5861 8.22051 12.5317 8.27489 12.4647 8.27489H10.2334V9.45122H11.4097V10.6276H12.5861V9.43897C13.2441 9.3767 13.7624 8.82764 13.7624 8.15351C13.7624 7.56687 13.3665 7.05108 12.799 6.89944L11.5005 6.55328C11.4469 6.53911 11.4097 6.49086 11.4097 6.43572C11.4097 6.36871 11.4641 6.31434 11.5311 6.31434Z" fill="#635BFF"/>
<path d="M17.2553 7.89399L17.8561 8.49479L18.6878 7.66308L16.7035 5.67879L14.7193 7.66308L15.551 8.49479L16.0439 8.00187C15.7064 9.93485 14.0264 11.4119 11.9982 11.4119C10.5883 11.4119 9.29327 10.7016 8.53394 9.51145L7.54217 10.144C8.51901 11.6746 10.1847 12.5882 11.9982 12.5882C14.7144 12.5882 16.9564 10.5315 17.2553 7.89399ZM9.27719 6.92634L8.44548 6.09464L7.95257 6.58755C8.29002 4.65457 9.97003 3.17755 11.9982 3.17755C13.4081 3.17755 14.7032 3.88787 15.4625 5.07799L16.4543 4.4454C15.4774 2.91487 13.8117 2.00122 11.9982 2.00122C9.28207 2.00122 7.04002 4.05794 6.74111 6.69545L6.1403 6.09465L5.30859 6.92634L7.29289 8.91064L9.27719 6.92634Z" fill="#635BFF"/>
</svg>
