<svg width="24" height="24" viewBox="0 0 24 24" fill="none" xmlns="http://www.w3.org/2000/svg">
<rect width="24" height="24" fill="white"/>
<path d="M18.2754 16.4147L14.8269 13.0108C14.5772 12.7644 14.176 12.7644 13.9263 13.0108L13.2933 13.6356L12.3096 12.6714C13.9692 10.5673 13.772 7.46717 11.8779 5.57922C9.78376 3.49182 6.37624 3.49182 4.28213 5.57922C2.68919 7.16699 2.25893 9.60054 3.21145 11.6348L4.37243 11.0911C3.64846 9.54482 3.97581 7.69464 5.18713 6.48725C6.7823 4.89725 9.37778 4.89729 10.9729 6.48725C12.5477 8.05704 12.5478 10.6785 10.9729 12.2484C10.6973 12.5235 10.3838 12.7579 10.042 12.9444L10.6554 14.0702C10.9176 13.927 11.1674 13.762 11.4021 13.5771L12.3808 14.5364L11.8294 15.0806C11.5786 15.3281 11.5786 15.7456 11.8294 15.9931L15.2779 19.397C16.0943 20.2028 17.4589 20.2028 18.2754 19.397C19.0971 18.586 19.0972 17.2258 18.2754 16.4147ZM17.3749 18.4845C17.0451 18.81 16.5083 18.8101 16.1785 18.4845L13.1922 15.5368L14.3766 14.3677L17.3749 17.3272C17.6938 17.6419 17.6938 18.1696 17.3749 18.4845C17.532 18.3294 17.0451 18.81 17.3749 18.4845Z" fill="#635BFF"/>
<path d="M5.88872 16.6573V18.9659H7.17077V16.6695C8.45282 16.3877 9.42466 15.2413 9.42466 13.8733C9.42466 12.2945 8.13936 11.01 6.55855 11.01C4.97774 11.01 3.69043 12.2945 3.69043 13.8733C3.69043 15.2225 4.6494 16.356 5.88872 16.6573ZM6.55932 12.292C7.43325 12.292 8.14423 13.0013 8.14423 13.8732C8.14423 14.7451 7.43325 15.4544 6.55932 15.4544C5.68539 15.4544 4.9744 14.7451 4.9744 13.8732C4.9744 13.0013 5.68543 12.292 6.55932 12.292Z" fill="#635BFF"/>
<path d="M10.1796 16.3898L9.1553 17.164C9.58863 17.7361 9.82051 18.4214 9.82051 19.1458V20.6721C9.82051 20.6829 9.81432 20.7179 9.78765 20.7179H3.33132C3.30603 20.7179 3.28205 20.6974 3.28205 20.6721V19.1458C3.28262 18.3759 3.55402 17.6307 4.04872 17.0408L3.06598 16.2164C2.37915 17.0346 2 18.0749 2 19.1458V20.6721C2 21.4043 2.59915 22 3.33132 22H9.78769C10.5104 22 11.1026 21.4043 11.1026 20.6721V19.1458C11.1026 18.1396 10.7832 17.1865 10.1796 16.3898ZM18.1839 7.22491C16.7416 7.22491 15.5682 6.05299 15.5682 4.61248C15.5682 3.17197 16.7416 2 18.1839 2C19.6262 2 20.7996 3.17192 20.7996 4.61244C20.7996 6.05295 19.6262 7.22491 18.1839 7.22491ZM18.1839 3.28205C17.4485 3.28205 16.8502 3.87885 16.8502 4.61244C16.8502 5.34603 17.4485 5.94282 18.1839 5.94282C18.9194 5.94282 19.5177 5.34603 19.5177 4.61244C19.5177 3.87885 18.9194 3.28205 18.1839 3.28205Z" fill="#635BFF"/>
<path d="M20.7216 11.4445H15.6466C14.9404 11.4445 14.3506 10.8681 14.3506 10.1665V8.9086C14.3506 8.16266 14.5745 7.44031 14.9837 6.81958L16.0502 7.52522C15.7795 7.93586 15.6326 8.41424 15.6326 8.9086V10.1566L20.7181 10.157V8.9086C20.7181 8.41415 20.5757 7.93573 20.3051 7.52505L21.3753 6.81962C21.7843 7.44026 22.0002 8.16266 22.0002 8.9086V10.1665C22.0002 10.8681 21.4272 11.4445 20.7216 11.4445Z" fill="#635BFF"/>
</svg>
