<svg width="24" height="24" viewBox="0 0 24 24" fill="none" xmlns="http://www.w3.org/2000/svg">
<rect width="24" height="24" fill="white"/>
<path d="M13.8499 13.6663C14.1755 13.308 14.3901 12.8628 14.4676 12.3848C14.545 11.9069 14.4819 11.4167 14.286 10.9739C14.0901 10.5311 13.7698 10.1548 13.364 9.89058C12.9583 9.6264 12.4845 9.48576 12.0003 9.48576C11.5161 9.48576 11.0424 9.6264 10.6366 9.89058C10.2308 10.1548 9.91053 10.5311 9.71463 10.9739C9.51873 11.4167 9.45566 11.9069 9.53309 12.3848C9.61051 12.8628 9.8251 13.308 10.1508 13.6663C9.18856 13.7134 8.2814 14.1291 7.61747 14.8271C6.95355 15.5252 6.58381 16.452 6.58496 17.4154V21.581C6.58496 21.6915 6.62885 21.7975 6.70697 21.8756C6.78509 21.9537 6.89105 21.9976 7.00153 21.9976H16.9991C17.1096 21.9976 17.2155 21.9537 17.2937 21.8756C17.3718 21.7975 17.4157 21.6915 17.4157 21.581V17.4154C17.4168 16.452 17.0471 15.5252 16.3832 14.8271C15.7192 14.1291 14.8121 13.7134 13.8499 13.6663ZM12.0003 18.3485L12.7168 21.1645H11.2838C12.0378 18.1444 12.0711 18.2485 11.9295 18.0194L11.3005 17.0738L12.0003 16.6572L12.7002 17.0738C12.0711 18.0194 11.9503 18.1069 12.0003 18.3485ZM10.6257 15.1117L11.3755 16.0532L10.4382 16.6197L10.6257 15.1117ZM12.6252 16.0532L13.375 15.1117L13.5624 16.6197L12.6252 16.0532ZM12.0003 15.4992L11.2005 14.4994H12.8001L12.0003 15.4992ZM12.0003 10.3337C12.3299 10.3337 12.652 10.4315 12.926 10.6146C13.2001 10.7976 13.4136 11.0579 13.5397 11.3623C13.6659 11.6668 13.6989 12.0018 13.6346 12.3251C13.5703 12.6483 13.4116 12.9452 13.1785 13.1782C12.9455 13.4113 12.6486 13.57 12.3254 13.6342C12.0022 13.6985 11.6671 13.6655 11.3627 13.5394C11.0582 13.4133 10.798 13.1997 10.6149 12.9257C10.4318 12.6517 10.3341 12.3296 10.3341 12C10.3341 11.5581 10.5096 11.1343 10.8221 10.8218C11.1346 10.5093 11.5584 10.3337 12.0003 10.3337ZM7.4181 17.4154C7.41858 16.7254 7.6637 16.058 8.10989 15.5317C8.55607 15.0054 9.17442 14.6544 9.85501 14.5411L9.50093 17.3654C9.49382 17.4241 9.49932 17.4837 9.51705 17.5402C9.53478 17.5966 9.56433 17.6487 9.60375 17.6928C9.64316 17.737 9.69153 17.7722 9.74563 17.7962C9.79973 17.8202 9.85831 17.8324 9.91749 17.8319C10.0716 17.8319 10.1216 17.7778 10.584 17.5028L11.1339 18.336L10.4257 21.1645H9.50093V18.2485C9.50093 18.138 9.45704 18.0321 9.37892 17.9539C9.3008 17.8758 9.19484 17.8319 9.08436 17.8319C8.97388 17.8319 8.86792 17.8758 8.7898 17.9539C8.71168 18.0321 8.66779 18.138 8.66779 18.2485V21.1645H7.4181V17.4154ZM16.5825 21.1645H15.3328V18.2485C15.3328 18.138 15.289 18.0321 15.2108 17.9539C15.1327 17.8758 15.0268 17.8319 14.9163 17.8319C14.8058 17.8319 14.6998 17.8758 14.6217 17.9539C14.5436 18.0321 14.4997 18.138 14.4997 18.2485V21.1645H13.5749L12.8668 18.3276L13.4166 17.4945C13.8749 17.7694 13.929 17.8236 14.0832 17.8236C14.1423 17.824 14.2009 17.8118 14.255 17.7878C14.3091 17.7639 14.3575 17.7286 14.3969 17.6845C14.4363 17.6403 14.4659 17.5883 14.4836 17.5318C14.5013 17.4754 14.5068 17.4158 14.4997 17.357L14.1498 14.5327C14.831 14.6472 15.4495 14.9998 15.895 15.5277C16.3406 16.0556 16.5842 16.7246 16.5825 17.4154V21.1645ZM10.3341 5.33494V8.25091C10.3341 8.36139 10.3779 8.46734 10.4561 8.54546C10.5342 8.62358 10.6401 8.66747 10.7506 8.66747H13.25C13.3605 8.66747 13.4665 8.62358 13.5446 8.54546C13.6227 8.46734 13.6666 8.36139 13.6666 8.25091V5.33494H14.4997C14.5825 5.33542 14.6635 5.31125 14.7324 5.26552C14.8014 5.21978 14.8551 5.15454 14.8869 5.07812C14.9186 5.00171 14.9268 4.91757 14.9106 4.83645C14.8943 4.75532 14.8542 4.68088 14.7955 4.62262L12.2961 2.12322C12.2574 2.08418 12.2113 2.05319 12.1605 2.03204C12.1098 2.01089 12.0553 2 12.0003 2C11.9453 2 11.8909 2.01089 11.8401 2.03204C11.7894 2.05319 11.7433 2.08418 11.7046 2.12322C9.01354 4.8184 8.97189 4.72676 9.11769 5.07667C9.26348 5.42659 9.50093 5.33494 10.3341 5.33494ZM12.0003 3.00634L13.4958 4.50181H13.25C13.1395 4.50181 13.0336 4.5457 12.9555 4.62382C12.8773 4.70194 12.8335 4.8079 12.8335 4.91838V7.83434H11.1672V4.91838C11.1672 4.8079 11.1233 4.70194 11.0452 4.62382C10.9671 4.5457 10.8611 4.50181 10.7506 4.50181H10.5048L12.0003 3.00634Z" fill="#635BFF"/>
<path d="M8.66747 12.4166V9.91718C8.66747 9.8067 8.62358 9.70075 8.54546 9.62263C8.46734 9.5445 8.36139 9.50062 8.25091 9.50062H5.33494V8.66748C5.33453 8.58524 5.30979 8.50497 5.26383 8.43676C5.21787 8.36856 5.15275 8.31549 5.07667 8.28424C4.73092 8.13845 4.82673 8.17177 2.12322 10.8711C2.08418 10.9098 2.05319 10.9559 2.03204 11.0067C2.01089 11.0574 2 11.1119 2 11.1669C2 11.2219 2.01089 11.2763 2.03204 11.3271C2.05319 11.3778 2.08418 11.4239 2.12322 11.4626C4.79341 14.1287 4.72676 14.1953 5.07667 14.0495C5.42659 13.9037 5.33494 13.6663 5.33494 12.8331H8.25091C8.36139 12.8331 8.46734 12.7893 8.54546 12.7111C8.62358 12.633 8.66747 12.5271 8.66747 12.4166ZM7.83434 12H4.91838C4.8079 12 4.70194 12.0439 4.62382 12.122C4.5457 12.2001 4.50181 12.3061 4.50181 12.4166V12.6624L3.00634 11.1669L4.50181 9.67141V9.91718C4.50181 10.0277 4.5457 10.1336 4.62382 10.2117C4.70194 10.2899 4.8079 10.3337 4.91838 10.3337H7.83434V12ZM21.8768 10.8711C19.2066 8.2051 19.2732 8.13428 18.9233 8.28424C18.5734 8.43421 18.6651 8.66748 18.6651 9.50062H15.7491C15.6386 9.50062 15.5327 9.5445 15.4545 9.62263C15.3764 9.70075 15.3325 9.8067 15.3325 9.91718V12.4166C15.3325 12.5271 15.3764 12.633 15.4545 12.7111C15.5327 12.7893 15.6386 12.8331 15.7491 12.8331H18.6651V13.6663C18.6646 13.749 18.6887 13.83 18.7345 13.899C18.7802 13.9679 18.8455 14.0217 18.9219 14.0534C18.9983 14.0852 19.0824 14.0934 19.1636 14.0771C19.2447 14.0609 19.3191 14.0208 19.3774 13.962L21.8768 11.4626C21.9158 11.4239 21.9468 11.3778 21.968 11.3271C21.9891 11.2763 22 11.2219 22 11.1669C22 11.1119 21.9891 11.0574 21.968 11.0067C21.9468 10.9559 21.9158 10.9098 21.8768 10.8711ZM19.0816 12H16.1657V10.3337H19.0816C19.1921 10.3337 19.2981 10.2899 19.3762 10.2117C19.4543 10.1336 19.4982 10.0277 19.4982 9.91718V9.67141L20.9937 11.1669L19.4982 12.6624V12.4166C19.4982 12.3061 19.4543 12.2001 19.3762 12.122C19.2981 12.0439 19.1921 12 19.0816 12Z" fill="#635BFF"/>
</svg>
