<svg width="24" height="24" viewBox="0 0 24 24" fill="none" xmlns="http://www.w3.org/2000/svg">
<rect width="24" height="24" fill="white"/>
<path d="M21.7903 11.4949L20.3617 10.0663C20.0824 9.78706 19.631 9.78706 19.3517 10.0663C19.0724 10.3456 19.0724 10.797 19.3517 11.0763L19.561 11.2856H14.1425V10.5713C14.1425 10.1771 13.8232 9.85706 13.4282 9.85706H11.1632C10.9475 9.24992 10.464 8.76992 9.85681 8.55421V8.4285C9.85681 8.03422 9.53753 7.71422 9.14253 7.71422C8.74754 7.71422 8.42825 8.03422 8.42825 8.4285V8.55993C7.59898 8.85564 6.9997 9.64134 6.9997 10.5713C6.9997 11.7528 7.96112 12.7142 9.14253 12.7142C9.53682 12.7142 9.85681 13.0349 9.85681 13.4285C9.85681 13.822 9.53682 14.1427 9.14253 14.1427C8.74825 14.1427 8.42825 13.822 8.42825 13.4285C8.42825 13.0342 8.10897 12.7142 7.71397 12.7142H5.57114V4.8571C5.57114 4.46282 5.25185 4.14282 4.85686 4.14282C4.46186 4.14282 4.14258 4.46282 4.14258 4.8571V13.4285C4.14258 13.8227 4.46186 14.1427 4.85686 14.1427H7.13112C7.34684 14.7477 7.82326 15.2242 8.42825 15.4399V15.5713C8.42825 15.9656 8.74754 16.2856 9.14253 16.2856C9.53753 16.2856 9.85681 15.9656 9.85681 15.5713V15.4399C10.6861 15.1442 11.2854 14.3584 11.2854 13.4285C11.2854 12.247 10.324 11.2856 9.14253 11.2856C8.74825 11.2856 8.42825 10.9649 8.42825 10.5713C8.42825 10.1778 8.74825 9.85706 9.14253 9.85706C9.53682 9.85706 9.85681 10.1778 9.85681 10.5713C9.85681 10.9656 10.1761 11.2856 10.5711 11.2856H12.7139V11.9999C12.7139 12.3942 13.0332 12.7142 13.4282 12.7142H19.561L19.3517 12.9235C19.0724 13.2027 19.0724 13.6542 19.3517 13.9334C19.491 14.0727 19.6739 14.1427 19.8567 14.1427C20.0396 14.1427 20.2224 14.0727 20.3617 13.9334L21.7903 12.5049C22.0696 12.2256 22.0696 11.7742 21.7903 11.4949Z" fill="#635BFF"/>
<path d="M15.5713 13.4285C15.1763 13.4285 14.857 13.7485 14.857 14.1427V20.5713H3.42856V3.42856H14.857V9.85707C14.857 10.2514 15.1763 10.5714 15.5713 10.5714C15.9663 10.5714 16.2856 10.2514 16.2856 9.85707V2.71428C16.2856 2.32 15.9663 2 15.5713 2H2.71428C2.31928 2 2 2.32 2 2.71428V21.2855C2 21.6798 2.31928 21.9998 2.71428 21.9998H15.5713C15.9663 21.9998 16.2856 21.6798 16.2856 21.2855V14.1427C16.2856 13.7485 15.9663 13.4285 15.5713 13.4285Z" fill="#635BFF"/>
</svg>
