<svg width="30" height="30" viewBox="0 0 30 30" fill="none" xmlns="http://www.w3.org/2000/svg">
<path d="M21.4286 7.85715H8.57143C7.62423 7.85715 6.71582 8.23342 6.04605 8.90319C5.37627 9.57297 5 10.4814 5 11.4286V18.5714C5 19.5186 5.37627 20.427 6.04605 21.0968C6.71582 21.7666 7.62423 22.1429 8.57143 22.1429H21.4286C22.3758 22.1429 23.2842 21.7666 23.954 21.0968C24.6237 20.427 25 19.5186 25 18.5714V11.4286C25 10.4814 24.6237 9.57297 23.954 8.90319C23.2842 8.23342 22.3758 7.85715 21.4286 7.85715ZM8.57143 9.28572H21.4286C21.9969 9.28572 22.5419 9.51148 22.9438 9.91335C23.3457 10.3152 23.5714 10.8603 23.5714 11.4286V12.1429H6.42857V11.4286C6.42857 10.8603 6.65434 10.3152 7.0562 9.91335C7.45806 9.51148 8.00311 9.28572 8.57143 9.28572ZM21.4286 20.7143H8.57143C8.00311 20.7143 7.45806 20.4885 7.0562 20.0867C6.65434 19.6848 6.42857 19.1398 6.42857 18.5714V13.5714H23.5714V18.5714C23.5714 19.1398 23.3457 19.6848 22.9438 20.0867C22.5419 20.4885 21.9969 20.7143 21.4286 20.7143Z" fill="#635BFF"/>
<path d="M21.4286 17.8571H18.5715C18.382 17.8571 18.2003 17.9324 18.0664 18.0664C17.9324 18.2003 17.8572 18.382 17.8572 18.5714C17.8572 18.7609 17.9324 18.9426 18.0664 19.0765C18.2003 19.2105 18.382 19.2857 18.5715 19.2857H21.4286C21.618 19.2857 21.7997 19.2105 21.9337 19.0765C22.0676 18.9426 22.1429 18.7609 22.1429 18.5714C22.1429 18.382 22.0676 18.2003 21.9337 18.0664C21.7997 17.9324 21.618 17.8571 21.4286 17.8571Z" fill="#635BFF"/>
</svg>
