<svg width="30" height="30" viewBox="0 0 30 30" fill="none" xmlns="http://www.w3.org/2000/svg">
<path d="M24.0632 20.5591L23.1515 19.6474L16.3918 12.8876C16.2974 12.7934 16.1793 12.7265 16.0499 12.6943L12.3178 11.7612C12.1947 11.7305 12.0656 11.7322 11.9433 11.7662C11.821 11.8001 11.7096 11.8652 11.6199 11.955C11.5301 12.0448 11.4652 12.1563 11.4313 12.2786C11.3975 12.4009 11.3959 12.5299 11.4267 12.6531L12.3605 16.3851C12.3928 16.5143 12.4593 16.6325 12.5531 16.727L20.2246 24.3978C20.4153 24.5887 20.6417 24.7401 20.891 24.8435C21.1403 24.9468 21.4075 25 21.6774 25C21.9472 25 22.2145 24.9468 22.4637 24.8435C22.713 24.7401 22.9395 24.5887 23.1302 24.3978L24.0632 23.4648C24.4476 23.0789 24.6633 22.5565 24.6633 22.0119C24.6633 21.4673 24.4476 20.9449 24.0632 20.5591ZM13.1486 13.4839L15.494 14.0721L21.5914 20.1687L19.8319 21.9259L13.7361 15.8293L13.1486 13.4839ZM23.0236 22.4259L22.0906 23.3589C21.9793 23.4651 21.8313 23.5244 21.6774 23.5244C21.5235 23.5244 21.3755 23.4651 21.2642 23.3589L20.8716 22.9663L22.631 21.2068L23.0236 21.5995C23.132 21.7095 23.1928 21.8578 23.1928 22.0123C23.1928 22.1668 23.132 22.3158 23.0236 22.4259ZM16.9211 23.478H6.47047V6.47121H14.2927V9.95256C14.2927 10.1476 14.3701 10.3346 14.508 10.4724C14.6459 10.6103 14.8329 10.6878 15.0279 10.6878H18.5085V12.6171C18.5085 12.8121 18.586 12.9991 18.7239 13.1369C18.8617 13.2748 19.0488 13.3523 19.2438 13.3523C19.4387 13.3523 19.6258 13.2748 19.7636 13.1369C19.9015 12.9991 19.979 12.8121 19.979 12.6171V9.96653C19.979 9.96138 19.979 9.95771 19.979 9.95256C19.9787 9.85252 19.9578 9.75361 19.9176 9.66202C19.8774 9.57043 19.8187 9.48812 19.7452 9.42025L15.5492 5.21616C15.485 5.15435 15.4103 5.10454 15.3286 5.06911C15.3227 5.06911 15.3183 5.06102 15.3124 5.05882C15.2222 5.02055 15.1252 5.00056 15.0272 5H5.73524C5.54024 5 5.35323 5.07746 5.21535 5.21535C5.07746 5.35323 5 5.54024 5 5.73524V24.2118C5 24.4067 5.07746 24.5938 5.21535 24.7316C5.35323 24.8695 5.54024 24.947 5.73524 24.947H16.9182C17.1132 24.947 17.3002 24.8695 17.4381 24.7316C17.576 24.5938 17.6534 24.4067 17.6534 24.2118C17.6534 24.0168 17.576 23.8297 17.4381 23.6919C17.3002 23.554 17.1132 23.4765 16.9182 23.4765L16.9211 23.478ZM15.7631 7.51231L17.4652 9.21732H15.7631V7.51231Z" fill="#635BFF"/>
</svg>
