<svg width="48" height="48" viewBox="0 0 48 48" fill="none" xmlns="http://www.w3.org/2000/svg">
<circle cx="24" cy="24" r="24" fill="#F6F9FC"/>
<path d="M29.5171 17.465L25.4545 17.465C25.4545 17.465 25.3658 17.4636 25.2924 17.4469C24.8844 17.3538 24.6175 16.857 24.7825 16.4592C24.8807 16.2207 25.1149 16.0439 25.3731 16.0149C25.4087 16.0105 25.4182 16.0112 25.4545 16.0105L31.2727 16.0105C31.2865 16.0105 31.2996 16.0112 31.3135 16.0112C31.3498 16.0141 31.3585 16.0141 31.3942 16.0207C31.7018 16.0723 31.96 16.3399 31.9956 16.6563C31.9993 16.6919 31.9993 16.7014 32 16.7378L32 22.5559C31.9862 23.0367 31.4596 23.4207 30.9942 23.2279C30.7564 23.129 30.5789 22.8949 30.5498 22.6374C30.5462 22.601 30.5462 22.5923 30.5455 22.5559L30.5455 18.4934L17.2407 31.7981C17.1985 31.8316 17.1593 31.8709 17.1135 31.8992C16.7491 32.1283 16.1935 31.9618 16.04 31.5239C15.968 31.3174 15.9942 31.0818 16.1105 30.897C16.1396 30.8505 16.1782 30.8119 16.2124 30.769L29.5171 17.465Z" fill="url(#paint0_linear_1_251)"/>
<defs>
<linearGradient id="paint0_linear_1_251" x1="32" y1="32.002" x2="16" y2="32.002" gradientUnits="userSpaceOnUse">
<stop stop-color="#00DDFF"/>
<stop offset="1" stop-color="#FF00D4"/>
</linearGradient>
</defs>
</svg>
