<svg width="30" height="30" viewBox="0 0 30 30" fill="none" xmlns="http://www.w3.org/2000/svg">
<path d="M14.1667 23.3333C9.1125 23.3333 5 19.2208 5 14.1667C5 9.1125 9.1125 5 14.1667 5C19.2208 5 23.3333 9.1125 23.3333 14.1667C23.3333 19.2208 19.2208 23.3333 14.1667 23.3333ZM14.1667 6.66667C10.0317 6.66667 6.66667 10.0308 6.66667 14.1667C6.66667 18.3025 10.0317 21.6667 14.1667 21.6667C18.3017 21.6667 21.6667 18.3025 21.6667 14.1667C21.6667 10.0308 18.3017 6.66667 14.1667 6.66667Z" fill="#635BFF"/>
<path d="M24.1663 24.9997C24.0569 24.9998 23.9485 24.9783 23.8474 24.9364C23.7463 24.8945 23.6544 24.833 23.5772 24.7555L19.5813 20.7597C19.4251 20.6033 19.3373 20.3913 19.3374 20.1702C19.3375 19.9492 19.4254 19.7372 19.5817 19.581C19.7381 19.4247 19.9501 19.337 20.1712 19.337C20.3923 19.3371 20.6042 19.425 20.7605 19.5814L24.7555 23.5772C24.8724 23.6936 24.9521 23.8421 24.9845 24.0039C25.0168 24.1656 25.0004 24.3334 24.9373 24.4858C24.8742 24.6382 24.7672 24.7684 24.6299 24.8599C24.4927 24.9514 24.3313 25.0001 24.1663 24.9997Z" fill="#635BFF"/>
</svg>
