<svg width="24" height="24" viewBox="0 0 24 24" fill="none" xmlns="http://www.w3.org/2000/svg">
<rect width="24" height="24" fill="white"/>
<path d="M21.1932 21.9998H2.84926C2.38217 21.9998 2 21.6176 2 21.1505V12.2758C2 11.8087 2.38217 11.4265 2.84926 11.4265H21.1507C21.6178 11.4265 22 11.8087 22 12.2758V21.1505C22 21.6176 21.6178 21.9998 21.1932 21.9998ZM3.69851 20.3437H20.3439V13.125H3.69851V20.3437Z" fill="#635BFF"/>
<path d="M10.9604 13.1251H5.86488C5.39779 13.1251 5.01562 12.7429 5.01562 12.2758V8.75142C5.01562 8.28433 5.39779 7.90216 5.86488 7.90216H10.9604C11.4275 7.90216 11.8097 8.28433 11.8097 8.75142V12.2758C11.8097 12.7429 11.4275 13.1251 10.9604 13.1251ZM6.71414 11.4266H10.1536V9.55821H6.71414V11.4266Z" fill="#635BFF"/>
<path d="M12.0216 9.55845H4.84535C4.37826 9.55845 3.99609 9.17628 3.99609 8.70919C3.99609 8.2421 4.37826 7.85993 4.84535 7.85993H12.0216C12.4887 7.85993 12.8708 8.2421 12.8708 8.70919C12.8708 9.17628 12.4887 9.55845 12.0216 9.55845ZM19.6649 13.1253H15.8432C15.3761 13.1253 14.994 12.7432 14.994 12.2761V2.84932C14.994 2.38223 15.3761 2.00006 15.8432 2.00006H19.6649C20.132 2.00006 20.5141 2.38223 20.5141 2.84932V12.2761C20.5141 12.7432 20.132 13.1253 19.6649 13.1253ZM16.65 11.4268H18.8156V3.69857H16.65V11.4268ZM7.3082 18.0935C6.8411 18.0935 6.45894 17.7113 6.45894 17.2442V15.8854C6.45894 15.4183 6.8411 15.0362 7.3082 15.0362C7.77529 15.0362 8.15745 15.4183 8.15745 15.8854V17.2442C8.11499 17.7538 7.77529 18.0935 7.3082 18.0935ZM12.0216 18.0935C11.5545 18.0935 11.1723 17.7113 11.1723 17.2442V15.8854C11.1723 15.4183 11.5545 15.0362 12.0216 15.0362C12.4887 15.0362 12.8708 15.4183 12.8708 15.8854V17.2442C12.8708 17.7538 12.4887 18.0935 12.0216 18.0935ZM16.7349 18.0935C16.2679 18.0935 15.8857 17.7113 15.8857 17.2442V15.8854C15.8857 15.4183 16.2679 15.0362 16.7349 15.0362C17.202 15.0362 17.5842 15.4183 17.5842 15.8854V17.2442C17.5842 17.7538 17.202 18.0935 16.7349 18.0935Z" fill="#635BFF"/>
</svg>
