<svg width="30" height="30" viewBox="0 0 30 30" fill="none" xmlns="http://www.w3.org/2000/svg">
<path fill-rule="evenodd" clip-rule="evenodd" d="M23.5281 10.3455L22.9057 9.26545C22.3791 8.35153 21.2121 8.03624 20.297 8.56064C19.8613 8.81727 19.3415 8.89008 18.8521 8.76301C18.3628 8.63594 17.944 8.31944 17.6883 7.8833C17.5237 7.60607 17.4353 7.29032 17.432 6.96796C17.4468 6.45115 17.2518 5.95033 16.8915 5.57959C16.5311 5.20886 16.036 4.99979 15.5189 5H14.2649C13.7584 5 13.2727 5.20184 12.9154 5.56087C12.5581 5.9199 12.3586 6.40652 12.361 6.91304C12.346 7.95885 11.4939 8.79874 10.448 8.79863C10.1256 8.79528 9.80989 8.70687 9.53267 8.54233C8.6175 8.01794 7.45055 8.33322 6.92397 9.24714L6.25578 10.3455C5.72985 11.2583 6.04084 12.4245 6.95143 12.9542C7.54334 13.296 7.90797 13.9275 7.90797 14.611C7.90797 15.2945 7.54334 15.926 6.95143 16.2677C6.04199 16.7939 5.73066 17.9573 6.25578 18.8673L6.88736 19.9565C7.13408 20.4017 7.54804 20.7302 8.03763 20.8694C8.52722 21.0085 9.05208 20.9468 9.49606 20.6979C9.93252 20.4433 10.4526 20.3735 10.9408 20.5041C11.4289 20.6348 11.8447 20.955 12.0956 21.3936C12.2601 21.6708 12.3485 21.9866 12.3519 22.3089C12.3519 23.3655 13.2084 24.222 14.2649 24.222H15.5189C16.5719 24.222 17.4269 23.371 17.432 22.3181C17.4295 21.81 17.6303 21.3219 17.9896 20.9626C18.3489 20.6034 18.8369 20.4026 19.345 20.405C19.6666 20.4136 19.9811 20.5017 20.2604 20.6613C21.1731 21.1873 22.3393 20.8763 22.8691 19.9657L23.5281 18.8673C23.7832 18.4294 23.8532 17.9079 23.7226 17.4183C23.5921 16.9287 23.2717 16.5113 22.8324 16.2586C22.3932 16.0059 22.0728 15.5885 21.9422 15.0989C21.8117 14.6092 21.8817 14.0877 22.1368 13.6499C22.3027 13.3603 22.5428 13.1201 22.8324 12.9542C23.7376 12.4248 24.0478 11.2654 23.5281 10.3547V10.3455Z" stroke="#635BFF" stroke-width="1.5" stroke-linecap="round" stroke-linejoin="round"/>
<path d="M14.8958 17.247C16.3516 17.247 17.5318 16.0668 17.5318 14.611C17.5318 13.1552 16.3516 11.975 14.8958 11.975C13.4399 11.975 12.2598 13.1552 12.2598 14.611C12.2598 16.0668 13.4399 17.247 14.8958 17.247Z" stroke="#635BFF" stroke-width="1.5" stroke-linecap="round" stroke-linejoin="round"/>
</svg>
