<svg width="30" height="30" viewBox="0 0 30 30" fill="none" xmlns="http://www.w3.org/2000/svg">
<path d="M16.3926 5.11897C15.979 5.18515 15.3834 5.38367 15.0691 5.53256C14.4073 5.86343 5.57317 14.5818 5.22576 15.2435C4.91144 15.8556 4.92798 17.1957 5.25885 17.692C5.65589 18.3041 11.2476 23.9288 12.0086 24.4913C12.9184 25.1696 14.1096 25.1696 15.0195 24.4913C15.3669 24.2266 17.6002 22.0594 19.9825 19.6606C23.6055 15.988 24.3499 15.1608 24.6146 14.466C24.8959 13.7546 24.9289 13.1756 24.9289 10.1316C24.9289 6.85603 24.9124 6.60788 24.5815 6.17775C23.7709 5.06934 23.622 5.03626 20.2472 5.00317C18.5432 4.98663 16.8061 5.03626 16.3926 5.11897ZM22.9934 6.97183C23.1257 7.10418 23.1919 8.0637 23.1919 10.2309C23.1919 12.9275 23.1588 13.3576 22.861 13.9531C22.4474 14.8299 13.9607 23.3167 13.514 23.3167C13.0839 23.3167 6.64849 16.8813 6.64849 16.4512C6.64849 16.0707 14.672 7.9479 15.7308 7.25307L16.4753 6.77331H19.6351C21.8684 6.77331 22.861 6.83949 22.9934 6.97183Z" fill="#635BFF"/>
<path d="M18.0799 8.54337C16.4752 9.33746 16.5083 12.0175 18.1295 12.795C19.7839 13.5726 21.5871 12.4642 21.5871 10.6609C21.5871 8.84115 19.7508 7.73275 18.0799 8.54337ZM19.5688 10.0819C19.7508 10.1812 19.8831 10.4293 19.8831 10.6609C19.8831 10.9918 19.4861 11.4054 19.1552 11.4054C18.9898 11.4054 18.5597 10.876 18.5597 10.6609C18.5597 10.4459 18.9898 9.91647 19.1552 9.91647C19.2048 9.91647 19.3868 9.99919 19.5688 10.0819Z" fill="#635BFF"/>
</svg>
