<svg width="30" height="30" viewBox="0 0 30 30" fill="none" xmlns="http://www.w3.org/2000/svg">
<path d="M21.1922 20.5866C21.3314 20.5866 21.4706 20.5927 21.6097 20.5786C21.9325 20.5463 22.231 20.4676 22.5154 20.3103C23.0237 20.0299 23.415 19.5257 23.5623 18.9649C23.6752 18.5333 23.6349 18.0552 23.6349 17.6135V14.3115C23.6349 13.9 23.532 13.4865 23.3122 13.1356C23.0056 12.6474 22.5033 12.2682 21.9345 12.1492C21.5069 12.0605 20.9784 12.0564 20.5609 12.1896C20.0102 12.3651 19.512 12.7584 19.2558 13.2848C19.0924 13.6197 19.0158 13.9666 19.0158 14.3398V18.2993C19.0158 18.5797 19.04 18.8641 19.1408 19.1283C19.3486 19.6689 19.7379 20.1429 20.2765 20.3769C20.5689 20.508 20.8675 20.5826 21.1922 20.5866C21.5089 20.5887 21.8115 20.3063 21.7973 19.9815C21.7832 19.6507 21.5311 19.3784 21.1922 19.3764C21.1176 19.3764 21.045 19.3704 20.9703 19.3603C21.0248 19.3683 21.0772 19.3744 21.1317 19.3825C20.9966 19.3623 20.8675 19.326 20.7424 19.2735L20.8876 19.334C20.7989 19.2957 20.7121 19.2493 20.6315 19.1969C20.6274 19.1949 20.5669 19.1565 20.5669 19.1505C20.5669 19.1525 20.7 19.2614 20.6173 19.1888C20.581 19.1565 20.5447 19.1263 20.5104 19.092C20.4802 19.0617 20.4499 19.0295 20.4217 18.9952C20.3874 18.9548 20.3551 18.8842 20.4499 19.0355C20.4358 19.0133 20.4197 18.9932 20.4035 18.971C20.3491 18.8903 20.3047 18.8036 20.2664 18.7148L20.3269 18.86C20.2744 18.735 20.2381 18.6059 20.218 18.4707C20.226 18.5252 20.2321 18.5776 20.2401 18.6321C20.2159 18.4445 20.224 18.2509 20.224 18.0613V14.725C20.224 14.5032 20.2099 14.2752 20.2401 14.0554C20.2321 14.1098 20.226 14.1623 20.218 14.2167C20.2381 14.0816 20.2744 13.9525 20.3269 13.8274L20.2664 13.9727C20.3047 13.8839 20.3511 13.7972 20.4035 13.7165C20.4055 13.7125 20.4439 13.6519 20.4499 13.6519C20.4479 13.6519 20.339 13.7851 20.4116 13.7024C20.4439 13.6661 20.4741 13.6298 20.5084 13.5955C20.5387 13.5652 20.5709 13.535 20.6052 13.5067C20.6456 13.4724 20.7162 13.4402 20.5649 13.535C20.5871 13.5208 20.6073 13.5047 20.6294 13.4886C20.7101 13.4341 20.7969 13.3897 20.8856 13.3514L20.7404 13.4119C20.8654 13.3595 20.9945 13.3232 21.1297 13.303C21.0752 13.3111 21.0228 13.3171 20.9683 13.3252C21.1942 13.2949 21.4484 13.2949 21.6763 13.3252C21.6218 13.3171 21.5694 13.3111 21.5149 13.303C21.6501 13.3232 21.7792 13.3595 21.9042 13.4119L21.759 13.3514C21.8478 13.3897 21.9345 13.4361 22.0152 13.4886C22.0192 13.4906 22.0797 13.5289 22.0797 13.535C22.0797 13.5329 21.9466 13.424 22.0293 13.4966C22.0656 13.5289 22.1019 13.5592 22.1362 13.5935C22.1665 13.6237 22.1967 13.656 22.225 13.6903C22.2592 13.7306 22.2915 13.8012 22.1967 13.6499C22.2108 13.6721 22.227 13.6923 22.2431 13.7145C22.2976 13.7952 22.3419 13.8819 22.3803 13.9706L22.3198 13.8254C22.3722 13.9505 22.4085 14.0796 22.4287 14.2147C22.4206 14.1602 22.4146 14.1078 22.4065 14.0533C22.4307 14.2409 22.4226 14.4346 22.4226 14.6242V17.9604C22.4226 18.1823 22.4367 18.4102 22.4065 18.6301C22.4146 18.5756 22.4206 18.5232 22.4287 18.4687C22.4085 18.6039 22.3722 18.733 22.3198 18.858L22.3803 18.7128C22.3419 18.8015 22.2955 18.8883 22.2431 18.969C22.2411 18.973 22.2028 19.0335 22.1967 19.0335C22.1987 19.0335 22.3077 18.9004 22.235 18.9831C22.2028 19.0194 22.1725 19.0557 22.1382 19.09C22.108 19.1202 22.0757 19.1505 22.0414 19.1787C22.0011 19.213 21.9305 19.2453 22.0817 19.1505C22.0596 19.1646 22.0394 19.1807 22.0172 19.1969C21.9365 19.2513 21.8498 19.2957 21.761 19.334L21.9063 19.2735C21.7812 19.326 21.6521 19.3623 21.517 19.3825C21.5714 19.3744 21.6239 19.3683 21.6783 19.3603C21.517 19.3825 21.3556 19.3764 21.1922 19.3764C20.8755 19.3764 20.573 19.6548 20.5871 19.9815C20.6012 20.3083 20.8513 20.5866 21.1922 20.5866ZM9.0817 20.5866C9.22087 20.5866 9.36005 20.5927 9.49923 20.5786C9.82196 20.5463 10.1205 20.4676 10.4049 20.3103C10.9132 20.0299 11.3045 19.5257 11.4518 18.9649C11.5647 18.5333 11.5244 18.0552 11.5244 17.6135V14.3115C11.5244 13.9 11.4215 13.4865 11.2016 13.1356C10.895 12.6474 10.3928 12.2682 9.82398 12.1492C9.39636 12.0605 8.86789 12.0564 8.45035 12.1896C7.89969 12.3651 7.40147 12.7584 7.14531 13.2848C6.98192 13.6197 6.90527 13.9666 6.90527 14.3398V18.2993C6.90527 18.5797 6.92948 18.8641 7.03033 19.1283C7.23809 19.6689 7.62739 20.1429 8.16594 20.3769C8.45842 20.508 8.75695 20.5826 9.0817 20.5866C9.39838 20.5887 9.70094 20.3063 9.68682 19.9815C9.6727 19.6507 9.42056 19.3784 9.0817 19.3764C9.00706 19.3764 8.93445 19.3704 8.85982 19.3603C8.91428 19.3683 8.96672 19.3744 9.02118 19.3825C8.88604 19.3623 8.75695 19.326 8.63189 19.2735L8.77712 19.334C8.68837 19.2957 8.60163 19.2493 8.52095 19.1969C8.51692 19.1949 8.4564 19.1565 8.4564 19.1505C8.4564 19.1525 8.58953 19.2614 8.50683 19.1888C8.47052 19.1565 8.43422 19.1263 8.39993 19.092C8.36967 19.0617 8.33941 19.0295 8.31117 18.9952C8.27688 18.9548 8.24461 18.8842 8.33941 19.0355C8.32529 19.0133 8.30916 18.9932 8.29302 18.971C8.23856 18.8903 8.19418 18.8036 8.15586 18.7148L8.21637 18.86C8.16393 18.735 8.12762 18.6059 8.10745 18.4707C8.11552 18.5252 8.12157 18.5776 8.12964 18.6321C8.10543 18.4445 8.1135 18.2509 8.1135 18.0613V14.725C8.1135 14.5032 8.09938 14.2752 8.12964 14.0554C8.12157 14.1098 8.11552 14.1623 8.10745 14.2167C8.12762 14.0816 8.16393 13.9525 8.21637 13.8274L8.15586 13.9727C8.19418 13.8839 8.24058 13.7972 8.29302 13.7165C8.29504 13.7125 8.33336 13.6519 8.33941 13.6519C8.3374 13.6519 8.22847 13.7851 8.30109 13.7024C8.33336 13.6661 8.36362 13.6298 8.39791 13.5955C8.42816 13.5652 8.46044 13.535 8.49473 13.5067C8.53507 13.4724 8.60567 13.4402 8.45439 13.535C8.47657 13.5208 8.49674 13.5047 8.51893 13.4886C8.59962 13.4341 8.68635 13.3897 8.7751 13.3514L8.62987 13.4119C8.75493 13.3595 8.88402 13.3232 9.01917 13.303C8.96471 13.3111 8.91226 13.3171 8.8578 13.3252C9.08371 13.2949 9.33786 13.2949 9.56579 13.3252C9.51133 13.3171 9.45889 13.3111 9.40443 13.303C9.53957 13.3232 9.66867 13.3595 9.79372 13.4119L9.64849 13.3514C9.73725 13.3897 9.82398 13.4361 9.90466 13.4886C9.9087 13.4906 9.96921 13.5289 9.96921 13.535C9.96921 13.5329 9.83608 13.424 9.91878 13.4966C9.95509 13.5289 9.9914 13.5592 10.0257 13.5935C10.0559 13.6237 10.0862 13.656 10.1144 13.6903C10.1487 13.7306 10.181 13.8012 10.0862 13.6499C10.1003 13.6721 10.1165 13.6923 10.1326 13.7145C10.1871 13.7952 10.2314 13.8819 10.2698 13.9706L10.2092 13.8254C10.2617 13.9505 10.298 14.0796 10.3182 14.2147C10.3101 14.1602 10.304 14.1078 10.296 14.0533C10.3202 14.2409 10.3121 14.4346 10.3121 14.6242V17.9604C10.3121 18.1823 10.3262 18.4102 10.296 18.6301C10.304 18.5756 10.3101 18.5232 10.3182 18.4687C10.298 18.6039 10.2617 18.733 10.2092 18.858L10.2698 18.7128C10.2314 18.8015 10.185 18.8883 10.1326 18.969C10.1306 18.973 10.0923 19.0335 10.0862 19.0335C10.0882 19.0335 10.1971 18.9004 10.1245 18.9831C10.0923 19.0194 10.062 19.0557 10.0277 19.09C9.99745 19.1202 9.96517 19.1505 9.93088 19.1787C9.89054 19.213 9.81995 19.2453 9.97123 19.1505C9.94904 19.1646 9.92887 19.1807 9.90668 19.1969C9.826 19.2513 9.73926 19.2957 9.65051 19.334L9.79574 19.2735C9.67068 19.326 9.54159 19.3623 9.40645 19.3825C9.46091 19.3744 9.51335 19.3683 9.56781 19.3603C9.40645 19.3825 9.24508 19.3764 9.0817 19.3764C8.76502 19.3764 8.46245 19.6548 8.47657 19.9815C8.49069 20.3083 8.74283 20.5866 9.0817 20.5866Z" fill="#635BFF"/>
<path d="M8.1135 18.2771V13.6237C8.1135 13.188 8.1256 12.7543 8.1841 12.3207C8.17603 12.3751 8.16998 12.4276 8.16191 12.482C8.2547 11.8043 8.43623 11.1427 8.70249 10.5134L8.64197 10.6586C8.79527 10.2975 8.97681 9.94657 9.18255 9.61173C9.2834 9.44835 9.38829 9.29102 9.50125 9.13571C9.52949 9.09536 9.55974 9.05704 9.58798 9.01872C9.59807 9.0046 9.61017 8.99048 9.62026 8.97636C9.6848 8.88962 9.52344 9.0994 9.59 9.01468C9.65051 8.93803 9.71102 8.86138 9.77557 8.78877C10.0237 8.49428 10.296 8.21794 10.5844 7.96379C10.655 7.90327 10.7256 7.84276 10.7982 7.78225C10.8325 7.75401 10.8668 7.72577 10.9011 7.69955C10.9354 7.67131 11.0221 7.60878 10.8628 7.72779C10.885 7.71165 10.9051 7.69551 10.9273 7.67938C11.0826 7.56239 11.244 7.44943 11.4094 7.34454C11.7785 7.10855 12.1658 6.90482 12.5692 6.73337L12.424 6.79388C13.0533 6.52763 13.7149 6.34609 14.3927 6.25331C14.3382 6.26137 14.2857 6.26743 14.2313 6.27549C14.9191 6.18271 15.619 6.18271 16.3069 6.27549C16.2524 6.26743 16.2 6.26137 16.1455 6.25331C16.8232 6.34609 17.4848 6.52763 18.1142 6.79388L17.9689 6.73337C18.33 6.88667 18.681 7.0682 19.0158 7.27395C19.1792 7.3748 19.3365 7.47969 19.4918 7.59264C19.5322 7.62088 19.5705 7.65114 19.6088 7.67938C19.6229 7.68946 19.637 7.70157 19.6512 7.71165C19.7379 7.7762 19.5281 7.61483 19.6128 7.6814C19.6895 7.74191 19.7661 7.80242 19.8388 7.86697C20.1332 8.11507 20.4096 8.38737 20.6637 8.67581C20.7242 8.74641 20.7848 8.81701 20.8453 8.88962C20.8735 8.92391 20.9018 8.9582 20.928 8.99249C20.9562 9.02678 21.0187 9.11352 20.8997 8.95417C20.9159 8.97636 20.932 8.99653 20.9481 9.01872C21.0651 9.17403 21.1781 9.3354 21.283 9.5008C21.519 9.86992 21.7227 10.2572 21.8942 10.6606L21.8336 10.5154C22.0999 11.1447 22.2814 11.8063 22.3742 12.484C22.3661 12.4296 22.3601 12.3771 22.352 12.3227C22.4125 12.7745 22.4226 13.2263 22.4226 13.6802V18.7834C22.4226 19.1706 22.4388 19.566 22.3883 19.9513C22.3964 19.8968 22.4025 19.8444 22.4105 19.7899C22.3661 20.1046 22.2814 20.4132 22.1604 20.7077L22.2209 20.5624C22.1281 20.7843 22.0132 20.9961 21.88 21.1958C21.8478 21.2442 21.8135 21.2906 21.7812 21.337C21.7066 21.4419 21.8699 21.2281 21.8034 21.3087C21.7872 21.3289 21.7711 21.3511 21.753 21.3713C21.6763 21.4641 21.5976 21.5508 21.5129 21.6355C21.4282 21.7202 21.3395 21.8009 21.2487 21.8755C21.2285 21.8917 21.2083 21.9098 21.1862 21.926C21.1035 21.9925 21.3052 21.8372 21.2245 21.8957C21.1741 21.932 21.1236 21.9683 21.0732 22.0026C20.8735 22.1357 20.6617 22.2507 20.4398 22.3435L20.5851 22.283C20.2906 22.404 19.984 22.4887 19.6673 22.5331C19.7218 22.525 19.7742 22.519 19.8287 22.5109C19.5019 22.5553 19.1711 22.5452 18.8423 22.5452H17.3033C16.9866 22.5452 16.6841 22.8236 16.6982 23.1503C16.7123 23.4791 16.9644 23.7555 17.3033 23.7555H18.8342C19.0259 23.7555 19.2195 23.7595 19.4111 23.7555C19.9215 23.7434 20.4358 23.6445 20.9078 23.4509C21.874 23.0515 22.701 22.3354 23.1689 21.3914C23.4937 20.7399 23.6369 20.0461 23.6369 19.3219V13.3635C23.6349 12.4135 23.4755 11.4513 23.1488 10.5577C22.8039 9.60972 22.3016 8.74641 21.6541 7.97185C21.045 7.24369 20.2986 6.6184 19.4817 6.13833C18.6446 5.64818 17.7128 5.29721 16.7567 5.1298C15.7259 4.95028 14.6892 4.95633 13.6625 5.15198C12.7165 5.3315 11.7926 5.69458 10.9677 6.19279C10.1548 6.68496 9.41653 7.3163 8.81948 8.05254C8.18006 8.8392 7.68588 9.71259 7.35306 10.6707C7.05454 11.534 6.90729 12.4558 6.90527 13.3675V18.2771C6.90527 18.5938 7.18363 18.8963 7.5104 18.8822C7.83514 18.8661 8.1135 18.616 8.1135 18.2771Z" fill="#635BFF"/>
<path d="M16.6961 23.1503C16.6961 23.2068 16.692 23.2613 16.684 23.3157C16.692 23.2613 16.6981 23.2088 16.7061 23.1544C16.69 23.2613 16.6618 23.3641 16.6214 23.465L16.6819 23.3198C16.6517 23.3883 16.6174 23.4549 16.577 23.5174C16.575 23.5215 16.5448 23.5739 16.5407 23.5719C16.5387 23.5719 16.6416 23.4488 16.5871 23.5114C16.5609 23.5416 16.5347 23.5699 16.5085 23.5981C16.4843 23.6223 16.458 23.6465 16.4318 23.6687C16.3935 23.703 16.339 23.7151 16.4822 23.6304C16.4681 23.6385 16.454 23.6506 16.4399 23.6606C16.3733 23.705 16.3027 23.7413 16.2301 23.7736L16.3753 23.7131C16.2745 23.7534 16.1716 23.7817 16.0647 23.7978C16.1192 23.7897 16.1716 23.7837 16.2261 23.7756C15.9538 23.8099 15.6673 23.7877 15.393 23.7877C15.1127 23.7877 14.8222 23.8099 14.5418 23.7776C14.5963 23.7857 14.6487 23.7917 14.7032 23.7998C14.5983 23.7837 14.4954 23.7575 14.3966 23.7191L14.5418 23.7796C14.4652 23.7474 14.3905 23.709 14.322 23.6627C14.2655 23.6243 14.2554 23.58 14.3441 23.6828C14.3179 23.6526 14.2816 23.6284 14.2534 23.6001C14.2292 23.5759 14.1848 23.5396 14.1707 23.5094C14.1888 23.5336 14.209 23.5578 14.2272 23.584C14.2151 23.5679 14.203 23.5497 14.1909 23.5336C14.1445 23.465 14.1061 23.3904 14.0739 23.3137L14.1344 23.4589C14.096 23.3601 14.0678 23.2592 14.0537 23.1523C14.0618 23.2068 14.0678 23.2592 14.0759 23.3137C14.0638 23.2028 14.0618 23.0938 14.0759 22.9849C14.0678 23.0394 14.0618 23.0918 14.0537 23.1463C14.0698 23.0394 14.0981 22.9365 14.1384 22.8357L14.0779 22.9809C14.1082 22.9123 14.1424 22.8457 14.1828 22.7832C14.1848 22.7792 14.2151 22.7267 14.2191 22.7287C14.2211 22.7287 14.1182 22.8518 14.1727 22.7893C14.1989 22.759 14.2251 22.7308 14.2514 22.7025C14.2756 22.6783 14.3018 22.6541 14.328 22.6319C14.3663 22.5976 14.4208 22.5855 14.2776 22.6703C14.2917 22.6622 14.3058 22.6501 14.3199 22.64C14.3865 22.5956 14.4571 22.5593 14.5297 22.527L14.3845 22.5876C14.4853 22.5472 14.5882 22.519 14.6951 22.5028C14.6407 22.5109 14.5882 22.517 14.5338 22.525C14.8061 22.4907 15.0925 22.5129 15.3668 22.5129C15.6472 22.5129 15.9376 22.4907 16.218 22.523C16.1635 22.5149 16.1111 22.5089 16.0566 22.5008C16.1615 22.517 16.2644 22.5432 16.3632 22.5815L16.218 22.521C16.2947 22.5533 16.3693 22.5916 16.4379 22.638C16.4943 22.6763 16.5044 22.7207 16.4157 22.6178C16.4419 22.6481 16.4782 22.6723 16.5065 22.7005C16.5307 22.7247 16.575 22.761 16.5892 22.7913C16.571 22.7671 16.5508 22.7429 16.5327 22.7166C16.5448 22.7328 16.5569 22.7509 16.569 22.7671C16.6154 22.8357 16.6537 22.9103 16.686 22.9869L16.6255 22.8417C16.6638 22.9405 16.692 23.0414 16.7061 23.1483C16.6981 23.0938 16.692 23.0414 16.684 22.9869C16.692 23.0414 16.6961 23.0959 16.6961 23.1503C16.7001 23.467 16.9724 23.7696 17.3012 23.7554C17.6259 23.7413 17.9103 23.4892 17.9063 23.1503C17.8982 22.4726 17.513 21.7928 16.8877 21.4983C16.6174 21.3713 16.3471 21.3007 16.0466 21.2986H14.8867C14.5035 21.2986 14.1404 21.345 13.7975 21.5346C13.2569 21.8312 12.9302 22.3818 12.8596 22.9829C12.7789 23.6687 13.142 24.3323 13.7047 24.7075C14.0577 24.9435 14.4652 25 14.8787 25H16.0526C16.3632 24.998 16.6597 24.9193 16.9361 24.7761C17.5331 24.4634 17.9003 23.8139 17.9083 23.1483C17.9124 22.8316 17.6279 22.5291 17.3032 22.5432C16.9704 22.5613 16.7001 22.8115 16.6961 23.1503Z" fill="#635BFF"/>
</svg>
