<svg width="30" height="30" viewBox="0 0 30 30" fill="none" xmlns="http://www.w3.org/2000/svg">
<rect width="30" height="30" rx="15" fill="white"/>
<path d="M9.81812 11.1818H20.1818M19.0908 11.7273V19.3636C19.0908 19.7976 18.9184 20.2138 18.6116 20.5207C18.3047 20.8276 17.8885 21 17.4545 21H12.5454C12.1114 21 11.6952 20.8276 11.3883 20.5207C11.0814 20.2138 10.909 19.7976 10.909 19.3636V11.7273M13.6363 11.1818V9.54545C13.6363 9.40079 13.6938 9.26205 13.7961 9.15976C13.8983 9.05747 14.0371 9 14.1818 9H15.8181C15.9628 9 16.1015 9.05747 16.2038 9.15976C16.3061 9.26205 16.3636 9.40079 16.3636 9.54545V11.1818M13.6363 13.9091V17.7273M16.3636 13.9091V17.7273" stroke="#FF6359" stroke-linecap="round" stroke-linejoin="round"/>
</svg>
