<svg width="30" height="30" viewBox="0 0 30 30" fill="none" xmlns="http://www.w3.org/2000/svg">
<rect width="30" height="30" rx="15" fill="white"/>
<path d="M21.8975 14.6859C21.7629 14.5014 18.6317 10.5126 15.0019 10.5126C11.5517 10.5126 8.25596 14.5014 8.11635 14.6709C8.04107 14.7641 8 14.8802 8 15C8 15.1198 8.04107 15.2359 8.11635 15.3291C8.25596 15.4986 11.5517 19.4873 15.0019 19.4873C18.4522 19.4873 21.7529 15.4986 21.8875 15.3041C21.9585 15.2172 21.9981 15.1089 21.9999 14.9967C22.0017 14.8845 21.9657 14.775 21.8975 14.6859ZM15.0019 18.4901C12.5688 18.4901 10.0409 15.9423 9.20827 15C10.0409 14.0776 12.5688 11.5098 15.0019 11.5098C17.5697 11.5098 20.0128 14.0576 20.8056 15C19.9879 15.9074 17.4949 18.4901 15.0019 18.4901Z" fill="#635BFF"/>
<path d="M15.0018 12.507C14.5087 12.507 14.0267 12.6532 13.6167 12.9272C13.2068 13.2011 12.8872 13.5904 12.6986 14.046C12.5099 14.5015 12.4605 15.0028 12.5567 15.4863C12.6529 15.9699 12.8903 16.4141 13.239 16.7628C13.5876 17.1114 14.0318 17.3489 14.5154 17.4451C14.999 17.5413 15.5003 17.4919 15.9558 17.3032C16.4113 17.1145 16.8007 16.795 17.0746 16.385C17.3485 15.975 17.4947 15.4931 17.4947 15C17.4947 14.3388 17.2321 13.7047 16.7646 13.2372C16.297 12.7697 15.6629 12.507 15.0018 12.507ZM15.0018 16.4958C14.7059 16.4958 14.4167 16.408 14.1708 16.2437C13.9248 16.0793 13.7331 15.8457 13.6198 15.5724C13.5066 15.2991 13.477 14.9983 13.5347 14.7082C13.5924 14.418 13.7349 14.1515 13.9441 13.9423C14.1533 13.7331 14.4198 13.5907 14.71 13.5329C15.0001 13.4752 15.3009 13.5049 15.5742 13.6181C15.8475 13.7313 16.0811 13.923 16.2455 14.169C16.4098 14.415 16.4975 14.7042 16.4975 15C16.4975 15.3967 16.34 15.7772 16.0594 16.0577C15.7789 16.3382 15.3985 16.4958 15.0018 16.4958Z" fill="#635BFF"/>
</svg>
