<svg width="36" height="37" viewBox="0 0 36 37" fill="none" xmlns="http://www.w3.org/2000/svg">
<path opacity="0.5" d="M12.078 10.7734L16.2 6.63342V23.8954C16.2 24.3728 16.3896 24.8306 16.7272 25.1682C17.0648 25.5058 17.5226 25.6954 18 25.6954C18.4774 25.6954 18.9352 25.5058 19.2728 25.1682C19.6104 24.8306 19.8 24.3728 19.8 23.8954V6.63342L23.922 10.7734C24.0893 10.9421 24.2884 11.076 24.5078 11.1674C24.7271 11.2588 24.9624 11.3059 25.2 11.3059C25.4376 11.3059 25.6729 11.2588 25.8922 11.1674C26.1116 11.076 26.3107 10.9421 26.478 10.7734C26.6467 10.6061 26.7806 10.407 26.872 10.1877C26.9634 9.96831 27.0104 9.73304 27.0104 9.49542C27.0104 9.2578 26.9634 9.02253 26.872 8.80318C26.7806 8.58383 26.6467 8.38475 26.478 8.21742L19.278 1.01742C19.1068 0.853546 18.905 0.725089 18.684 0.639419C18.2458 0.459386 17.7542 0.459386 17.316 0.639419C17.095 0.725089 16.8932 0.853546 16.722 1.01742L9.522 8.21742C9.35417 8.38525 9.22104 8.58449 9.13021 8.80377C9.03938 9.02305 8.99263 9.25807 8.99263 9.49542C8.99263 9.73277 9.03938 9.96779 9.13021 10.1871C9.22104 10.4063 9.35417 10.6056 9.522 10.7734C9.68983 10.9412 9.88907 11.0744 10.1084 11.1652C10.3276 11.256 10.5627 11.3028 10.8 11.3028C11.0373 11.3028 11.2724 11.256 11.4916 11.1652C11.7109 11.0744 11.9102 10.9412 12.078 10.7734ZM34.2 18.4954C33.7226 18.4954 33.2648 18.6851 32.9272 19.0226C32.5896 19.3602 32.4 19.818 32.4 20.2954V31.0954C32.4 31.5728 32.2104 32.0306 31.8728 32.3682C31.5352 32.7058 31.0774 32.8954 30.6 32.8954H5.4C4.92261 32.8954 4.46477 32.7058 4.12721 32.3682C3.78964 32.0306 3.6 31.5728 3.6 31.0954V20.2954C3.6 19.818 3.41036 19.3602 3.07279 19.0226C2.73523 18.6851 2.27739 18.4954 1.8 18.4954C1.32261 18.4954 0.864773 18.6851 0.527208 19.0226C0.189642 19.3602 0 19.818 0 20.2954V31.0954C0 32.5276 0.568927 33.9011 1.58162 34.9138C2.59432 35.9265 3.96783 36.4954 5.4 36.4954H30.6C32.0322 36.4954 33.4057 35.9265 34.4184 34.9138C35.4311 33.9011 36 32.5276 36 31.0954V20.2954C36 19.818 35.8104 19.3602 35.4728 19.0226C35.1352 18.6851 34.6774 18.4954 34.2 18.4954Z" fill="#111111"/>
</svg>
