<svg width="48" height="48" viewBox="0 0 48 48" fill="none" xmlns="http://www.w3.org/2000/svg">
<path d="M40.6533 48H7.34673C5.39868 47.9971 3.5313 47.2217 2.15408 45.844C0.776856 44.4662 0.00220812 42.5985 0 40.6505V7.34673C0.00220964 5.39893 0.776947 3.53155 2.15425 2.15425C3.53155 0.776947 5.39893 0.00220964 7.34673 0H40.6533C42.6011 0.00220964 44.4684 0.776947 45.8457 2.15425C47.223 3.53155 47.9978 5.39893 48 7.34673V40.6505C47.9978 42.5985 47.2231 44.4662 45.8459 45.844C44.4687 47.2217 42.6013 47.9971 40.6533 48ZM7.34673 3.47856C6.32116 3.47967 5.33792 3.88756 4.61274 4.61274C3.88756 5.33792 3.47967 6.32116 3.47856 7.34673V40.6505C3.4793 41.6764 3.88698 42.6602 4.61217 43.3859C5.33735 44.1116 6.3208 44.52 7.34673 44.5214H40.6533C41.6792 44.52 42.6626 44.1116 43.3878 43.3859C44.113 42.6602 44.5207 41.6764 44.5214 40.6505V7.34673C44.5203 6.32116 44.1124 5.33792 43.3873 4.61274C42.6621 3.88756 41.6788 3.47967 40.6533 3.47856H7.34673Z" fill="#D5DCE4"/>
<path d="M16.1543 23.6181C14.9247 23.6181 13.7227 23.2535 12.7003 22.5704C11.678 21.8872 10.8811 20.9163 10.4106 19.7803C9.94005 18.6443 9.81694 17.3943 10.0568 16.1884C10.2967 14.9824 10.8888 13.8747 11.7582 13.0052C12.6277 12.1358 13.7354 11.5437 14.9414 11.3038C16.1474 11.0639 17.3974 11.187 18.5334 11.6576C19.6693 12.1281 20.6403 12.9249 21.3234 13.9473C22.0065 14.9697 22.3711 16.1716 22.3711 17.4012C22.3693 19.0495 21.7137 20.6297 20.5482 21.7952C19.3827 22.9607 17.8025 23.6163 16.1543 23.6181ZM16.1543 14.6643C15.6126 14.6643 15.0831 14.8249 14.6328 15.1259C14.1824 15.4268 13.8315 15.8546 13.6242 16.355C13.417 16.8555 13.3629 17.4061 13.4686 17.9373C13.5744 18.4686 13.8354 18.9565 14.2185 19.3394C14.6016 19.7223 15.0896 19.983 15.6209 20.0885C16.1522 20.194 16.7028 20.1396 17.2031 19.9321C17.7035 19.7246 18.131 19.3734 18.4318 18.9229C18.7325 18.4724 18.8929 17.9429 18.8926 17.4012C18.8915 16.6754 18.6026 15.9797 18.0892 15.4666C17.5759 14.9536 16.88 14.665 16.1543 14.6643ZM3.35871 44.0637C3.02283 44.0634 2.69423 43.9658 2.4126 43.7828C2.13097 43.5998 1.90836 43.3391 1.77166 43.0323C1.63496 42.7255 1.59002 42.3857 1.64226 42.0539C1.69451 41.7221 1.8417 41.4125 2.06607 41.1626L10.2421 32.0529C11.031 31.1688 12.1322 30.6253 13.3139 30.5368C14.4955 30.4483 15.6654 30.8217 16.5772 31.5784L20.0906 34.4782C20.2047 34.5756 20.3379 34.648 20.4817 34.6907C20.6255 34.7333 20.7767 34.7453 20.9254 34.7259C21.073 34.7105 21.2159 34.6657 21.3457 34.594C21.4755 34.5223 21.5895 34.4251 21.681 34.3084L30.9256 22.3644C31.3519 21.8103 31.8998 21.3616 32.5271 21.053C33.1544 20.7445 33.8442 20.5843 34.5433 20.5848H34.56C35.2526 20.5838 35.9364 20.7404 36.5595 21.0427C37.1827 21.345 37.7289 21.7851 38.1569 22.3296L47.023 33.6099C47.3081 33.9727 47.4374 34.4338 47.3825 34.8919C47.3275 35.35 47.0929 35.7675 46.7301 36.0526C46.3674 36.3377 45.9062 36.4669 45.4481 36.412C44.9901 36.3571 44.5726 36.1224 44.2875 35.7597L35.4213 24.4794C35.3177 24.3475 35.1851 24.2413 35.0338 24.1689C34.8825 24.0965 34.7166 24.0599 34.5489 24.062C34.3806 24.0681 34.2155 24.1096 34.0642 24.1837C33.913 24.2577 33.779 24.3628 33.6709 24.4919L24.4193 36.4303C24.0428 36.9161 23.5727 37.3213 23.0367 37.622C22.5007 37.9227 21.9099 38.1127 21.2991 38.1808C20.6883 38.2489 20.0701 38.1938 19.4811 38.0186C18.892 37.8434 18.3441 37.5517 17.8699 37.1608L14.3565 34.2611C14.1362 34.0783 13.8534 33.9881 13.5679 34.0097C13.2824 34.0312 13.0164 34.1628 12.826 34.3766L4.66108 43.4793C4.49797 43.6637 4.29746 43.8111 4.07288 43.9119C3.84831 44.0127 3.60485 44.0644 3.35871 44.0637Z" fill="#D5DCE4"/>
</svg>
