<svg width="14" height="14" viewBox="0 0 14 14" fill="none" xmlns="http://www.w3.org/2000/svg">
<path d="M4.697 3.99522L6.3 2.38522V9.09822C6.3 9.28387 6.37375 9.46192 6.50503 9.59319C6.6363 9.72447 6.81435 9.79822 7 9.79822C7.18565 9.79822 7.3637 9.72447 7.49497 9.59319C7.62625 9.46192 7.7 9.28387 7.7 9.09822V2.38522L9.303 3.99522C9.36807 4.06083 9.44549 4.1129 9.5308 4.14844C9.6161 4.18398 9.70759 4.20228 9.8 4.20228C9.89241 4.20228 9.9839 4.18398 10.0692 4.14844C10.1545 4.1129 10.2319 4.06083 10.297 3.99522C10.3626 3.93014 10.4147 3.85272 10.4502 3.76742C10.4858 3.68212 10.5041 3.59063 10.5041 3.49822C10.5041 3.40581 10.4858 3.31432 10.4502 3.22902C10.4147 3.14371 10.3626 3.06629 10.297 3.00122L7.497 0.201218C7.43043 0.13749 7.35193 0.0875345 7.266 0.0542184C7.09558 -0.0157942 6.90442 -0.0157942 6.734 0.0542184C6.64807 0.0875345 6.56957 0.13749 6.503 0.201218L3.703 3.00122C3.63773 3.06649 3.58596 3.14397 3.55064 3.22924C3.51532 3.31452 3.49714 3.40592 3.49714 3.49822C3.49714 3.59052 3.51532 3.68192 3.55064 3.76719C3.58596 3.85247 3.63773 3.92995 3.703 3.99522C3.76827 4.06049 3.84575 4.11226 3.93103 4.14758C4.0163 4.1829 4.1077 4.20108 4.2 4.20108C4.2923 4.20108 4.3837 4.1829 4.46897 4.14758C4.55425 4.11226 4.63173 4.06049 4.697 3.99522ZM13.3 6.99822C13.1143 6.99822 12.9363 7.07197 12.805 7.20324C12.6737 7.33452 12.6 7.51257 12.6 7.69822V11.8982C12.6 12.0839 12.5263 12.2619 12.395 12.3932C12.2637 12.5245 12.0857 12.5982 11.9 12.5982H2.1C1.91435 12.5982 1.7363 12.5245 1.60503 12.3932C1.47375 12.2619 1.4 12.0839 1.4 11.8982V7.69822C1.4 7.51257 1.32625 7.33452 1.19497 7.20324C1.0637 7.07197 0.885652 6.99822 0.7 6.99822C0.514348 6.99822 0.336301 7.07197 0.205025 7.20324C0.0737498 7.33452 0 7.51257 0 7.69822V11.8982C0 12.4552 0.221249 12.9893 0.615076 13.3831C1.0089 13.777 1.54305 13.9982 2.1 13.9982H11.9C12.457 13.9982 12.9911 13.777 13.3849 13.3831C13.7788 12.9893 14 12.4552 14 11.8982V7.69822C14 7.51257 13.9263 7.33452 13.795 7.20324C13.6637 7.07197 13.4857 6.99822 13.3 6.99822Z" fill="white"/>
</svg>
