<svg width="48" height="48" viewBox="0 0 48 48" fill="none" xmlns="http://www.w3.org/2000/svg">
<path d="M46.0637 48.0003H2.03822C0.917197 48.0003 0 47.0831 0 45.9621V24.6627C0 23.5417 0.917197 22.6245 2.03822 22.6245H45.9618C47.0828 22.6245 48 23.5417 48 24.6627V45.9621C48 47.0831 47.0828 48.0003 46.0637 48.0003ZM4.07643 44.0258H44.0255V26.7009H4.07643V44.0258Z" fill="#D5DCE4"/>
<path d="M21.5048 26.7009H9.27552C8.1545 26.7009 7.2373 25.7837 7.2373 24.6627V16.2041C7.2373 15.0831 8.1545 14.1659 9.27552 14.1659H21.5048C22.6258 14.1659 23.543 15.0831 23.543 16.2041V24.6627C23.543 25.7837 22.6258 26.7009 21.5048 26.7009ZM11.3137 22.6245H19.5685V18.1404H11.3137V22.6245Z" fill="#D5DCE4"/>
<path d="M24.0512 18.1406H6.82826C5.70724 18.1406 4.79004 17.2234 4.79004 16.1024C4.79004 14.9814 5.70724 14.0642 6.82826 14.0642H24.0512C25.1722 14.0642 26.0894 14.9814 26.0894 16.1024C26.0894 17.2234 25.1722 18.1406 24.0512 18.1406ZM42.3951 26.7011H33.2232C32.1021 26.7011 31.1849 25.7839 31.1849 24.6629V2.0387C31.1849 0.917686 32.1021 0.000488281 33.2232 0.000488281H42.3951C43.5162 0.000488281 44.4334 0.917686 44.4334 2.0387V24.6629C44.4334 25.7839 43.5162 26.7011 42.3951 26.7011ZM35.1595 22.6247H40.3569V4.07692H35.1595V22.6247ZM12.7391 38.6247C11.6181 38.6247 10.7009 37.7075 10.7009 36.5865V33.3253C10.7009 32.2043 11.6181 31.2871 12.7391 31.2871C13.8601 31.2871 14.7773 32.2043 14.7773 33.3253V36.5865C14.6754 37.8094 13.8601 38.6247 12.7391 38.6247ZM24.0512 38.6247C22.9302 38.6247 22.013 37.7075 22.013 36.5865V33.3253C22.013 32.2043 22.9302 31.2871 24.0512 31.2871C25.1722 31.2871 26.0894 32.2043 26.0894 33.3253V36.5865C26.0894 37.8094 25.1722 38.6247 24.0512 38.6247ZM35.3633 38.6247C34.2423 38.6247 33.3251 37.7075 33.3251 36.5865V33.3253C33.3251 32.2043 34.2423 31.2871 35.3633 31.2871C36.4843 31.2871 37.4015 32.2043 37.4015 33.3253V36.5865C37.4015 37.8094 36.4843 38.6247 35.3633 38.6247Z" fill="#D5DCE4"/>
</svg>
