<svg width="50" height="56" viewBox="0 0 50 56" fill="none" xmlns="http://www.w3.org/2000/svg">
<path d="M24.9996 0.0090332C24.0335 0.0090332 23.2503 0.792241 23.2503 1.75838C23.2503 2.72451 24.0335 3.50772 24.9996 3.50772C25.9657 3.50772 26.7489 2.72451 26.7489 1.75838C26.7489 0.792241 25.9657 0.0090332 24.9996 0.0090332ZM10.1564 7.1761C9.47336 6.49304 8.36591 6.49304 7.68285 7.1761C6.99979 7.85915 6.99979 8.96661 7.68285 9.64967C8.36591 10.3327 9.47336 10.3327 10.1564 9.64967C10.8395 8.96661 10.8395 7.85915 10.1564 7.1761ZM42.3164 7.1761C41.6333 6.49304 40.5258 6.49304 39.8428 7.1761C39.1597 7.85915 39.1597 8.96661 39.8428 9.64967C40.5258 10.3327 41.6333 10.3327 42.3164 9.64967C42.9994 8.96661 42.9994 7.85915 42.3164 7.1761ZM25.0941 7.00641C15.5357 7.00641 7.62862 14.2872 7.62862 23.3803C7.62862 29.6289 10.5815 33.8973 13.279 37.0951C14.6295 38.6905 15.9205 40.069 16.7987 41.2901C17.6768 42.5146 18.1037 43.5012 18.1037 44.4949V54.009C18.1037 55.1136 18.9991 56.009 20.1037 56.009H30.0844C31.189 56.009 32.0844 55.1136 32.0844 54.009V44.4949C32.0844 43.5012 32.5183 42.5006 33.3965 41.2691C34.2781 40.0375 35.5621 38.6555 36.9091 37.0531C39.6101 33.8448 42.563 29.5834 42.563 23.3803C42.563 14.2872 34.656 7.00641 25.0941 7.00641ZM25.0941 10.5051C32.8961 10.5051 39.0643 16.3199 39.0643 23.3803C39.0643 28.5023 36.7727 31.7841 34.2326 34.8035C32.9626 36.3149 31.6331 37.7179 30.5485 39.2398C29.4639 40.7618 28.5893 42.4831 28.5893 44.4949V46.0868C28.4831 46.0675 28.3753 46.0581 28.2674 46.0588H26.7489V31.4972H27.4983C28.0506 31.4972 28.4983 31.0495 28.4983 30.4972V28.9985C28.4983 28.4463 28.0506 27.9985 27.4983 27.9985H22.5009C21.9486 27.9985 21.5009 28.4463 21.5009 28.9985V30.4972C21.5009 31.0495 21.9486 31.4972 22.5009 31.4972H23.2503V46.0588H21.7318C21.6887 46.0572 21.6455 46.0572 21.6024 46.0588V44.4949C21.6024 42.4831 20.7277 40.7617 19.6431 39.2468C18.5585 37.7319 17.222 36.3429 15.952 34.8385C13.4154 31.8331 11.1273 28.5583 11.1273 23.3803C11.1273 16.3199 17.2955 10.5051 25.0941 10.5051ZM2.25813 21.0012C1.292 21.0012 0.508789 21.7844 0.508789 22.7505C0.508789 23.7166 1.292 24.4998 2.25813 24.4998C3.22427 24.4998 4.00748 23.7166 4.00748 22.7505C4.00748 21.7844 3.22427 21.0012 2.25813 21.0012ZM47.7411 21.0012C46.7749 21.0012 45.9917 21.7844 45.9917 22.7505C45.9917 23.7166 46.7749 24.4998 47.7411 24.4998C48.7072 24.4998 49.4904 23.7166 49.4904 22.7505C49.4904 21.7844 48.7072 21.0012 47.7411 21.0012ZM28.5858 49.5295V52.5103H21.6059V49.5505C21.6082 49.5505 21.6105 49.5505 21.6129 49.5505C21.6536 49.5542 21.6944 49.5566 21.7353 49.5575H28.2709C28.3776 49.5579 28.4842 49.5485 28.5893 49.5295H28.5858Z" fill="#D5DCE4"/>
</svg>
