<svg width="24" height="24" viewBox="0 0 24 24" fill="none" xmlns="http://www.w3.org/2000/svg">
<rect width="24" height="24" fill="white"/>
<path d="M12 2C6.48205 2 2 6.48205 2 12C2 17.518 6.48205 22 12 22C17.518 22 22 17.518 22 12C22 6.48205 17.518 2 12 2ZM12 20.4615C10.8718 20.4615 9.66154 18.6769 9.05641 15.8462H14.9436C14.3385 18.6769 13.1282 20.4615 12 20.4615ZM8.8 14.3077C8.71795 13.5795 8.66667 12.8103 8.66667 12C8.66667 11.1897 8.71795 10.4205 8.8 9.69231H15.1897C15.2718 10.4205 15.3231 11.1897 15.3231 12C15.3231 12.8103 15.2718 13.5795 15.1897 14.3077H8.8ZM3.53846 12C3.53846 11.2 3.66154 10.4308 3.86667 9.69231H7.25128C7.16923 10.4308 7.12821 11.2 7.12821 12C7.12821 12.8 7.16923 13.5692 7.25128 14.3077H3.86667C3.66154 13.5692 3.53846 12.8 3.53846 12ZM12 3.53846C13.1282 3.53846 14.3385 5.32308 14.9436 8.15385H9.05641C9.66154 5.32308 10.8718 3.53846 12 3.53846ZM16.7487 9.69231H20.1333C20.3385 10.4308 20.4615 11.2 20.4615 12C20.4615 12.8 20.3385 13.5692 20.1333 14.3077H16.7487C16.8308 13.5692 16.8718 12.8 16.8718 12C16.8718 11.2 16.8308 10.4308 16.7487 9.69231ZM19.5282 8.15385H16.5231C16.2154 6.54359 15.7128 5.16923 15.0667 4.12308C17.0051 4.88205 18.5846 6.31795 19.5282 8.15385ZM8.93333 4.12308C8.28718 5.16923 7.78462 6.54359 7.47692 8.15385H4.47179C5.41538 6.31795 6.99487 4.88205 8.93333 4.12308ZM4.47179 15.8462H7.47692C7.78462 17.4564 8.28718 18.8308 8.93333 19.8769C7.00513 19.118 5.41538 17.6821 4.47179 15.8462ZM15.0667 19.8769C15.7128 18.8308 16.2154 17.4564 16.5231 15.8462H19.5282C18.5846 17.6821 17.0051 19.118 15.0667 19.8769Z" fill="#635BFF"/>
</svg>
